<?xml version="1.0" encoding="utf-8"?>
<!-- Generator: Adobe Illustrator 24.3.0, SVG Export Plug-In . SVG Version: 6.00 Build 0)  -->
<svg version="1.1" id="Layer_1" xmlns="http://www.w3.org/2000/svg" xmlns:xlink="http://www.w3.org/1999/xlink" x="0px" y="0px"
	 viewBox="0 0 252 144" style="enable-background:new 0 0 252 144;" xml:space="preserve">
<style type="text/css">
	.st0{fill:#121212;}
	.st1{fill:#1F1F1F;}
	.st2{fill:#D62029;}
	.st3{fill:#FFFFFF;}
	.st4{font-family:'Roboto-Regular';}
	.st5{font-size:9px;}
	.st6{font-family:'Montserrat-Bold';}
	.st7{font-size:8.7596px;}
</style>
<rect x="-284.47" y="-8.87" class="st0" width="270" height="162"/>
<rect x="-284.47" y="99.93" class="st1" width="270" height="53.2"/>
<rect x="-284.47" y="97.18" class="st2" width="270" height="2.75"/>
<g>
	<g>
		<g>
			<path class="st2" d="M-175.96,49.37l-2.63,1.62c-0.03-0.01-0.05-0.04-0.08-0.05l-0.47-0.28l-0.62-0.36l-10.63-6.13
				c-0.28-0.17-0.63-0.17-0.92,0l-11.73,6.76c-0.28,0.17-0.46,0.47-0.46,0.8v13.53c0,0.3,0.16,0.58,0.39,0.75l-2.63,1.62
				c-0.29-0.17-0.46-0.47-0.46-0.8V50.17c0-0.33,0.17-0.63,0.46-0.8l14.42-8.33c0.29-0.16,0.64-0.16,0.92,0L-175.96,49.37z"/>
		</g>
		<g>
			<path class="st2" d="M-175.5,50.17v16.66c0,0.33-0.18,0.63-0.46,0.8l-14.44,8.33c-0.28,0.16-0.63,0.16-0.92,0l-14.42-8.33
				l2.63-1.62c0.03,0.01,0.05,0.04,0.08,0.05l0.47,0.28l0.61,0.36l10.63,6.13c0.29,0.17,0.64,0.17,0.92,0l11.73-6.76
				c0.28-0.17,0.46-0.47,0.46-0.8V51.74c0-0.3-0.14-0.58-0.38-0.75l2.63-1.62C-175.68,49.54-175.5,49.84-175.5,50.17z"/>
		</g>
		<g>
			<path class="st2" d="M-179.79,52.65v11.71c0,0.33-0.18,0.63-0.46,0.8l-10.15,5.86c-0.28,0.16-0.63,0.16-0.92,0l-7.69-4.45
				l1.78-4.16l3.47-8.11l3.43,3.87l1.93,2.17l1.49-3.58l-0.39-0.45l-5.21-6.01h-3.08l-6.26,14.4c-0.05-0.11-0.07-0.22-0.07-0.34
				V52.65c0-0.33,0.17-0.63,0.45-0.8l10.15-5.86c0.29-0.16,0.64-0.16,0.92,0l7.7,4.45l-1.79,4.16l-3.47,8.11l-3.43-3.87l-1.92-2.17
				l-1.49,3.58l0.38,0.45l5.21,6.01h3.08l6.28-14.4C-179.81,52.41-179.79,52.53-179.79,52.65z"/>
		</g>
	</g>
	<g>
		<g>
			<g>
				<path class="st3" d="M-152.65,49.84v2.38c0,1.24,0.04,2.34,0.16,3.42h-0.04c-0.36-0.92-0.85-1.94-1.33-2.8l-1.7-3h-2.16v8.18
					h1.7v-2.46c0-1.34-0.03-2.49-0.07-3.57l0.03-0.01c0.4,0.96,0.94,2.01,1.42,2.89l1.75,3.15h1.94v-8.18H-152.65z"/>
				<path class="st3" d="M-147.89,49.5c-0.59,0-0.98,0.41-0.97,0.94c-0.01,0.51,0.38,0.92,0.96,0.92c0.61,0,0.99-0.41,0.99-0.92
					C-146.92,49.91-147.29,49.5-147.89,49.5z M-148.81,52.09v5.93h1.84v-5.93H-148.81z"/>
				<path class="st3" d="M-142.39,54.39c-0.73-0.25-0.96-0.4-0.96-0.68c0-0.3,0.25-0.48,0.7-0.48c0.51,0,1.02,0.19,1.29,0.34
					l0.33-1.27c-0.37-0.19-0.99-0.34-1.68-0.34c-1.46,0-2.41,0.83-2.41,1.95c-0.01,0.69,0.46,1.36,1.69,1.77
					c0.69,0.23,0.87,0.38,0.87,0.68s-0.23,0.5-0.79,0.5c-0.55,0-1.25-0.25-1.59-0.45l-0.33,1.32c0.45,0.24,1.14,0.43,1.92,0.43
					c1.7,0,2.57-0.83,2.57-1.93C-140.79,55.35-141.26,54.78-142.39,54.39z"/>
				<path class="st3" d="M-135.55,51.96c-0.34,0-0.68,0.08-0.95,0.23c-0.3,0.14-0.54,0.35-0.73,0.6h-0.03v-3.38h-1.84v8.61h1.84
					V54.5c0-0.13,0.02-0.29,0.06-0.41c0.14-0.33,0.44-0.64,0.93-0.64c0.69,0,0.95,0.53,0.95,1.31v3.26h1.85v-3.47
					C-133.47,52.77-134.37,51.96-135.55,51.96z"/>
				<path class="st3" d="M-126.48,56.58v-2.06c0-1.4-0.63-2.56-2.61-2.56c-1.08,0-1.89,0.29-2.3,0.52l0.34,1.19
					c0.38-0.25,1.03-0.45,1.63-0.45c0.91,0,1.08,0.45,1.08,0.76v0.09c-2.09-0.02-3.48,0.72-3.48,2.27c0,0.94,0.72,1.82,1.92,1.82
					c0.7,0,1.31-0.26,1.7-0.73h0.03l0.11,0.59h1.67C-126.46,57.69-126.48,57.15-126.48,56.58z M-128.28,55.86
					c0,0.11-0.01,0.22-0.03,0.32c-0.12,0.37-0.5,0.68-0.96,0.68c-0.41,0-0.73-0.23-0.73-0.71c0-0.71,0.75-0.94,1.72-0.93V55.86z"/>
				<path class="st3" d="M-118.71,56.25v-6.84h-1.85v3.21h-0.02c-0.27-0.41-0.84-0.66-1.57-0.66c-1.42,0-2.66,1.15-2.65,3.15
					c0,1.84,1.13,3.05,2.53,3.05c0.77,0,1.48-0.34,1.86-1.01h0.02l0.09,0.87h1.64C-118.69,57.62-118.71,56.92-118.71,56.25z
					 M-120.56,55.38c0,0.16-0.01,0.29-0.04,0.42c-0.11,0.52-0.54,0.89-1.07,0.89c-0.77,0-1.26-0.63-1.26-1.64
					c0-0.93,0.43-1.69,1.27-1.69c0.57,0,0.97,0.42,1.08,0.91c0.01,0.1,0.02,0.23,0.02,0.33V55.38z"/>
				<path class="st3" d="M-112.82,53.34v1.44h1.26v1.71c-0.15,0.08-0.49,0.12-0.91,0.12c-1.52,0-2.57-0.99-2.57-2.68
					c0-1.77,1.16-2.64,2.7-2.64c0.9,0,1.46,0.16,1.91,0.35l0.38-1.48c-0.4-0.19-1.21-0.4-2.26-0.4c-2.69,0-4.66,1.55-4.68,4.27
					c-0.01,1.2,0.4,2.27,1.16,2.97c0.75,0.73,1.83,1.11,3.32,1.11c1.08,0,2.16-0.27,2.73-0.46v-4.31H-112.82z"/>
				<path class="st3" d="M-101.93,50.66c-0.78-0.6-1.79-0.88-3.34-0.88c-0.94,0-1.82,0.06-2.5,0.17v8.04
					c0.46,0.06,1.14,0.12,2.1,0.12c1.6,0,2.91-0.34,3.77-1.06c0.79-0.67,1.36-1.75,1.36-3.31
					C-100.54,52.3-101.08,51.29-101.93,50.66z M-105.27,56.66c-0.24,0-0.49,0-0.65-0.03v-5.35c0.16-0.04,0.43-0.08,0.84-0.08
					c1.59,0,2.58,0.9,2.57,2.6C-102.51,55.75-103.6,56.68-105.27,56.66z"/>
				<path class="st3" d="M-95.15,53.84l2.3-4h-2.11l-0.69,1.5c-0.21,0.47-0.36,0.83-0.56,1.36h-0.02c-0.2-0.47-0.38-0.87-0.62-1.36
					l-0.72-1.5h-2.12l2.28,4.04l-2.36,4.14h2.11l0.68-1.48c0.25-0.57,0.46-0.99,0.63-1.47h0.02c0.23,0.48,0.43,0.9,0.73,1.47
					l0.74,1.48h2.13L-95.15,53.84z"/>
			</g>
		</g>
		<g>
			<path class="st3" d="M-154.12,62.7c-0.47-0.45-1.24-0.7-2.27-0.7c-0.53,0-1.02,0.04-1.44,0.1v5.11c0.4,0.04,0.81,0.04,1.24,0.04
				c1.09,0,1.94-0.29,2.44-0.79c0.51-0.51,0.74-1.2,0.74-1.96C-153.41,63.71-153.67,63.13-154.12,62.7z M-156.53,66.95
				c-0.35,0-0.68-0.01-0.91-0.04v-4.53c0.24-0.04,0.58-0.08,1.02-0.08c1.81,0,2.6,0.9,2.6,2.22
				C-153.82,66.02-154.72,66.95-156.53,66.95z"/>
			<path class="st3" d="M-148.58,65.11c0-0.53-0.25-1.67-1.57-1.67c-1.03,0-1.8,0.77-1.8,2c0,1.08,0.72,1.86,1.87,1.86
				c0.7,0,1.11-0.16,1.27-0.24l-0.1-0.29c-0.23,0.1-0.53,0.21-1.12,0.21c-0.83,0-1.53-0.46-1.53-1.65h2.96
				C-148.58,65.27-148.58,65.21-148.58,65.11z M-151.54,65.04c0.07-0.57,0.46-1.3,1.34-1.3c0.98,0,1.21,0.79,1.2,1.3H-151.54z"/>
			<path class="st3" d="M-145.77,65.15c-0.54-0.21-0.83-0.38-0.83-0.76c0-0.34,0.27-0.64,0.78-0.64c0.4,0,0.66,0.13,0.79,0.22
				l0.16-0.3c-0.21-0.13-0.52-0.23-0.88-0.23c-0.79,0-1.24,0.47-1.24,1c0,0.45,0.36,0.78,1.02,1.01c0.58,0.21,0.84,0.43,0.84,0.84
				c0,0.38-0.3,0.7-0.93,0.7c-0.36,0-0.69-0.14-0.91-0.26l-0.14,0.31c0.27,0.15,0.63,0.26,1.02,0.26c0.82,0,1.36-0.43,1.36-1.06
				C-144.73,65.68-145.12,65.38-145.77,65.15z"/>
			<path class="st3" d="M-142.72,62.15c-0.18,0-0.32,0.15-0.32,0.32s0.12,0.32,0.31,0.32c0.2,0,0.33-0.15,0.33-0.32
				S-142.53,62.15-142.72,62.15z M-142.92,63.53v3.69h0.39v-3.69H-142.92z"/>
			<path class="st3" d="M-137.55,63.53l-0.01,0.62h-0.02c-0.17-0.31-0.56-0.71-1.36-0.71c-0.88,0-1.8,0.68-1.8,1.96
				c0,1.01,0.71,1.82,1.72,1.82c0.72,0,1.19-0.34,1.4-0.72h0.02v0.52c0,1.09-0.62,1.5-1.46,1.5c-0.52,0-0.91-0.14-1.19-0.31
				l-0.14,0.3c0.3,0.2,0.81,0.31,1.27,0.31c0.45,0,1-0.11,1.36-0.44c0.34-0.29,0.55-0.76,0.55-1.7v-2.2c0-0.38,0.02-0.68,0.03-0.95
				H-137.55z M-137.6,65.69c0,0.13-0.03,0.27-0.08,0.39c-0.2,0.53-0.7,0.83-1.24,0.83c-0.94,0-1.42-0.72-1.42-1.55
				c0-0.97,0.58-1.62,1.44-1.62c0.65,0,1.08,0.4,1.24,0.85c0.04,0.11,0.06,0.22,0.06,0.35V65.69z"/>
			<path class="st3" d="M-133.4,63.44c-0.66,0-1.16,0.34-1.38,0.76h-0.02l-0.03-0.67h-0.37c0.02,0.29,0.04,0.54,0.04,0.88v2.81h0.39
				v-2.29c0-0.11,0.02-0.23,0.06-0.33c0.16-0.47,0.63-0.84,1.2-0.84c0.83,0,1.12,0.6,1.12,1.27v2.19h0.39V65
				C-132,63.62-133.01,63.44-133.4,63.44z"/>
			<path class="st3" d="M-125.94,64.36c-0.81-0.29-1.17-0.58-1.17-1.16c0-0.4,0.31-0.94,1.23-0.94c0.48,0,0.84,0.14,0.99,0.24
				l0.15-0.3c-0.19-0.12-0.59-0.25-1.12-0.25c-0.95,0-1.64,0.55-1.64,1.32c0,0.7,0.54,1.13,1.46,1.43c0.81,0.29,1.13,0.63,1.13,1.21
				c0,0.64-0.51,1.08-1.35,1.08c-0.48,0-0.92-0.15-1.24-0.35l-0.15,0.31c0.29,0.2,0.86,0.35,1.35,0.35c1.2,0,1.79-0.68,1.79-1.43
				C-124.51,65.09-125.01,64.71-125.94,64.36z"/>
			<path class="st3" d="M-121.07,63.44c-1,0-1.91,0.69-1.91,1.96c0,1.15,0.81,1.9,1.85,1.9c0.89,0,1.92-0.58,1.92-1.97
				C-119.21,64.2-119.96,63.44-121.07,63.44z M-121.11,66.99c-0.82,0-1.46-0.69-1.46-1.61c0-0.79,0.47-1.64,1.49-1.64
				c1.05,0,1.47,0.94,1.47,1.62C-119.61,66.3-120.27,66.99-121.11,66.99z"/>
			<path class="st3" d="M-117.43,61.76v5.46h0.39v-5.46H-117.43z"/>
			<path class="st3" d="M-111.8,66.32v-2.79h-0.4v2.29c0,0.15-0.04,0.3-0.08,0.41c-0.17,0.37-0.6,0.75-1.18,0.75
				c-0.8,0-1.07-0.58-1.07-1.38v-2.07h-0.4v2.14c0,1.4,0.86,1.63,1.37,1.63c0.72,0,1.18-0.4,1.38-0.74h0.01l0.03,0.66h0.37
				C-111.79,66.93-111.8,66.64-111.8,66.32z"/>
			<path class="st3" d="M-107.99,63.82v-0.29h-1.15v-0.82l-0.4,0.14v0.68h-0.68v0.29h0.68v2.34c0,0.37,0.07,0.68,0.25,0.87
				c0.15,0.18,0.39,0.27,0.69,0.27c0.24,0,0.42-0.04,0.56-0.09l-0.05-0.29c-0.1,0.03-0.25,0.07-0.46,0.07
				c-0.43,0-0.59-0.3-0.59-0.77v-2.4H-107.99z"/>
			<path class="st3" d="M-106.14,62.15c-0.19,0-0.33,0.15-0.33,0.32s0.13,0.32,0.31,0.32c0.21,0,0.34-0.15,0.34-0.32
				S-105.95,62.15-106.14,62.15z M-106.34,63.53v3.69h0.39v-3.69H-106.34z"/>
			<path class="st3" d="M-102.27,63.44c-1,0-1.9,0.69-1.9,1.96c0,1.15,0.8,1.9,1.84,1.9c0.9,0,1.93-0.58,1.93-1.97
				C-100.4,64.2-101.16,63.44-102.27,63.44z M-102.3,66.99c-0.82,0-1.47-0.69-1.47-1.61c0-0.79,0.47-1.64,1.49-1.64
				c1.06,0,1.48,0.94,1.48,1.62C-100.8,66.3-101.47,66.99-102.3,66.99z"/>
			<path class="st3" d="M-96.86,63.44c-0.66,0-1.16,0.34-1.38,0.76h-0.01l-0.04-0.67h-0.37c0.02,0.29,0.04,0.54,0.04,0.88v2.81h0.39
				v-2.29c0-0.11,0.03-0.23,0.06-0.33c0.16-0.47,0.64-0.84,1.2-0.84c0.83,0,1.12,0.6,1.12,1.27v2.19h0.39V65
				C-95.46,63.62-96.47,63.44-96.86,63.44z"/>
		</g>
	</g>
</g>
<text transform="matrix(1 0 0 1 -218.5364 117.166)" class="st2 st4" style="font-size:7.7472px; letter-spacing:4;">www.yoursite.com</text>
<path class="st2" d="M-85.63,8.93H-213.3c-5.45,0-9.88-4.42-9.88-9.88v-7.92h147.42v7.92C-75.76,4.51-80.18,8.93-85.63,8.93z"/>
<rect x="-8.87" y="-7.53" class="st0" width="270" height="162"/>
<path class="st2" d="M261.13,10.48l-127.75-0.1c-4.97,0-8.99-4.03-8.99-9v-8.81l136.74,0.11V10.48z"/>
<g>
	<g>
		<path class="st2" d="M261.13,65.67v-2h-270v2h134.48v1.77h-7.66v17.33h17.33V67.44h-7.67v-1.77H261.13z M133.28,69.44v13.33
			h-13.33V69.44H133.28z"/>
	</g>
</g>
<g>
	<path class="st2" d="M135.28,110.61V93.27h-7.67v-8.5h-2v8.5h-7.66v17.34h7.66v8.5h-7.66v17.33h7.66v18.03h2v-18.03h7.67v-17.33
		h-7.67v-8.5H135.28z M133.28,121.11v13.33h-13.33v-13.33H133.28z M119.95,108.61V95.27h13.33v13.34H119.95z"/>
</g>
<path class="st2" d="M130.42,101.96c0,1.27-0.66,2.09-1.6,2.09c-0.51,0-0.88-0.21-0.97-0.68l-0.02-0.17
	c-0.34,0.5-0.86,0.75-1.44,0.75c-1.02,0-1.94-0.79-1.94-1.96c0-1.11,0.73-2,1.84-2c0.74,0,1.24,0.45,1.32,0.63v-0.55h0.91v2.93
	c0,0.32,0.16,0.45,0.39,0.45c0.41,0,0.79-0.6,0.79-1.46c0-1.67-1.17-2.95-3.03-2.95c-1.74,0-3.13,1.31-3.13,2.97
	c0,1.64,1.31,2.83,3.02,2.83c0.49,0,1.15-0.16,1.62-0.49l0.34,0.61c-0.5,0.35-1.33,0.58-1.96,0.58c-2.13,0-3.74-1.5-3.74-3.52
	c0-2.06,1.69-3.65,3.85-3.65C128.82,98.35,130.42,99.87,130.42,101.96 M125.43,101.94c0,0.65,0.42,1.18,1.06,1.18
	c0.66,0,1.07-0.52,1.07-1.17c0-0.63-0.43-1.13-1.09-1.13C125.85,100.82,125.43,101.32,125.43,101.94"/>
<path class="st2" d="M128.02,77.61c0,0-1.35,0.1-2.18-0.73c-0.83-0.83-0.73-2.18-0.73-2.18s0.52-0.31,0.52-1.14
	c0-0.83-1.87-1.87-1.87-1.87c-3.53,1.04-0.1,4.87,1.14,6.12c1.24,1.24,5.08,4.67,6.12,1.14c0,0-1.04-1.87-1.87-1.87
	S128.02,77.61,128.02,77.61"/>
<path class="st2" d="M129.25,124.21c-1.52-1.52-3.99-1.52-5.52,0c-1.52,1.52-1.52,3.99,0,5.52l2.76,2.76l2.76-2.76
	C130.77,128.2,130.77,125.73,129.25,124.21 M127.69,128.16c-0.66,0.66-1.73,0.66-2.39,0c-0.66-0.66-0.66-1.73,0-2.39
	c0.66-0.66,1.73-0.66,2.39,0C128.35,126.43,128.35,127.5,127.69,128.16"/>
<text transform="matrix(1 0 0 1 33.4511 78.7319)" class="st3 st4 st5">+00 123 456 7890</text>
<text transform="matrix(1 0 0 1 145.2801 78.7322)" class="st3 st4 st5">+00 123 456 7890</text>
<text transform="matrix(1 0 0 1 145.2807 104.5669)" class="st3 st4 st5">yourname@mail.com</text>
<text transform="matrix(1 0 0 1 20.5897 104.5671)" class="st3 st4 st5">yourname@mail.com</text>
<g>
	<text transform="matrix(1 0 0 1 51.395 130.4021)" class="st3 st4 st5">Newwork City</text>
</g>
<text transform="matrix(1 0 0 1 145.2802 130.4019)" class="st3 st4 st5">Badda, Dhaka - 1212</text>
<g>
	<path class="st3" d="M22.94,24.26l-0.25,0.27c-0.24-0.23-0.52-0.41-0.84-0.54c-0.32-0.12-0.64-0.18-0.96-0.18
		c-0.78,0-1.39,0.24-1.82,0.73c-0.44,0.49-0.65,1.07-0.65,1.77c0,0.7,0.22,1.28,0.65,1.75c0.43,0.47,1.04,0.7,1.82,0.7
		c0.67,0,1.23-0.22,1.7-0.65v-1.57h-1.95v-0.38h2.36v2.1c-0.6,0.6-1.31,0.9-2.11,0.9c-0.61,0-1.14-0.13-1.59-0.4
		c-0.45-0.27-0.77-0.61-0.98-1.04s-0.32-0.9-0.32-1.42c-0.01-0.87,0.26-1.57,0.8-2.1c0.54-0.53,1.23-0.8,2.09-0.8
		C21.7,23.42,22.38,23.7,22.94,24.26z"/>
	<path class="st3" d="M24.2,25.15h0.37l0.02,0.7c0.12-0.25,0.3-0.44,0.54-0.56c0.24-0.12,0.5-0.18,0.78-0.18
		c0.3-0.01,0.58,0.07,0.85,0.23l-0.18,0.32c-0.2-0.12-0.42-0.18-0.67-0.18c-0.37,0.01-0.68,0.14-0.93,0.39
		c-0.25,0.26-0.38,0.57-0.38,0.93v2.3H24.2V25.15z"/>
	<path class="st3" d="M30.84,25.15h0.39v3.95h-0.39v-0.84c-0.37,0.6-0.91,0.9-1.62,0.9c-0.56,0-1.04-0.19-1.43-0.58
		c-0.39-0.38-0.58-0.87-0.58-1.46s0.19-1.08,0.58-1.46s0.86-0.57,1.43-0.57c0.34,0,0.65,0.08,0.94,0.23
		c0.29,0.15,0.52,0.38,0.68,0.68V25.15z M29.22,25.48c-0.46,0-0.84,0.15-1.15,0.46c-0.31,0.31-0.46,0.7-0.46,1.19
		c0,0.49,0.15,0.88,0.46,1.19c0.31,0.31,0.69,0.46,1.15,0.46c0.3,0,0.57-0.06,0.81-0.18c0.23-0.12,0.41-0.28,0.54-0.47
		c0.12-0.19,0.21-0.41,0.27-0.64s0.06-0.47,0-0.71s-0.15-0.45-0.27-0.64c-0.12-0.19-0.3-0.35-0.54-0.47S29.53,25.48,29.22,25.48z"/>
	<path class="st3" d="M32.77,30.75h-0.38v-5.6h0.38v0.94c0.16-0.3,0.39-0.55,0.69-0.72c0.3-0.18,0.64-0.27,1.02-0.27
		c0.56,0.02,1.02,0.21,1.38,0.57c0.36,0.36,0.54,0.85,0.54,1.46c0,0.64-0.19,1.14-0.57,1.5s-0.86,0.54-1.44,0.54
		c-0.35,0-0.66-0.08-0.95-0.25c-0.29-0.17-0.51-0.41-0.68-0.73V30.75z M34.4,28.8c0.47,0,0.86-0.15,1.16-0.44
		c0.3-0.29,0.46-0.7,0.46-1.24c0-0.53-0.15-0.94-0.46-1.23c-0.3-0.29-0.69-0.43-1.16-0.43c-0.46,0-0.84,0.16-1.14,0.47
		s-0.46,0.71-0.46,1.2c0,0.48,0.15,0.88,0.46,1.19S33.95,28.8,34.4,28.8z"/>
	<path class="st3" d="M37.46,23.5h0.38v2.38c0.29-0.52,0.77-0.78,1.42-0.79c0.54,0,0.95,0.16,1.23,0.47s0.42,0.74,0.42,1.27v2.26
		h-0.38v-2.26c0-0.43-0.11-0.76-0.31-1c-0.21-0.24-0.53-0.36-0.96-0.36c-0.41,0-0.75,0.14-1.01,0.42s-0.4,0.63-0.4,1.04v2.17h-0.39
		V23.5z"/>
	<path class="st3" d="M42.03,24.09c-0.07-0.06-0.1-0.13-0.1-0.23s0.03-0.17,0.1-0.23s0.14-0.08,0.22-0.08s0.15,0.03,0.22,0.08
		c0.07,0.06,0.1,0.13,0.1,0.23s-0.03,0.17-0.1,0.23c-0.07,0.06-0.14,0.08-0.22,0.08S42.09,24.14,42.03,24.09z M42.43,25.13h-0.39
		v3.97h0.39V25.13z"/>
	<path class="st3" d="M46.62,28.28l0.26,0.26c-0.39,0.39-0.87,0.59-1.44,0.59c-0.58,0-1.06-0.18-1.45-0.55
		c-0.39-0.37-0.58-0.86-0.58-1.46c0-0.61,0.19-1.1,0.58-1.47c0.38-0.37,0.87-0.55,1.46-0.55c0.55,0,1.04,0.2,1.44,0.59l-0.26,0.25
		c-0.31-0.31-0.71-0.47-1.18-0.47c-0.47,0-0.86,0.15-1.18,0.44c-0.31,0.29-0.47,0.7-0.47,1.21s0.16,0.91,0.47,1.21
		c0.31,0.29,0.71,0.44,1.18,0.44C45.91,28.77,46.3,28.61,46.62,28.28z"/>
	<path class="st3" d="M52.01,23.5c0.46,0,0.87,0.08,1.23,0.23c0.37,0.15,0.66,0.36,0.89,0.62c0.23,0.26,0.4,0.55,0.52,0.87
		c0.12,0.32,0.19,0.66,0.2,1.01c0.01,0.36-0.04,0.71-0.16,1.05c-0.12,0.34-0.29,0.64-0.51,0.92s-0.53,0.49-0.9,0.66
		c-0.37,0.16-0.8,0.24-1.27,0.24h-1.9v-5.6H52.01z M52.01,23.91h-1.46v4.78h1.46c0.78,0,1.38-0.24,1.79-0.73
		c0.42-0.49,0.62-1.06,0.61-1.72c-0.01-0.64-0.23-1.19-0.64-1.64C53.35,24.14,52.76,23.91,52.01,23.91z"/>
	<path class="st3" d="M57.8,29.16c-0.57,0-1.05-0.19-1.43-0.56c-0.38-0.37-0.58-0.86-0.58-1.48c0-0.59,0.2-1.07,0.58-1.46
		c0.39-0.39,0.87-0.58,1.42-0.58c0.61,0,1.1,0.19,1.48,0.57s0.54,0.93,0.47,1.66h-3.56c0.04,0.45,0.21,0.8,0.52,1.07
		c0.31,0.26,0.67,0.4,1.09,0.4c0.27,0,0.54-0.05,0.81-0.16c0.27-0.11,0.47-0.25,0.62-0.44l0.28,0.22c-0.19,0.25-0.44,0.43-0.74,0.56
		S58.13,29.16,57.8,29.16z M56.19,26.96h3.21c-0.01-0.48-0.15-0.85-0.44-1.12c-0.29-0.27-0.67-0.4-1.16-0.4
		c-0.42,0-0.78,0.14-1.09,0.41C56.41,26.12,56.23,26.49,56.19,26.96z"/>
	<path class="st3" d="M63.81,25.61l-0.24,0.26c-0.32-0.28-0.73-0.42-1.23-0.42c-0.34-0.01-0.62,0.05-0.85,0.18
		c-0.23,0.13-0.35,0.31-0.34,0.55c0,0.09,0.02,0.16,0.05,0.23s0.09,0.13,0.16,0.18c0.07,0.05,0.14,0.09,0.2,0.12
		c0.06,0.03,0.15,0.06,0.27,0.09c0.12,0.03,0.21,0.05,0.25,0.06c0.04,0.01,0.13,0.03,0.27,0.05c0.54,0.09,0.91,0.19,1.1,0.29
		c0.37,0.18,0.54,0.47,0.53,0.87c0,0.27-0.1,0.49-0.28,0.67c-0.18,0.17-0.38,0.29-0.61,0.35s-0.47,0.09-0.73,0.09
		c-0.36,0-0.7-0.07-1.01-0.2s-0.55-0.33-0.72-0.59l0.29-0.26c0.15,0.22,0.36,0.39,0.63,0.5s0.54,0.17,0.82,0.17
		c0.19,0,0.37-0.02,0.54-0.05c0.16-0.03,0.32-0.11,0.47-0.23c0.15-0.12,0.22-0.28,0.23-0.47c0.01-0.11-0.02-0.21-0.07-0.29
		s-0.11-0.15-0.18-0.2c-0.07-0.05-0.17-0.1-0.3-0.14c-0.13-0.04-0.25-0.07-0.34-0.09c-0.09-0.02-0.22-0.04-0.39-0.07
		c-0.2-0.03-0.35-0.06-0.46-0.08c-0.11-0.02-0.25-0.06-0.4-0.12c-0.15-0.05-0.27-0.11-0.36-0.18c-0.08-0.07-0.16-0.16-0.22-0.28
		c-0.06-0.11-0.1-0.25-0.1-0.4c-0.01-0.36,0.14-0.64,0.45-0.83c0.31-0.19,0.68-0.28,1.12-0.28C62.95,25.08,63.44,25.26,63.81,25.61z
		"/>
	<path class="st3" d="M64.94,24.09c-0.07-0.06-0.1-0.13-0.1-0.23s0.03-0.17,0.1-0.23s0.14-0.08,0.21-0.08
		c0.08,0,0.15,0.03,0.22,0.08s0.1,0.13,0.1,0.23s-0.03,0.17-0.1,0.23c-0.07,0.06-0.14,0.08-0.22,0.08
		C65.08,24.17,65.01,24.14,64.94,24.09z M65.34,25.13h-0.39v3.97h0.39V25.13z"/>
	<path class="st3" d="M69.35,25.44l0.38-0.45l0.26,0.22l-0.38,0.45c0.33,0.35,0.49,0.8,0.49,1.34c0,0.35-0.1,0.68-0.29,1
		c-0.19,0.31-0.45,0.54-0.77,0.68c0.72,0.26,1.08,0.73,1.08,1.42c0,0.51-0.18,0.9-0.53,1.17c-0.35,0.27-0.8,0.4-1.35,0.4
		c-0.54,0-0.99-0.14-1.34-0.42c-0.36-0.28-0.53-0.67-0.53-1.15h0.39c0,0.38,0.14,0.68,0.42,0.88s0.63,0.31,1.06,0.31
		c0.43,0,0.79-0.1,1.07-0.3c0.28-0.2,0.43-0.5,0.43-0.89c0-0.39-0.15-0.69-0.44-0.89s-0.64-0.3-1.05-0.3
		c-0.56,0-1.01-0.18-1.35-0.55C66.54,28,66.37,27.55,66.37,27c0-0.6,0.18-1.07,0.53-1.41c0.35-0.34,0.79-0.52,1.33-0.52
		C68.64,25.08,69.02,25.2,69.35,25.44z M69.29,25.88c-0.28-0.27-0.63-0.41-1.06-0.41c-0.43,0-0.78,0.13-1.05,0.4
		c-0.28,0.26-0.41,0.64-0.41,1.14c0,0.42,0.13,0.78,0.4,1.08s0.62,0.44,1.06,0.44c0.4,0,0.75-0.15,1.04-0.45
		c0.29-0.3,0.44-0.66,0.44-1.07C69.71,26.52,69.57,26.15,69.29,25.88z"/>
	<path class="st3" d="M71,25.15h0.38v0.7c0.28-0.51,0.75-0.77,1.41-0.78c0.53,0,0.96,0.16,1.29,0.47c0.33,0.31,0.49,0.74,0.49,1.28
		v2.28h-0.39v-2.27c0-0.44-0.13-0.78-0.38-1.02c-0.25-0.24-0.59-0.35-1.03-0.35c-0.41,0.01-0.74,0.14-1,0.42
		c-0.26,0.27-0.39,0.61-0.39,1.02v2.2H71V25.15z"/>
	<path class="st3" d="M77.48,29.16c-0.57,0-1.05-0.19-1.43-0.56c-0.38-0.37-0.58-0.86-0.58-1.48c0-0.59,0.2-1.07,0.58-1.46
		c0.39-0.39,0.87-0.58,1.42-0.58c0.61,0,1.1,0.19,1.48,0.57s0.54,0.93,0.47,1.66h-3.56c0.04,0.45,0.21,0.8,0.52,1.07
		c0.31,0.26,0.67,0.4,1.09,0.4c0.27,0,0.54-0.05,0.81-0.16c0.27-0.11,0.47-0.25,0.62-0.44l0.28,0.22c-0.19,0.25-0.44,0.43-0.74,0.56
		S77.81,29.16,77.48,29.16z M75.87,26.96h3.21c-0.01-0.48-0.15-0.85-0.44-1.12c-0.29-0.27-0.67-0.4-1.16-0.4
		c-0.42,0-0.78,0.14-1.09,0.41C76.09,26.12,75.91,26.49,75.87,26.96z"/>
	<path class="st3" d="M80.54,25.15h0.37l0.02,0.7c0.12-0.25,0.29-0.44,0.54-0.56c0.24-0.12,0.5-0.18,0.78-0.18
		c0.3-0.01,0.58,0.07,0.85,0.23l-0.18,0.32c-0.2-0.12-0.42-0.18-0.67-0.18c-0.37,0.01-0.68,0.14-0.93,0.39
		c-0.25,0.26-0.38,0.57-0.38,0.93v2.3h-0.39V25.15z"/>
</g>
<rect x="18.01" y="33.92" class="st2" width="34" height="1.5"/>
<path class="st2" d="M5.15,29.1H-8.78V10.48H5.15c2.59,0,4.7,2.1,4.7,4.7v9.23C9.84,27,7.74,29.1,5.15,29.1z"/>
<text transform="matrix(0.9968 0 0 1 18.007 19.7899)" class="st2 st6 st7">Zannatul Prottasha</text>
</svg>
