<?xml version="1.0" encoding="utf-8"?>
<!-- Generator: Adobe Illustrator 24.3.0, SVG Export Plug-In . SVG Version: 6.00 Build 0)  -->
<svg version="1.1" id="Layer_1" xmlns="http://www.w3.org/2000/svg" xmlns:xlink="http://www.w3.org/1999/xlink" x="0px" y="0px"
	 viewBox="0 0 252 144" style="enable-background:new 0 0 252 144;" xml:space="preserve">
<style type="text/css">
	.st0{fill:none;}
	.st1{fill:#EA4329;}
	.st2{fill:#FFFFFF;}
	.st3{fill:#16263F;}
	.st4{opacity:0.04;fill:url(#New_Pattern);}
	.st5{fill:#30445F;}
	.st6{fill:#E74225;}
	.st7{fill:#636464;}
	.st8{font-family:'Montserrat-Regular';}
	.st9{font-size:7px;}
	.st10{font-family:'Montserrat-SemiBold';}
	.st11{font-size:5.1208px;}
	.st12{font-family:'Montserrat-Bold';}
	.st13{font-size:7.592px;}
	.st14{font-family:'Montserrat-Black';}
	.st15{font-size:10.1654px;}
	.st16{font-family:'Montserrat-Medium';}
	.st17{font-size:4.3899px;}
</style>
<pattern  x="-277.2" width="18" height="24.74" patternUnits="userSpaceOnUse" id="New_Pattern" viewBox="0 -26.76 18 24.74" style="overflow:visible;">
	<g>
		<rect y="-26.76" class="st0" width="18" height="24.74"/>
		<g>
			<rect x="0.33" y="-8.2" class="st1" width="4.17" height="4.17"/>
			<rect x="4.5" y="-4.17" class="st1" width="4.17" height="4.17"/>
		</g>
		<g>
			<rect x="9.33" y="-8.2" class="st1" width="4.17" height="4.17"/>
			<rect x="13.5" y="-4.17" class="st1" width="4.17" height="4.17"/>
		</g>
		<g>
			<rect x="0" y="-16.54" class="st1" width="4.17" height="4.17"/>
		</g>
		<g>
			<rect x="4.83" y="-20.57" class="st1" width="4.17" height="4.17"/>
			<rect x="9" y="-16.54" class="st1" width="4.17" height="4.17"/>
			<rect x="4.83" y="-12.37" class="st1" width="4.17" height="4.17"/>
		</g>
		<g>
			<rect x="13.83" y="-20.57" class="st1" width="4.17" height="4.17"/>
			<rect x="13.83" y="-12.37" class="st1" width="4.17" height="4.17"/>
		</g>
		<g>
			<rect x="4.5" y="-28.91" class="st1" width="4.17" height="4.17"/>
			<rect x="0.33" y="-24.74" class="st1" width="4.17" height="4.17"/>
		</g>
		<g>
			<rect x="13.5" y="-28.91" class="st1" width="4.17" height="4.17"/>
			<rect x="9.33" y="-24.74" class="st1" width="4.17" height="4.17"/>
		</g>
	</g>
</pattern>
<rect x="-9" y="-9" class="st2" width="270" height="162"/>
<rect x="-286.2" y="-9" class="st2" width="270" height="162"/>
<rect x="-286.2" y="-9" class="st3" width="270" height="162"/>
<rect x="-286.2" y="-9" class="st4" width="270" height="162"/>
<rect x="-229.2" y="37.71" class="st5" width="156" height="59.59"/>
<rect x="-229.2" y="37.71" class="st4" width="156" height="59.59"/>
<text transform="matrix(0.9968 0 0 1 -191.4874 61.9238)"><tspan x="0" y="0" class="st2 st14" style="font-size:12.8046px;">YOUR </tspan><tspan x="33.64" y="0" class="st2 st8" style="font-size:12.8046px;">LOGO</tspan></text>
<text transform="matrix(0.9968 0 0 1 -182.2034 71.5366)" class="st2 st16" style="font-size:5.1522px;">CREATIVE COLD MEDIA</text>
<g>
	<text transform="matrix(1.1468 0 0 1 -186.8665 123.791)" class="st2 st8" style="font-size:4.9921px;">www.yourcompant .com</text>
</g>
<g>
	<rect x="-34.13" y="59.71" class="st6" width="17.86" height="26.46"/>
	<rect x="-286.13" y="57.83" class="st6" width="17.86" height="26.46"/>
</g>
<g>
	<text transform="matrix(0.9685 0 0 1 110.4658 123.8325)" class="st7 st8 st9">www.compant .com</text>
</g>
<g>
	<text transform="matrix(0.9685 0 0 1 110.4654 132.6395)" class="st7 st8 st9">+0123 456 789 324</text>
</g>
<g>
	<g>
		<text transform="matrix(0.9968 0 0 1 42.9837 129.4178)" class="st6 st10 st11">Creative Director</text>
	</g>
	<g>
		<text transform="matrix(0.9968 0 0 1 10.925 120.1738)" class="st6 st12 st13">Zannatul Prottasha</text>
	</g>
</g>
<text transform="matrix(0.9685 0 0 1 110.4658 115.0254)" class="st7 st8 st9">Badda, Dhaka - 1212 </text>
<g>
	<rect x="-229.2" y="82.92" class="st1" width="5.25" height="5.25"/>
	<rect x="-223.95" y="88" class="st1" width="5.25" height="5.25"/>
	<rect x="-229.2" y="93.25" class="st1" width="5.25" height="5.25"/>
</g>
<g>
	
		<rect x="-78.45" y="38.72" transform="matrix(-1 -4.504187e-11 4.504187e-11 -1 -151.65 82.6942)" class="st1" width="5.25" height="5.25"/>
	
		<rect x="-83.7" y="43.81" transform="matrix(-1 -4.469548e-11 4.469548e-11 -1 -162.15 92.8608)" class="st1" width="5.25" height="5.25"/>
	
		<rect x="-78.45" y="49.06" transform="matrix(-1 -4.504187e-11 4.504187e-11 -1 -151.65 103.3608)" class="st1" width="5.25" height="5.25"/>
</g>
<rect x="-9" y="-9" class="st3" width="270" height="113"/>
<rect x="-9" y="-9" class="st4" width="270" height="113"/>
<rect x="64.08" y="30.97" class="st5" width="123.85" height="47.31"/>
<rect x="64.08" y="30.97" class="st4" width="123.85" height="47.31"/>
<text transform="matrix(0.9968 0 0 1 94.0166 50.1977)"><tspan x="0" y="0" class="st2 st14 st15">YOUR </tspan><tspan x="26.7" y="0" class="st2 st8 st15">LOGO</tspan></text>
<text transform="matrix(0.9968 0 0 1 99.5832 57.9175)" class="st2 st16 st17">CREATIVE COLD MEDIA</text>
<g>
	<rect x="243.07" y="59.71" class="st6" width="17.86" height="26.46"/>
	<rect x="-8.93" y="57.83" class="st6" width="17.86" height="26.46"/>
</g>
<g>
	<rect x="64.08" y="66.87" class="st1" width="4.17" height="4.17"/>
	<rect x="68.24" y="70.9" class="st1" width="4.17" height="4.17"/>
	<rect x="64.08" y="75.07" class="st1" width="4.17" height="4.17"/>
</g>
<g>
	
		<rect x="183.76" y="31.78" transform="matrix(-1 -4.517021e-11 4.517021e-11 -1 371.6783 67.7244)" class="st1" width="4.17" height="4.17"/>
	
		<rect x="179.59" y="35.81" transform="matrix(-1 -4.473412e-11 4.473412e-11 -1 363.3425 75.7956)" class="st1" width="4.17" height="4.17"/>
	
		<rect x="183.76" y="39.98" transform="matrix(-1 -4.495216e-11 4.495216e-11 -1 371.6783 84.1314)" class="st1" width="4.17" height="4.17"/>
</g>
<rect x="97.38" y="109.13" class="st6" width="1.05" height="25.5"/>
</svg>
