<?xml version="1.0" encoding="utf-8"?>
<!-- Generator: Adobe Illustrator 24.3.0, SVG Export Plug-In . SVG Version: 6.00 Build 0)  -->
<svg version="1.1" id="Layer_1" xmlns="http://www.w3.org/2000/svg" xmlns:xlink="http://www.w3.org/1999/xlink" x="0px" y="0px"
	 viewBox="0 0 252 144" style="enable-background:new 0 0 252 144;" xml:space="preserve">
<style type="text/css">
	.st0{fill:#08080A;}
	.st1{fill:#E2CF1F;}
	.st2{fill:#FFFFFF;}
	.st3{font-family:'Roboto-Regular';}
	.st4{font-size:7.7472px;}
	.st5{font-family:'Montserrat-Bold';}
	.st6{font-size:9.5321px;}
	.st7{fill:none;}
	.st8{font-family:'MyriadPro-Regular';}
	.st9{font-size:12px;}
</style>
<rect x="-285.6" y="-9.07" class="st0" width="270" height="162"/>
<rect x="-9.33" y="-8.73" class="st0" width="270" height="162"/>
<path class="st1" d="M242.67-8.73v63.44c0,28.24-22.9,51.13-51.14,51.13c-28.23,0-51.13-22.89-51.13-51.13V-8.73H242.67z"/>
<rect x="-285.6" y="112.5" class="st1" width="270" height="40.43"/>
<polygon class="st0" points="-121.14,120.04 -285.6,120.04 -285.6,123.96 -121.14,123.96 -15.6,123.96 -15.6,120.04 "/>
<polygon class="st0" points="-121.14,116.42 -285.6,116.42 -285.6,117.48 -121.14,117.48 -15.6,117.48 -15.6,116.42 "/>
<g>
	<polygon class="st1" points="-171.26,75.56 -171.26,111.33 -171.26,115.33 -171.26,116.29 -171.26,117.83 -171.26,121.54 
		-171.26,125.67 -121.14,125.67 -121.14,121.54 -121.14,117.83 -121.14,116.29 -121.14,115.33 -121.14,111.33 -121.14,75.56 	"/>
	<rect x="-169.54" y="77.28" class="st0" width="46.68" height="46.68"/>
	<g>
		<path class="st2" d="M-156.81,89.89h-7.54v-7.54h7.54V89.89z M-154.3,79.84h-12.56V92.4h12.56V79.84z"/>
		<rect x="-161.84" y="84.86" class="st1" width="2.51" height="2.51"/>
		<path class="st2" d="M-129.17,89.89h-7.54v-7.54h7.54V89.89z M-139.22,92.4h12.56V79.84h-12.56V92.4z"/>
		<rect x="-134.19" y="84.86" class="st1" width="2.51" height="2.51"/>
		<path class="st2" d="M-164.35,109.99h7.54v7.54h-7.54V109.99z M-166.86,120.04h12.56v-12.56h-12.56V120.04z"/>
		<rect x="-161.84" y="112.5" class="st1" width="2.51" height="2.51"/>
		<rect x="-146.76" y="79.84" class="st2" width="5.03" height="2.51"/>
		<polygon class="st2" points="-146.76,89.89 -144.25,89.89 -144.25,87.37 -141.73,87.37 -141.73,84.86 -149.27,84.86 
			-149.27,82.35 -151.78,82.35 -151.78,84.86 -151.78,86.12 -151.78,87.37 -146.76,87.37 		"/>
		<rect x="-151.78" y="89.89" class="st2" width="2.51" height="2.51"/>
		<polygon class="st2" points="-141.73,92.4 -144.25,92.4 -144.25,94.91 -151.78,94.91 -151.78,97.43 -141.73,97.43 		"/>
		<polygon class="st2" points="-164.35,102.45 -161.84,102.45 -161.84,99.94 -164.35,99.94 -164.35,94.91 -166.86,94.91 
			-166.86,104.96 -164.35,104.96 		"/>
		<rect x="-161.84" y="94.91" class="st2" width="2.51" height="2.51"/>
		<polygon class="st2" points="-151.78,104.96 -146.76,104.96 -146.76,102.45 -149.27,102.45 -149.27,99.94 -154.3,99.94 
			-154.3,94.91 -156.81,94.91 -156.81,99.94 -159.32,99.94 -159.32,104.96 -156.81,104.96 -156.81,102.45 -155.55,102.45 
			-154.3,102.45 -151.78,102.45 		"/>
		<rect x="-144.25" y="99.94" class="st2" width="2.51" height="5.03"/>
		<polygon class="st2" points="-144.25,107.48 -151.78,107.48 -151.78,109.99 -146.76,109.99 -146.76,117.53 -151.78,117.53 
			-151.78,120.04 -144.25,120.04 -144.25,117.53 -139.22,117.53 -139.22,115.02 -144.25,115.02 		"/>
		<rect x="-151.78" y="112.5" class="st2" width="2.51" height="2.51"/>
		<rect x="-141.73" y="107.48" class="st2" width="2.51" height="5.03"/>
		<polygon class="st2" points="-129.17,112.5 -136.71,112.5 -136.71,120.04 -134.19,120.04 -134.19,115.02 -129.17,115.02 		"/>
		<rect x="-131.68" y="117.53" class="st2" width="5.03" height="2.51"/>
		<rect x="-129.17" y="107.48" class="st2" width="2.51" height="2.51"/>
		<polygon class="st2" points="-136.71,109.99 -134.19,109.99 -134.19,102.45 -139.22,102.45 -139.22,104.96 -136.71,104.96 		"/>
		<polygon class="st2" points="-131.68,97.43 -134.19,97.43 -134.19,94.91 -136.71,94.91 -136.71,97.43 -139.22,97.43 
			-139.22,99.94 -129.17,99.94 -129.17,97.43 -126.66,97.43 -126.66,94.91 -131.68,94.91 		"/>
		<rect x="-131.68" y="102.45" class="st2" width="5.03" height="2.51"/>
	</g>
	<rect x="-168.62" y="74.34" class="st1" width="44.85" height="0.39"/>
</g>
<g>
	<g>
		<g>
			<polygon class="st1" points="-182.16,40.31 -182.46,39.97 -184.76,41.38 -183.29,43.03 			"/>
		</g>
		<g>
			<polygon class="st1" points="-188.17,42.96 -187.88,43.29 -185.58,41.88 -187.04,40.24 			"/>
		</g>
		<g>
			<path class="st1" d="M-194.77,46.77V36.49c0-0.25,0.13-0.48,0.35-0.61l8.91-5.14c0.22-0.12,0.48-0.12,0.7,0l8.08,4.67l0.47,0.27
				l0.36,0.21c0.02,0.01,0.04,0.02,0.06,0.04l2-1.23l-10.96-6.33c-0.22-0.12-0.48-0.12-0.7,0l-10.96,6.33
				c-0.22,0.12-0.35,0.36-0.35,0.61v12.66c0,0.25,0.13,0.48,0.35,0.61l2-1.23C-194.66,47.21-194.77,47-194.77,46.77z"/>
		</g>
		<g>
			<path class="st1" d="M-173.85,34.69l-2,1.23c0.18,0.13,0.29,0.34,0.29,0.57v10.28c0,0.25-0.13,0.48-0.35,0.61l-8.91,5.14
				c-0.22,0.12-0.48,0.12-0.7,0l-8.08-4.67l-0.47-0.27l-0.36-0.21c-0.02-0.01-0.04-0.03-0.06-0.04l-2,1.23l10.96,6.33
				c0.22,0.12,0.48,0.12,0.7,0l10.96-6.33c0.22-0.12,0.35-0.36,0.35-0.61V35.3C-173.5,35.05-173.64,34.82-173.85,34.69z"/>
		</g>
		<g>
			<polygon class="st1" points="-182.97,44.82 -180.33,38.66 -182.46,39.97 -182.16,40.31 -183.29,43.03 -184.76,41.38 
				-185.58,41.88 			"/>
		</g>
		<g>
			<path class="st1" d="M-178.97,35.5l-5.85-3.38c-0.22-0.12-0.48-0.12-0.7,0l-7.71,4.45c-0.22,0.12-0.35,0.36-0.35,0.61v8.9
				c0,0.09,0.02,0.18,0.05,0.26l4.76-10.94h2.34l3.96,4.56l2.13-1.31L-178.97,35.5z"/>
		</g>
		<g>
			<polygon class="st1" points="-188.17,42.96 -187.04,40.24 -185.58,41.88 -184.76,41.38 -187.37,38.44 -190.01,44.6 
				-187.88,43.29 			"/>
		</g>
		<g>
			<path class="st1" d="M-185.52,51.14c0.22,0.12,0.48,0.12,0.7,0l7.71-4.45c0.22-0.12,0.35-0.36,0.35-0.61v-8.9
				c0-0.09-0.02-0.18-0.05-0.26l-4.76,10.94h-2.34l-3.96-4.56l-2.13,1.31l-1.35,3.16L-185.52,51.14z"/>
		</g>
	</g>
	<g>
		<g>
			<g>
				<path class="st2" d="M-162.97,32.97v2.38c0,1.24,0.04,2.34,0.16,3.42h-0.04c-0.36-0.92-0.85-1.94-1.33-2.8l-1.7-3h-2.16v8.18
					h1.7v-2.46c0-1.34-0.03-2.49-0.07-3.57l0.03-0.01c0.4,0.96,0.94,2.01,1.42,2.89l1.75,3.15h1.94v-8.18H-162.97z"/>
				<path class="st2" d="M-158.21,32.63c-0.59,0-0.98,0.41-0.97,0.94c-0.01,0.51,0.38,0.92,0.96,0.92c0.61,0,0.99-0.41,0.99-0.92
					C-157.24,33.04-157.61,32.63-158.21,32.63z M-159.13,35.22v5.93h1.84v-5.93H-159.13z"/>
				<path class="st2" d="M-152.71,37.52c-0.73-0.25-0.96-0.4-0.96-0.68c0-0.3,0.25-0.48,0.7-0.48c0.51,0,1.02,0.19,1.29,0.34
					l0.33-1.27c-0.37-0.19-0.99-0.34-1.68-0.34c-1.46,0-2.41,0.83-2.41,1.95c-0.01,0.69,0.46,1.36,1.69,1.77
					c0.69,0.23,0.87,0.38,0.87,0.68s-0.23,0.5-0.79,0.5c-0.55,0-1.25-0.25-1.59-0.45l-0.33,1.32c0.45,0.24,1.14,0.43,1.92,0.43
					c1.7,0,2.57-0.83,2.57-1.93C-151.11,38.48-151.58,37.91-152.71,37.52z"/>
				<path class="st2" d="M-145.87,35.09c-0.34,0-0.68,0.08-0.95,0.23c-0.3,0.14-0.54,0.35-0.73,0.6h-0.03v-3.38h-1.84v8.61h1.84
					v-3.52c0-0.13,0.02-0.29,0.06-0.41c0.14-0.33,0.44-0.64,0.93-0.64c0.69,0,0.95,0.53,0.95,1.31v3.26h1.85v-3.47
					C-143.79,35.9-144.69,35.09-145.87,35.09z"/>
				<path class="st2" d="M-136.8,39.71v-2.06c0-1.4-0.63-2.56-2.61-2.56c-1.08,0-1.89,0.29-2.3,0.52l0.34,1.19
					c0.38-0.25,1.03-0.45,1.63-0.45c0.91,0,1.08,0.45,1.08,0.76v0.09c-2.09-0.02-3.48,0.72-3.48,2.27c0,0.94,0.72,1.82,1.92,1.82
					c0.7,0,1.31-0.26,1.7-0.73h0.03l0.11,0.59h1.67C-136.78,40.82-136.8,40.28-136.8,39.71z M-138.6,38.99
					c0,0.11-0.01,0.22-0.03,0.32c-0.12,0.37-0.5,0.68-0.96,0.68c-0.41,0-0.73-0.23-0.73-0.71c0-0.71,0.75-0.94,1.72-0.93V38.99z"/>
				<path class="st2" d="M-129.03,39.38v-6.84h-1.85v3.21h-0.02c-0.27-0.41-0.84-0.66-1.57-0.66c-1.42,0-2.66,1.15-2.65,3.15
					c0,1.84,1.13,3.05,2.53,3.05c0.77,0,1.48-0.34,1.86-1.01h0.02l0.09,0.87h1.64C-129.01,40.75-129.03,40.05-129.03,39.38z
					 M-130.88,38.51c0,0.16-0.01,0.29-0.04,0.42c-0.11,0.52-0.54,0.89-1.07,0.89c-0.77,0-1.26-0.63-1.26-1.64
					c0-0.93,0.43-1.69,1.27-1.69c0.57,0,0.97,0.42,1.08,0.91c0.01,0.1,0.02,0.23,0.02,0.33V38.51z"/>
				<path class="st2" d="M-123.14,36.47v1.44h1.26v1.71c-0.15,0.08-0.49,0.12-0.91,0.12c-1.52,0-2.57-0.99-2.57-2.68
					c0-1.77,1.16-2.64,2.7-2.64c0.9,0,1.46,0.16,1.91,0.35l0.38-1.48c-0.4-0.19-1.21-0.4-2.26-0.4c-2.69,0-4.66,1.55-4.68,4.27
					c-0.01,1.2,0.4,2.27,1.16,2.97c0.75,0.73,1.83,1.11,3.32,1.11c1.08,0,2.16-0.27,2.73-0.46v-4.31H-123.14z"/>
				<path class="st2" d="M-112.25,33.79c-0.78-0.6-1.79-0.88-3.34-0.88c-0.94,0-1.82,0.06-2.5,0.17v8.04
					c0.46,0.06,1.14,0.12,2.1,0.12c1.6,0,2.91-0.34,3.77-1.06c0.79-0.67,1.36-1.75,1.36-3.31
					C-110.86,35.43-111.4,34.42-112.25,33.79z M-115.59,39.79c-0.24,0-0.49,0-0.65-0.03v-5.35c0.16-0.04,0.43-0.08,0.84-0.08
					c1.59,0,2.58,0.9,2.57,2.6C-112.83,38.88-113.92,39.81-115.59,39.79z"/>
				<path class="st2" d="M-105.47,36.97l2.3-4h-2.11l-0.69,1.5c-0.21,0.47-0.36,0.83-0.56,1.36h-0.02c-0.2-0.47-0.38-0.87-0.62-1.36
					l-0.72-1.5h-2.12l2.28,4.04l-2.36,4.14h2.11l0.68-1.48c0.25-0.57,0.46-0.99,0.63-1.47h0.02c0.23,0.48,0.43,0.9,0.73,1.47
					l0.74,1.48h2.13L-105.47,36.97z"/>
			</g>
		</g>
		<g>
			<path class="st2" d="M-164.44,45.83c-0.47-0.45-1.24-0.7-2.27-0.7c-0.53,0-1.02,0.04-1.44,0.1v5.11c0.4,0.04,0.81,0.04,1.24,0.04
				c1.09,0,1.94-0.29,2.44-0.79c0.51-0.51,0.74-1.2,0.74-1.96C-163.73,46.84-163.99,46.26-164.44,45.83z M-166.85,50.08
				c-0.35,0-0.68-0.01-0.91-0.04v-4.53c0.24-0.04,0.58-0.08,1.02-0.08c1.81,0,2.6,0.9,2.6,2.22
				C-164.14,49.15-165.04,50.08-166.85,50.08z"/>
			<path class="st2" d="M-158.9,48.24c0-0.53-0.25-1.67-1.57-1.67c-1.03,0-1.8,0.77-1.8,2c0,1.08,0.72,1.86,1.87,1.86
				c0.7,0,1.11-0.16,1.27-0.24l-0.1-0.29c-0.23,0.1-0.53,0.21-1.12,0.21c-0.83,0-1.53-0.46-1.53-1.65h2.96
				C-158.9,48.4-158.9,48.34-158.9,48.24z M-161.86,48.17c0.07-0.57,0.46-1.3,1.34-1.3c0.98,0,1.21,0.79,1.2,1.3H-161.86z"/>
			<path class="st2" d="M-156.09,48.28c-0.54-0.21-0.83-0.38-0.83-0.76c0-0.34,0.27-0.64,0.78-0.64c0.4,0,0.66,0.13,0.79,0.22
				l0.16-0.3c-0.21-0.13-0.52-0.23-0.88-0.23c-0.79,0-1.24,0.47-1.24,1c0,0.45,0.36,0.78,1.02,1.01c0.58,0.21,0.84,0.43,0.84,0.84
				c0,0.38-0.3,0.7-0.93,0.7c-0.36,0-0.69-0.14-0.91-0.26l-0.14,0.31c0.27,0.15,0.63,0.26,1.02,0.26c0.82,0,1.36-0.43,1.36-1.06
				C-155.05,48.81-155.44,48.51-156.09,48.28z"/>
			<path class="st2" d="M-153.04,45.28c-0.18,0-0.32,0.15-0.32,0.32c0,0.17,0.12,0.32,0.31,0.32c0.2,0,0.33-0.15,0.33-0.32
				C-152.72,45.43-152.85,45.28-153.04,45.28z M-153.24,46.66v3.69h0.39v-3.69H-153.24z"/>
			<path class="st2" d="M-147.87,46.66l-0.01,0.62h-0.02c-0.17-0.31-0.56-0.71-1.36-0.71c-0.88,0-1.8,0.68-1.8,1.96
				c0,1.01,0.71,1.82,1.72,1.82c0.72,0,1.19-0.34,1.4-0.72h0.02v0.52c0,1.09-0.62,1.5-1.46,1.5c-0.52,0-0.91-0.14-1.19-0.31
				l-0.14,0.3c0.3,0.2,0.81,0.31,1.27,0.31c0.45,0,1-0.11,1.36-0.44c0.34-0.29,0.55-0.76,0.55-1.7v-2.2c0-0.38,0.02-0.68,0.03-0.95
				H-147.87z M-147.92,48.82c0,0.13-0.03,0.27-0.08,0.39c-0.2,0.53-0.7,0.83-1.24,0.83c-0.94,0-1.42-0.72-1.42-1.55
				c0-0.97,0.58-1.62,1.44-1.62c0.65,0,1.08,0.4,1.24,0.85c0.04,0.11,0.06,0.22,0.06,0.35V48.82z"/>
			<path class="st2" d="M-143.72,46.57c-0.66,0-1.16,0.34-1.38,0.76h-0.02l-0.03-0.67h-0.37c0.02,0.29,0.04,0.54,0.04,0.88v2.81
				h0.39v-2.29c0-0.11,0.02-0.23,0.06-0.33c0.16-0.47,0.63-0.84,1.2-0.84c0.83,0,1.12,0.6,1.12,1.27v2.19h0.39v-2.22
				C-142.32,46.75-143.33,46.57-143.72,46.57z"/>
			<path class="st2" d="M-136.26,47.49c-0.81-0.29-1.17-0.58-1.17-1.16c0-0.4,0.31-0.94,1.23-0.94c0.48,0,0.84,0.14,0.99,0.24
				l0.15-0.3c-0.19-0.12-0.59-0.25-1.12-0.25c-0.95,0-1.64,0.55-1.64,1.32c0,0.7,0.54,1.13,1.46,1.43c0.81,0.29,1.13,0.63,1.13,1.21
				c0,0.64-0.51,1.08-1.35,1.08c-0.48,0-0.92-0.15-1.24-0.35l-0.15,0.31c0.29,0.2,0.86,0.35,1.35,0.35c1.2,0,1.79-0.68,1.79-1.43
				C-134.83,48.22-135.33,47.84-136.26,47.49z"/>
			<path class="st2" d="M-131.39,46.57c-1,0-1.91,0.69-1.91,1.96c0,1.15,0.81,1.9,1.85,1.9c0.89,0,1.92-0.58,1.92-1.97
				C-129.53,47.33-130.28,46.57-131.39,46.57z M-131.43,50.12c-0.82,0-1.46-0.69-1.46-1.61c0-0.79,0.47-1.64,1.49-1.64
				c1.05,0,1.47,0.94,1.47,1.62C-129.93,49.43-130.59,50.12-131.43,50.12z"/>
			<path class="st2" d="M-127.75,44.89v5.46h0.39v-5.46H-127.75z"/>
			<path class="st2" d="M-122.12,49.45v-2.79h-0.4v2.29c0,0.15-0.04,0.3-0.08,0.41c-0.17,0.37-0.6,0.75-1.18,0.75
				c-0.8,0-1.07-0.58-1.07-1.38v-2.07h-0.4v2.14c0,1.4,0.86,1.63,1.37,1.63c0.72,0,1.18-0.4,1.38-0.74h0.01l0.03,0.66h0.37
				C-122.11,50.06-122.12,49.77-122.12,49.45z"/>
			<path class="st2" d="M-118.31,46.95v-0.29h-1.15v-0.82l-0.4,0.14v0.68h-0.68v0.29h0.68v2.34c0,0.37,0.07,0.68,0.25,0.87
				c0.15,0.18,0.39,0.27,0.69,0.27c0.24,0,0.42-0.04,0.56-0.09l-0.05-0.29c-0.1,0.03-0.25,0.07-0.46,0.07
				c-0.43,0-0.59-0.3-0.59-0.77v-2.4H-118.31z"/>
			<path class="st2" d="M-116.46,45.28c-0.19,0-0.33,0.15-0.33,0.32c0,0.17,0.13,0.32,0.31,0.32c0.21,0,0.34-0.15,0.34-0.32
				C-116.14,45.43-116.27,45.28-116.46,45.28z M-116.66,46.66v3.69h0.39v-3.69H-116.66z"/>
			<path class="st2" d="M-112.59,46.57c-1,0-1.9,0.69-1.9,1.96c0,1.15,0.8,1.9,1.84,1.9c0.9,0,1.93-0.58,1.93-1.97
				C-110.72,47.33-111.48,46.57-112.59,46.57z M-112.62,50.12c-0.82,0-1.47-0.69-1.47-1.61c0-0.79,0.47-1.64,1.49-1.64
				c1.06,0,1.48,0.94,1.48,1.62C-111.12,49.43-111.79,50.12-112.62,50.12z"/>
			<path class="st2" d="M-107.18,46.57c-0.66,0-1.16,0.34-1.38,0.76h-0.01l-0.04-0.67h-0.37c0.02,0.29,0.04,0.54,0.04,0.88v2.81
				h0.39v-2.29c0-0.11,0.03-0.23,0.06-0.33c0.16-0.47,0.64-0.84,1.2-0.84c0.83,0,1.12,0.6,1.12,1.27v2.19h0.39v-2.22
				C-105.78,46.75-106.79,46.57-107.18,46.57z"/>
		</g>
	</g>
</g>
<g>
	<g>
		<g>
			<polygon class="st0" points="194.3,48.68 194.03,48.37 191.91,49.67 193.26,51.19 			"/>
		</g>
		<g>
			<polygon class="st0" points="188.76,51.12 189.03,51.43 191.15,50.13 189.8,48.62 			"/>
		</g>
		<g>
			<path class="st0" d="M182.68,54.64v-9.48c0-0.23,0.12-0.44,0.32-0.56l8.21-4.74c0.2-0.12,0.45-0.12,0.64,0l7.45,4.3l0.43,0.25
				l0.33,0.19c0.02,0.01,0.04,0.02,0.05,0.04l1.84-1.13l-10.11-5.84c-0.2-0.12-0.45-0.12-0.64,0l-10.11,5.84
				c-0.2,0.12-0.32,0.33-0.32,0.56v11.67c0,0.23,0.12,0.44,0.32,0.56l1.84-1.13C182.78,55.05,182.68,54.85,182.68,54.64z"/>
		</g>
		<g>
			<path class="st0" d="M201.96,43.51l-1.84,1.13c0.17,0.12,0.27,0.31,0.27,0.52v9.48c0,0.23-0.12,0.44-0.32,0.56l-8.21,4.74
				c-0.2,0.12-0.45,0.12-0.64,0l-7.45-4.3l-0.43-0.25L183,55.2c-0.02-0.01-0.04-0.02-0.05-0.04l-1.84,1.13l10.11,5.84
				c0.2,0.12,0.45,0.12,0.64,0l10.11-5.84c0.2-0.12,0.32-0.33,0.32-0.56V44.07C202.29,43.84,202.16,43.62,201.96,43.51z"/>
		</g>
		<g>
			<polygon class="st0" points="193.56,52.84 195.99,47.17 194.03,48.37 194.3,48.68 193.26,51.19 191.91,49.67 191.15,50.13 			"/>
		</g>
		<g>
			<path class="st0" d="M197.24,44.25l-5.39-3.11c-0.2-0.12-0.45-0.12-0.64,0l-7.1,4.1c-0.2,0.12-0.32,0.33-0.32,0.56V54
				c0,0.08,0.02,0.17,0.05,0.24l4.39-10.08h2.16l3.65,4.21l1.96-1.2L197.24,44.25z"/>
		</g>
		<g>
			<polygon class="st0" points="188.76,51.12 189.8,48.62 191.15,50.13 191.91,49.67 189.5,46.96 187.07,52.64 189.03,51.43 			"/>
		</g>
		<g>
			<path class="st0" d="M191.21,58.66c0.2,0.12,0.45,0.12,0.64,0l7.1-4.1c0.2-0.12,0.32-0.33,0.32-0.56v-8.2
				c0-0.08-0.02-0.17-0.05-0.24l-4.39,10.08h-2.16l-3.65-4.21l-1.96,1.2l-1.25,2.91L191.21,58.66z"/>
		</g>
	</g>
	<g>
		<g>
			<g>
				<path class="st0" d="M166.3,69.02v2.19c0,1.14,0.04,2.16,0.15,3.15h-0.04c-0.33-0.85-0.78-1.79-1.23-2.58l-1.57-2.77h-1.99v7.54
					h1.57v-2.27c0-1.24-0.03-2.3-0.06-3.29l0.03-0.01c0.37,0.88,0.87,1.85,1.31,2.66l1.61,2.9h1.79v-7.54H166.3z"/>
				<path class="st0" d="M170.69,68.71c-0.54,0-0.9,0.38-0.89,0.87c-0.01,0.47,0.35,0.85,0.88,0.85c0.56,0,0.91-0.38,0.91-0.85
					C171.58,69.09,171.24,68.71,170.69,68.71z M169.84,71.1v5.47h1.7V71.1H169.84z"/>
				<path class="st0" d="M175.76,73.22c-0.67-0.23-0.88-0.37-0.88-0.63c0-0.28,0.23-0.44,0.65-0.44c0.47,0,0.94,0.18,1.19,0.31
					l0.3-1.17c-0.34-0.18-0.91-0.31-1.55-0.31c-1.35,0-2.22,0.77-2.22,1.8c-0.01,0.64,0.42,1.25,1.56,1.63
					c0.64,0.21,0.8,0.35,0.8,0.63s-0.21,0.46-0.73,0.46c-0.51,0-1.15-0.23-1.47-0.41l-0.3,1.22c0.41,0.22,1.05,0.4,1.77,0.4
					c1.57,0,2.37-0.77,2.37-1.78C177.23,74.1,176.8,73.57,175.76,73.22z"/>
				<path class="st0" d="M182.06,70.98c-0.31,0-0.63,0.07-0.88,0.21c-0.28,0.13-0.5,0.32-0.67,0.55h-0.03v-3.12h-1.7v7.94h1.7v-3.24
					c0-0.12,0.02-0.27,0.06-0.38c0.13-0.3,0.41-0.59,0.86-0.59c0.64,0,0.88,0.49,0.88,1.21v3.01h1.71v-3.2
					C183.98,71.72,183.15,70.98,182.06,70.98z"/>
				<path class="st0" d="M190.43,75.23v-1.9c0-1.29-0.58-2.36-2.41-2.36c-1,0-1.74,0.27-2.12,0.48l0.31,1.1
					c0.35-0.23,0.95-0.41,1.5-0.41c0.84,0,1,0.41,1,0.7v0.08c-1.93-0.02-3.21,0.66-3.21,2.09c0,0.87,0.66,1.68,1.77,1.68
					c0.65,0,1.21-0.24,1.57-0.67h0.03l0.1,0.54h1.54C190.44,76.26,190.43,75.76,190.43,75.23z M188.77,74.57
					c0,0.1-0.01,0.2-0.03,0.29c-0.11,0.34-0.46,0.63-0.88,0.63c-0.38,0-0.67-0.21-0.67-0.65c0-0.65,0.69-0.87,1.59-0.86V74.57z"/>
				<path class="st0" d="M197.59,74.93v-6.31h-1.71v2.96h-0.02c-0.25-0.38-0.77-0.61-1.45-0.61c-1.31,0-2.45,1.06-2.44,2.9
					c0,1.7,1.04,2.81,2.33,2.81c0.71,0,1.36-0.31,1.71-0.93h0.02l0.08,0.8h1.51C197.61,76.19,197.59,75.55,197.59,74.93z
					 M195.88,74.13c0,0.15-0.01,0.27-0.04,0.39c-0.1,0.48-0.5,0.82-0.99,0.82c-0.71,0-1.16-0.58-1.16-1.51
					c0-0.86,0.4-1.56,1.17-1.56c0.53,0,0.89,0.39,1,0.84c0.01,0.09,0.02,0.21,0.02,0.3V74.13z"/>
				<path class="st0" d="M203.02,72.25v1.33h1.16v1.58c-0.14,0.07-0.45,0.11-0.84,0.11c-1.4,0-2.37-0.91-2.37-2.47
					c0-1.63,1.07-2.43,2.49-2.43c0.83,0,1.35,0.15,1.76,0.32l0.35-1.36c-0.37-0.18-1.12-0.37-2.08-0.37c-2.48,0-4.3,1.43-4.31,3.94
					c-0.01,1.11,0.37,2.09,1.07,2.74c0.69,0.67,1.69,1.02,3.06,1.02c1,0,1.99-0.25,2.52-0.42v-3.97H203.02z"/>
				<path class="st0" d="M213.06,69.78c-0.72-0.55-1.65-0.81-3.08-0.81c-0.87,0-1.68,0.06-2.3,0.16v7.41
					c0.42,0.06,1.05,0.11,1.94,0.11c1.47,0,2.68-0.31,3.48-0.98c0.73-0.62,1.25-1.61,1.25-3.05
					C214.34,71.29,213.84,70.36,213.06,69.78z M209.98,75.31c-0.22,0-0.45,0-0.6-0.03v-4.93c0.15-0.04,0.4-0.07,0.77-0.07
					c1.47,0,2.38,0.83,2.37,2.4C212.52,74.47,211.52,75.33,209.98,75.31z"/>
				<path class="st0" d="M219.31,72.71l2.12-3.69h-1.95l-0.64,1.38c-0.19,0.43-0.33,0.77-0.52,1.25h-0.02
					c-0.18-0.43-0.35-0.8-0.57-1.25l-0.66-1.38h-1.95l2.1,3.72l-2.18,3.82h1.95l0.63-1.36c0.23-0.53,0.42-0.91,0.58-1.36h0.02
					c0.21,0.44,0.4,0.83,0.67,1.36l0.68,1.36h1.96L219.31,72.71z"/>
			</g>
		</g>
		<g>
			<path class="st0" d="M164.95,80.88c-0.43-0.41-1.14-0.65-2.09-0.65c-0.49,0-0.94,0.04-1.33,0.09v4.71
				c0.37,0.04,0.75,0.04,1.14,0.04c1,0,1.79-0.27,2.25-0.73c0.47-0.47,0.68-1.11,0.68-1.81C165.6,81.81,165.36,81.27,164.95,80.88z
				 M162.72,84.79c-0.32,0-0.63-0.01-0.84-0.04v-4.18c0.22-0.04,0.53-0.07,0.94-0.07c1.67,0,2.4,0.83,2.4,2.05
				C165.22,83.94,164.39,84.79,162.72,84.79z"/>
			<path class="st0" d="M170.05,83.1c0-0.49-0.23-1.54-1.45-1.54c-0.95,0-1.66,0.71-1.66,1.84c0,1,0.66,1.71,1.72,1.71
				c0.65,0,1.02-0.15,1.17-0.22l-0.09-0.27c-0.21,0.09-0.49,0.19-1.03,0.19c-0.77,0-1.41-0.42-1.41-1.52h2.73
				C170.05,83.25,170.05,83.19,170.05,83.1z M167.32,83.03c0.06-0.53,0.42-1.2,1.24-1.2c0.9,0,1.12,0.73,1.11,1.2H167.32z"/>
			<path class="st0" d="M172.64,83.13c-0.5-0.19-0.77-0.35-0.77-0.7c0-0.31,0.25-0.59,0.72-0.59c0.37,0,0.61,0.12,0.73,0.2
				l0.15-0.28c-0.19-0.12-0.48-0.21-0.81-0.21c-0.73,0-1.14,0.43-1.14,0.92c0,0.41,0.33,0.72,0.94,0.93
				c0.53,0.19,0.77,0.4,0.77,0.77c0,0.35-0.28,0.65-0.86,0.65c-0.33,0-0.64-0.13-0.84-0.24l-0.13,0.29
				c0.25,0.14,0.58,0.24,0.94,0.24c0.76,0,1.25-0.4,1.25-0.98C173.6,83.62,173.24,83.35,172.64,83.13z"/>
			<path class="st0" d="M175.45,80.37c-0.17,0-0.29,0.14-0.29,0.29c0,0.16,0.11,0.29,0.29,0.29c0.18,0,0.3-0.14,0.3-0.29
				C175.75,80.51,175.63,80.37,175.45,80.37z M175.27,81.64v3.4h0.36v-3.4H175.27z"/>
			<path class="st0" d="M180.22,81.64l-0.01,0.57h-0.02c-0.16-0.29-0.52-0.65-1.25-0.65c-0.81,0-1.66,0.63-1.66,1.81
				c0,0.93,0.65,1.68,1.59,1.68c0.66,0,1.1-0.31,1.29-0.66h0.02v0.48c0,1-0.57,1.38-1.35,1.38c-0.48,0-0.84-0.13-1.1-0.29
				l-0.13,0.28c0.28,0.18,0.75,0.29,1.17,0.29c0.41,0,0.92-0.1,1.25-0.41c0.31-0.27,0.51-0.7,0.51-1.57v-2.03
				c0-0.35,0.02-0.63,0.03-0.88H180.22z M180.17,83.63c0,0.12-0.03,0.25-0.07,0.36c-0.18,0.49-0.65,0.77-1.14,0.77
				c-0.87,0-1.31-0.66-1.31-1.43c0-0.89,0.53-1.49,1.33-1.49c0.6,0,1,0.37,1.14,0.78c0.04,0.1,0.06,0.2,0.06,0.32V83.63z"/>
			<path class="st0" d="M184.05,81.56c-0.61,0-1.07,0.31-1.27,0.7h-0.02l-0.03-0.62h-0.34c0.02,0.27,0.04,0.5,0.04,0.81v2.59h0.36
				v-2.11c0-0.1,0.02-0.21,0.06-0.3c0.15-0.43,0.58-0.77,1.11-0.77c0.77,0,1.03,0.55,1.03,1.17v2.02h0.36V83
				C185.34,81.72,184.41,81.56,184.05,81.56z"/>
			<path class="st0" d="M190.92,82.41c-0.75-0.27-1.08-0.53-1.08-1.07c0-0.37,0.29-0.87,1.13-0.87c0.44,0,0.77,0.13,0.91,0.22
				l0.14-0.28c-0.18-0.11-0.54-0.23-1.03-0.23c-0.88,0-1.51,0.51-1.51,1.22c0,0.65,0.5,1.04,1.35,1.32
				c0.75,0.27,1.04,0.58,1.04,1.12c0,0.59-0.47,1-1.24,1c-0.44,0-0.85-0.14-1.14-0.32l-0.14,0.29c0.27,0.18,0.79,0.32,1.24,0.32
				c1.11,0,1.65-0.63,1.65-1.32C192.24,83.08,191.78,82.73,190.92,82.41z"/>
			<path class="st0" d="M195.41,81.56c-0.92,0-1.76,0.64-1.76,1.81c0,1.06,0.75,1.75,1.71,1.75c0.82,0,1.77-0.53,1.77-1.82
				C197.13,82.26,196.44,81.56,195.41,81.56z M195.38,84.83c-0.76,0-1.35-0.64-1.35-1.48c0-0.73,0.43-1.51,1.37-1.51
				c0.97,0,1.36,0.87,1.36,1.49C196.76,84.19,196.15,84.83,195.38,84.83z"/>
			<path class="st0" d="M198.77,80.01v5.03h0.36v-5.03H198.77z"/>
			<path class="st0" d="M203.96,84.21v-2.57h-0.37v2.11c0,0.14-0.04,0.28-0.07,0.38c-0.16,0.34-0.55,0.69-1.09,0.69
				c-0.74,0-0.99-0.53-0.99-1.27v-1.91h-0.37v1.97c0,1.29,0.79,1.5,1.26,1.5c0.66,0,1.09-0.37,1.27-0.68h0.01l0.03,0.61h0.34
				C203.97,84.78,203.96,84.51,203.96,84.21z"/>
			<path class="st0" d="M207.47,81.91v-0.27h-1.06v-0.76l-0.37,0.13v0.63h-0.63v0.27h0.63v2.16c0,0.34,0.06,0.63,0.23,0.8
				c0.14,0.17,0.36,0.25,0.64,0.25c0.22,0,0.39-0.04,0.52-0.08l-0.05-0.27c-0.09,0.03-0.23,0.06-0.42,0.06
				c-0.4,0-0.54-0.28-0.54-0.71v-2.21H207.47z"/>
			<path class="st0" d="M209.18,80.37c-0.18,0-0.3,0.14-0.3,0.29c0,0.16,0.12,0.29,0.29,0.29c0.19,0,0.31-0.14,0.31-0.29
				C209.47,80.51,209.35,80.37,209.18,80.37z M208.99,81.64v3.4h0.36v-3.4H208.99z"/>
			<path class="st0" d="M212.74,81.56c-0.92,0-1.75,0.64-1.75,1.81c0,1.06,0.74,1.75,1.7,1.75c0.83,0,1.78-0.53,1.78-1.82
				C214.47,82.26,213.77,81.56,212.74,81.56z M212.72,84.83c-0.76,0-1.36-0.64-1.36-1.48c0-0.73,0.43-1.51,1.37-1.51
				c0.98,0,1.36,0.87,1.36,1.49C214.1,84.19,213.48,84.83,212.72,84.83z"/>
			<path class="st0" d="M217.73,81.56c-0.61,0-1.07,0.31-1.27,0.7h-0.01l-0.04-0.62h-0.34c0.02,0.27,0.04,0.5,0.04,0.81v2.59h0.36
				v-2.11c0-0.1,0.03-0.21,0.06-0.3c0.15-0.43,0.59-0.77,1.11-0.77c0.77,0,1.03,0.55,1.03,1.17v2.02h0.36V83
				C219.02,81.72,218.09,81.56,217.73,81.56z"/>
		</g>
	</g>
</g>
<g>
	<path class="st1" d="M24.28,106.1c1.33-1.37,2.22-3.17,2.42-5.19c0.03-0.3,0.05-0.6,0.05-0.9c0-2.94-1.45-5.53-3.66-7.12
		c-1.44-1.04-3.2-1.65-5.11-1.65H-9.33v17.55h27.31c1.91,0,3.67-0.62,5.11-1.65C23.52,106.82,23.92,106.48,24.28,106.1z"/>
	<path class="st0" d="M22.69,100.04c0,1.57-0.82,2.59-1.99,2.59c-0.64,0-1.09-0.26-1.21-0.84l-0.02-0.21
		c-0.43,0.62-1.07,0.93-1.79,0.93c-1.27,0-2.41-0.98-2.41-2.44c0-1.37,0.91-2.49,2.29-2.49c0.92,0,1.54,0.56,1.65,0.78v-0.68h1.13
		v3.64c0,0.4,0.2,0.56,0.48,0.56c0.51,0,0.98-0.74,0.98-1.81c0-2.07-1.45-3.67-3.76-3.67c-2.17,0-3.89,1.63-3.89,3.69
		c0,2.03,1.63,3.51,3.75,3.51c0.61,0,1.43-0.2,2.01-0.61l0.43,0.76c-0.62,0.44-1.65,0.72-2.44,0.72c-2.65,0-4.65-1.87-4.65-4.38
		c0-2.56,2.09-4.53,4.78-4.53C20.71,95.56,22.69,97.44,22.69,100.04 M16.49,100.02c0,0.8,0.52,1.47,1.31,1.47
		c0.82,0,1.33-0.65,1.33-1.46c0-0.78-0.53-1.41-1.35-1.41C17.01,98.62,16.49,99.24,16.49,100.02"/>
</g>
<path class="st1" d="M23.61,77.03c-0.92,3.12-3.6,1.85-5.63,0.31c-0.82-0.62-1.53-1.29-1.97-1.73c-1.54-1.55-5.8-6.31-1.42-7.6
	c0,0,2.32,1.29,2.32,2.32c0,1.03-0.64,1.41-0.64,1.41s-0.13,1.68,0.9,2.71c0.24,0.24,0.52,0.42,0.81,0.55
	c0.92,0.43,1.9,0.35,1.9,0.35s0.38-0.64,1.41-0.64C22.32,74.71,23.61,77.03,23.61,77.03z"/>
<g>
	<path class="st1" d="M24.18,67.19c-1.59-1.59-3.78-2.57-6.2-2.57H-9.33v17.55h27.31c2.42,0,4.61-0.98,6.2-2.57
		c1.59-1.58,2.57-3.77,2.57-6.2S25.77,68.78,24.18,67.19z M17.98,77.34c-0.82-0.62-1.53-1.29-1.97-1.73
		c-1.54-1.55-5.8-6.31-1.42-7.6c0,0,2.32,1.29,2.32,2.32c0,1.03-0.64,1.41-0.64,1.41s-0.13,1.68,0.9,2.71
		c0.24,0.24,0.52,0.42,0.81,0.55c0.92,0.43,1.9,0.35,1.9,0.35s0.38-0.64,1.41-0.64c1.03,0,2.32,2.32,2.32,2.32
		C22.69,80.15,20.01,78.88,17.98,77.34z"/>
	<path class="st0" d="M23.61,77.03c-0.92,3.12-3.6,1.85-5.63,0.31c-0.82-0.62-1.53-1.29-1.97-1.73c-1.54-1.55-5.8-6.31-1.42-7.6
		c0,0,2.32,1.29,2.32,2.32c0,1.03-0.64,1.41-0.64,1.41s-0.13,1.68,0.9,2.71c0.24,0.24,0.52,0.42,0.81,0.55
		c0.92,0.43,1.9,0.35,1.9,0.35s0.38-0.64,1.41-0.64C22.32,74.71,23.61,77.03,23.61,77.03z"/>
</g>
<g>
	<path class="st1" d="M17.97,117.73c-0.01,0-0.01,0-0.02,0c-0.01,0-0.01,0-0.02,0H-9.37v17.55h27.31c0.01,0,0.01,0,0.02,0
		c0.01,0,0.01,0,0.02,0c4.85,0,8.77-3.93,8.77-8.77v0C26.75,121.66,22.82,117.73,17.97,117.73z"/>
	<path class="st0" d="M21.4,121.98c-1.89-1.89-4.96-1.89-6.86,0c-1.89,1.89-1.89,4.96,0,6.86l3.43,3.43l3.43-3.43
		C23.29,126.94,23.29,123.88,21.4,121.98 M19.46,126.9c-0.82,0.82-2.15,0.82-2.97,0c-0.82-0.82-0.82-2.15,0-2.97
		c0.82-0.82,2.15-0.82,2.97,0C20.28,124.75,20.28,126.08,19.46,126.9"/>
</g>
<g>
	<text transform="matrix(1 0 0 1 37.496 70.6157)" class="st2 st3 st4">+00 123 456 7890</text>
	<text transform="matrix(1 0 0 1 37.827 80.7058)" class="st2 st3 st4">+00 123 456 7890</text>
</g>
<g>
	<text transform="matrix(1 0 0 1 37.4959 97.2295)" class="st2 st3 st4">yourname@mail.com</text>
	<text transform="matrix(1 0 0 1 37.827 107.3196)" class="st2 st3 st4">yourname@mail.com</text>
</g>
<g>
	<text transform="matrix(1 0 0 1 37.4964 123.7261)"><tspan x="0" y="0" class="st2 st3 st4">Badda, Dhaka - 1212,</tspan><tspan x="0" y="9.3" class="st2 st3 st4">Bangladesh</tspan></text>
</g>
<g>
	<path class="st2" d="M13.6,23.05l-0.25,0.27c-0.24-0.23-0.52-0.41-0.84-0.54c-0.32-0.12-0.64-0.18-0.96-0.18
		c-0.78,0-1.39,0.24-1.82,0.73c-0.44,0.49-0.65,1.07-0.65,1.77c0,0.7,0.22,1.28,0.65,1.75c0.43,0.47,1.04,0.7,1.82,0.7
		c0.67,0,1.23-0.22,1.7-0.65v-1.57h-1.95v-0.38h2.36v2.1c-0.6,0.6-1.31,0.9-2.11,0.9c-0.61,0-1.14-0.13-1.59-0.4
		c-0.45-0.27-0.77-0.61-0.98-1.04s-0.32-0.9-0.32-1.42c-0.01-0.87,0.26-1.57,0.8-2.1c0.54-0.53,1.23-0.8,2.09-0.8
		C12.35,22.21,13.04,22.49,13.6,23.05z"/>
	<path class="st2" d="M14.86,23.94h0.37l0.02,0.7c0.12-0.25,0.3-0.44,0.54-0.56c0.24-0.12,0.5-0.18,0.78-0.18
		c0.3-0.01,0.58,0.07,0.85,0.23l-0.18,0.32c-0.2-0.12-0.42-0.18-0.67-0.18c-0.37,0.01-0.68,0.14-0.93,0.39
		c-0.25,0.26-0.38,0.57-0.38,0.93v2.3h-0.39V23.94z"/>
	<path class="st2" d="M21.5,23.94h0.39v3.95H21.5v-0.84c-0.37,0.6-0.91,0.9-1.62,0.9c-0.56,0-1.04-0.19-1.43-0.58
		c-0.39-0.38-0.58-0.87-0.58-1.46s0.19-1.08,0.58-1.46s0.86-0.57,1.43-0.57c0.34,0,0.65,0.08,0.94,0.23
		c0.29,0.15,0.52,0.38,0.68,0.68V23.94z M19.88,24.27c-0.46,0-0.84,0.15-1.15,0.46c-0.31,0.31-0.46,0.7-0.46,1.19
		c0,0.49,0.15,0.88,0.46,1.19c0.31,0.31,0.69,0.46,1.15,0.46c0.3,0,0.57-0.06,0.81-0.18c0.23-0.12,0.41-0.28,0.54-0.47
		c0.12-0.19,0.21-0.41,0.27-0.64s0.06-0.47,0-0.71s-0.15-0.45-0.27-0.64c-0.12-0.19-0.3-0.35-0.54-0.47S20.19,24.27,19.88,24.27z"/>
	<path class="st2" d="M23.43,29.54h-0.38v-5.6h0.38v0.94c0.16-0.3,0.39-0.55,0.69-0.72c0.3-0.18,0.64-0.27,1.02-0.27
		c0.56,0.02,1.02,0.21,1.38,0.57c0.36,0.36,0.54,0.85,0.54,1.46c0,0.64-0.19,1.14-0.57,1.5s-0.86,0.54-1.44,0.54
		c-0.35,0-0.66-0.08-0.95-0.25c-0.29-0.17-0.51-0.41-0.68-0.73V29.54z M25.06,27.59c0.47,0,0.86-0.15,1.16-0.44
		c0.3-0.29,0.46-0.7,0.46-1.24c0-0.53-0.15-0.94-0.46-1.23c-0.3-0.29-0.69-0.43-1.16-0.43c-0.46,0-0.84,0.16-1.14,0.47
		s-0.46,0.71-0.46,1.2c0,0.48,0.15,0.88,0.46,1.19S24.6,27.59,25.06,27.59z"/>
	<path class="st2" d="M28.12,22.29h0.38v2.38c0.29-0.52,0.77-0.78,1.42-0.79c0.54,0,0.95,0.16,1.23,0.47s0.42,0.74,0.42,1.27v2.26
		h-0.38v-2.26c0-0.43-0.11-0.76-0.31-1c-0.21-0.24-0.53-0.36-0.96-0.36c-0.41,0-0.75,0.14-1.01,0.42s-0.4,0.63-0.4,1.04v2.17h-0.39
		V22.29z"/>
	<path class="st2" d="M32.69,22.88c-0.07-0.06-0.1-0.13-0.1-0.23s0.03-0.17,0.1-0.23s0.14-0.08,0.22-0.08s0.15,0.03,0.22,0.08
		c0.07,0.06,0.1,0.13,0.1,0.23s-0.03,0.17-0.1,0.23c-0.07,0.06-0.14,0.08-0.22,0.08S32.75,22.93,32.69,22.88z M33.09,23.92H32.7
		v3.97h0.39V23.92z"/>
	<path class="st2" d="M37.28,27.07l0.26,0.26c-0.39,0.39-0.87,0.59-1.44,0.59c-0.58,0-1.06-0.18-1.45-0.55
		c-0.39-0.37-0.58-0.86-0.58-1.46c0-0.61,0.19-1.1,0.58-1.47c0.38-0.37,0.87-0.55,1.46-0.55c0.55,0,1.04,0.2,1.44,0.59l-0.26,0.25
		c-0.31-0.31-0.71-0.47-1.18-0.47c-0.47,0-0.86,0.15-1.18,0.44c-0.31,0.29-0.47,0.7-0.47,1.21s0.16,0.91,0.47,1.21
		c0.31,0.29,0.71,0.44,1.18,0.44C36.57,27.56,36.96,27.4,37.28,27.07z"/>
	<path class="st2" d="M42.67,22.29c0.46,0,0.87,0.08,1.23,0.23c0.37,0.15,0.66,0.36,0.89,0.62c0.23,0.26,0.4,0.55,0.52,0.87
		c0.12,0.32,0.19,0.66,0.2,1.01c0.01,0.36-0.04,0.71-0.16,1.05c-0.12,0.34-0.29,0.64-0.51,0.92s-0.53,0.49-0.9,0.66
		c-0.37,0.16-0.8,0.24-1.27,0.24h-1.9v-5.6H42.67z M42.67,22.7H41.2v4.78h1.46c0.78,0,1.38-0.24,1.79-0.73
		c0.42-0.49,0.62-1.06,0.61-1.72c-0.01-0.64-0.23-1.19-0.64-1.64C44.01,22.93,43.42,22.7,42.67,22.7z"/>
	<path class="st2" d="M48.46,27.95c-0.57,0-1.05-0.19-1.43-0.56c-0.38-0.37-0.58-0.86-0.58-1.48c0-0.59,0.2-1.07,0.58-1.46
		c0.39-0.39,0.87-0.58,1.42-0.58c0.61,0,1.1,0.19,1.48,0.57s0.54,0.93,0.47,1.66h-3.56c0.04,0.45,0.21,0.8,0.52,1.07
		c0.31,0.26,0.67,0.4,1.09,0.4c0.27,0,0.54-0.05,0.81-0.16c0.27-0.11,0.47-0.25,0.62-0.44l0.28,0.22c-0.19,0.25-0.44,0.43-0.74,0.56
		S48.79,27.95,48.46,27.95z M46.85,25.75h3.21c-0.01-0.48-0.15-0.85-0.44-1.12c-0.29-0.27-0.67-0.4-1.16-0.4
		c-0.42,0-0.78,0.14-1.09,0.41C47.07,24.91,46.89,25.29,46.85,25.75z"/>
	<path class="st2" d="M54.47,24.4l-0.24,0.26c-0.32-0.28-0.73-0.42-1.23-0.42c-0.34-0.01-0.62,0.05-0.85,0.18
		c-0.23,0.13-0.35,0.31-0.34,0.55c0,0.09,0.02,0.16,0.05,0.23s0.09,0.13,0.16,0.18c0.07,0.05,0.14,0.09,0.2,0.12
		c0.06,0.03,0.15,0.06,0.27,0.09c0.12,0.03,0.21,0.05,0.25,0.06c0.04,0.01,0.13,0.03,0.27,0.05c0.54,0.09,0.91,0.19,1.1,0.29
		c0.37,0.18,0.54,0.47,0.53,0.87c0,0.27-0.1,0.49-0.28,0.67c-0.18,0.17-0.38,0.29-0.61,0.35s-0.47,0.09-0.73,0.09
		c-0.36,0-0.7-0.07-1.01-0.2s-0.55-0.33-0.72-0.59l0.29-0.26c0.15,0.22,0.36,0.39,0.63,0.5s0.54,0.17,0.82,0.17
		c0.19,0,0.37-0.02,0.54-0.05c0.16-0.03,0.32-0.11,0.47-0.23c0.15-0.12,0.22-0.28,0.23-0.47c0.01-0.11-0.02-0.21-0.07-0.29
		s-0.11-0.15-0.18-0.2c-0.07-0.05-0.17-0.1-0.3-0.14c-0.13-0.04-0.25-0.07-0.34-0.09c-0.09-0.02-0.22-0.04-0.39-0.07
		c-0.2-0.03-0.35-0.06-0.46-0.08c-0.11-0.02-0.25-0.06-0.4-0.12c-0.15-0.05-0.27-0.11-0.36-0.18c-0.08-0.07-0.16-0.16-0.22-0.28
		c-0.06-0.11-0.1-0.25-0.1-0.4c-0.01-0.36,0.14-0.64,0.45-0.83c0.31-0.19,0.68-0.28,1.12-0.28C53.61,23.87,54.1,24.05,54.47,24.4z"
		/>
	<path class="st2" d="M55.6,22.88c-0.07-0.06-0.1-0.13-0.1-0.23s0.03-0.17,0.1-0.23s0.14-0.08,0.21-0.08c0.08,0,0.15,0.03,0.22,0.08
		s0.1,0.13,0.1,0.23s-0.03,0.17-0.1,0.23c-0.07,0.06-0.14,0.08-0.22,0.08C55.74,22.96,55.66,22.93,55.6,22.88z M56,23.92h-0.39v3.97
		H56V23.92z"/>
	<path class="st2" d="M60.01,24.23l0.38-0.45L60.65,24l-0.38,0.45c0.33,0.35,0.49,0.8,0.49,1.34c0,0.35-0.1,0.68-0.29,1
		c-0.19,0.31-0.45,0.54-0.77,0.68c0.72,0.26,1.08,0.73,1.08,1.42c0,0.51-0.18,0.9-0.53,1.17c-0.35,0.27-0.8,0.4-1.35,0.4
		c-0.54,0-0.99-0.14-1.34-0.42c-0.36-0.28-0.53-0.67-0.53-1.15h0.39c0,0.38,0.14,0.68,0.42,0.88s0.63,0.31,1.06,0.31
		c0.43,0,0.79-0.1,1.07-0.3c0.28-0.2,0.43-0.5,0.43-0.89c0-0.39-0.15-0.69-0.44-0.89s-0.64-0.3-1.05-0.3
		c-0.56,0-1.01-0.18-1.35-0.55c-0.34-0.37-0.51-0.82-0.51-1.36c0-0.6,0.18-1.07,0.53-1.41c0.35-0.34,0.79-0.52,1.33-0.52
		C59.3,23.87,59.67,23.99,60.01,24.23z M59.95,24.67c-0.28-0.27-0.63-0.41-1.06-0.41c-0.43,0-0.78,0.13-1.05,0.4
		c-0.28,0.26-0.41,0.64-0.41,1.14c0,0.42,0.13,0.78,0.4,1.08s0.62,0.44,1.06,0.44c0.4,0,0.75-0.15,1.04-0.45
		c0.29-0.3,0.44-0.66,0.44-1.07C60.37,25.31,60.23,24.94,59.95,24.67z"/>
	<path class="st2" d="M61.66,23.94h0.38v0.7c0.28-0.51,0.75-0.77,1.41-0.78c0.53,0,0.96,0.16,1.29,0.47
		c0.33,0.31,0.49,0.74,0.49,1.28v2.28h-0.39v-2.27c0-0.44-0.13-0.78-0.38-1.02c-0.25-0.24-0.59-0.35-1.03-0.35
		c-0.41,0.01-0.74,0.14-1,0.42c-0.26,0.27-0.39,0.61-0.39,1.02v2.2h-0.39V23.94z"/>
	<path class="st2" d="M68.14,27.95c-0.57,0-1.05-0.19-1.43-0.56c-0.38-0.37-0.58-0.86-0.58-1.48c0-0.59,0.2-1.07,0.58-1.46
		c0.39-0.39,0.87-0.58,1.42-0.58c0.61,0,1.1,0.19,1.48,0.57s0.54,0.93,0.47,1.66h-3.56c0.04,0.45,0.21,0.8,0.52,1.07
		c0.31,0.26,0.67,0.4,1.09,0.4c0.27,0,0.54-0.05,0.81-0.16c0.27-0.11,0.47-0.25,0.62-0.44l0.28,0.22c-0.19,0.25-0.44,0.43-0.74,0.56
		S68.47,27.95,68.14,27.95z M66.53,25.75h3.21c-0.01-0.48-0.15-0.85-0.44-1.12c-0.29-0.27-0.67-0.4-1.16-0.4
		c-0.42,0-0.78,0.14-1.09,0.41C66.75,24.91,66.57,25.29,66.53,25.75z"/>
	<path class="st2" d="M71.2,23.94h0.37l0.02,0.7c0.12-0.25,0.29-0.44,0.54-0.56c0.24-0.12,0.5-0.18,0.78-0.18
		c0.3-0.01,0.58,0.07,0.85,0.23l-0.18,0.32c-0.2-0.12-0.42-0.18-0.67-0.18c-0.37,0.01-0.68,0.14-0.93,0.39
		c-0.25,0.26-0.38,0.57-0.38,0.93v2.3H71.2V23.94z"/>
</g>
<rect x="8.67" y="32.71" class="st1" width="34" height="1.5"/>
<g>
	<text transform="matrix(1 0 0 1 175.826 133.8164)" class="st2 st3 st4">www.yoursite.com</text>
</g>
<text transform="matrix(0.9968 0 0 1 7.8498 18.6885)" class="st1 st5 st6">Zannatul Prottasha</text>
<rect x="23.45" y="133.2" class="st7" width="19.49" height="0"/>
<text transform="matrix(1 0 0 1 109.9484 121.0791)" class="st8 st9">Lorem ipsum</text>
</svg>
