<?xml version="1.0" encoding="utf-8"?>
<!-- Generator: Adobe Illustrator 23.0.1, SVG Export Plug-In . SVG Version: 6.00 Build 0)  -->
<svg version="1.1" xmlns="http://www.w3.org/2000/svg" xmlns:xlink="http://www.w3.org/1999/xlink" x="0px" y="0px"
	 viewBox="0 0 946 359.9" style="enable-background:new 0 0 946 359.9;" xml:space="preserve">
<style type="text/css">
	.st0{opacity:0.5374;fill:#F5FCD0;}
	.st1{opacity:0.8645;fill:#00ADA7;}
	.st2{opacity:0.9008;fill:#A0E0A9;}
	.st3{display:none;}
	.st4{display:inline;opacity:0.6899;fill:#A0E0A9;}
	.st5{opacity:0.8776;fill:#A0E0A9;}
	.st6{opacity:0.8305;fill:#F5FCD0;}
	.st7{opacity:0.7054;fill:#F5FCD0;}
	.st8{opacity:0.5168;fill:#00ADA7;}
	.st9{opacity:0.7539;fill:#A0E0A9;}
	.st10{opacity:0.8549;fill:#A0E0A9;}
	.st11{fill:#FEFEFE;}
	.st12{fill:#D1D3D4;}
	.st13{fill:#FFFFFF;}
	.st14{opacity:0.8645;fill:#005754;}
	.st15{fill:#D7B865;}
	.st16{fill:#F2F2F2;}
	.st17{fill:#005754;}
</style>
<g id="backbroung">
	<rect y="0.5" class="st0" width="946.2" height="359.1"/>
</g>
<g id="Layer_7">
	<polygon class="st1" points="315,359.1 648,63.7 576.2,0 270.2,0 270.2,359.1 	"/>
</g>
<g id="Layer_6">
</g>
<g id="Layer_17">
	<polygon class="st2" points="0.5,0 0.5,34.6 39.5,0 	"/>
</g>
<g id="Layer_16">
</g>
<g id="Layer_15" class="st3">
	<polygon class="st4" points="234.9,359.1 0.5,151.1 0.5,359.1 	"/>
</g>
<g id="Layer_14">
	<polygon class="st5" points="0.5,0 0.5,176.3 80.8,247.6 80.8,0 	"/>
</g>
<g id="Layer_13">
	<polygon class="st6" points="560.6,359.1 269.5,100.9 269.5,359.1 	"/>
</g>
<g id="Layer_12">
	<polygon class="st7" points="425.2,359.1 425.2,161.4 202.4,359.1 	"/>
</g>
<g id="Layer_11">
	<polygon class="st8" points="687.7,0 801.1,100.6 801.1,0 	"/>
</g>
<g id="Layer_10">
	<polygon class="st9" points="562.3,359.1 562.3,23.2 355.9,206.2 528.3,359.1 	"/>
</g>
<g id="Layer_9">
	<polygon class="st10" points="48.8,0 315.7,236.7 315.7,0 	"/>
</g>
<g id="Layer_5">
</g>
<g id="Layer_8">
</g>
<g id="Layer_34">
	<g>
		<rect x="51.5" y="152.3" class="st11" width="191.1" height="191"/>
		<path class="st12" d="M243.1,343.7H51.1V151.9h191.9V343.7z M52,342.9h190.3V152.7H52V342.9z"/>
	</g>
</g>
<g id="Layer_18">
	<rect y="293.2" class="st13" width="946" height="66.8"/>
</g>
<g id="Layer_33">
	<rect x="59.8" y="160.5" class="st14" width="174.6" height="174.5"/>
</g>
<g id="Layer_32">
	<path class="st13" d="M120.3,294h-2.1l-7.5-11.5c-0.2-0.3-0.3-0.6-0.5-0.9h-0.1c0.1,0.3,0.1,1,0.1,2V294h-1.7v-14.5h2.2l7.2,11.4
		c0.3,0.5,0.5,0.8,0.6,1h0c-0.1-0.4-0.1-1.1-0.1-2.1v-10.2h1.7V294z"/>
</g>
<g id="Layer_31">
	<path class="st13" d="M141,294h-1.9l-1.5-4.1h-6.1L130,294h-1.9l5.5-14.5h1.8L141,294z M137,288.4l-2.3-6.2c-0.1-0.2-0.1-0.5-0.2-1
		h0c-0.1,0.4-0.1,0.7-0.2,1l-2.2,6.2H137z"/>
</g>
<g id="Layer_30">
	<path class="st13" d="M163.5,294h-1.7v-9.7c0-0.8,0-1.7,0.1-2.8h0c-0.2,0.7-0.3,1.1-0.4,1.4l-4.9,11.1h-0.8l-4.9-11
		c-0.1-0.3-0.3-0.8-0.4-1.5h0c0.1,0.6,0.1,1.5,0.1,2.8v9.7h-1.6v-14.5h2.2l4.4,10.1c0.3,0.8,0.6,1.4,0.7,1.7h0.1
		c0.3-0.8,0.5-1.4,0.7-1.8l4.5-10.1h2.1V294z"/>
</g>
<g id="Layer_29">
	<path class="st13" d="M180.7,294H173v-14.5h7.3v1.5h-5.7v4.8h5.2v1.5h-5.2v5.1h6V294z"/>
</g>
<g id="Layer_27">
	<path class="st15" d="M89.6,270.7c-1.1,0.6-2.4,0.9-4,0.9c-2.1,0-3.7-0.7-4.9-2c-1.2-1.3-1.9-3.1-1.9-5.2c0-2.3,0.7-4.2,2.1-5.6
		c1.4-1.4,3.2-2.1,5.3-2.1c1.4,0,2.5,0.2,3.4,0.6v1.8c-1-0.6-2.2-0.9-3.4-0.9c-1.7,0-3,0.6-4,1.7c-1,1.1-1.6,2.6-1.6,4.5
		c0,1.8,0.5,3.2,1.5,4.2c1,1,2.2,1.6,3.8,1.6c1.5,0,2.7-0.3,3.8-1V270.7z"/>
</g>
<g id="Layer_26">
	<path class="st15" d="M104.1,271.5c-2.1,0-3.7-0.7-4.9-2c-1.2-1.4-1.9-3.1-1.9-5.3c0-2.3,0.6-4.2,1.9-5.6c1.3-1.4,3-2.1,5.1-2.1
		c2,0,3.6,0.7,4.8,2c1.2,1.3,1.8,3.1,1.8,5.3c0,2.4-0.6,4.2-1.9,5.6C107.8,270.8,106.2,271.5,104.1,271.5z M104.2,258.1
		c-1.5,0-2.8,0.5-3.7,1.7c-1,1.1-1.4,2.5-1.4,4.3c0,1.8,0.5,3.2,1.4,4.3c0.9,1.1,2.1,1.6,3.6,1.6c1.6,0,2.8-0.5,3.8-1.6
		c0.9-1,1.4-2.5,1.4-4.3c0-1.9-0.4-3.4-1.3-4.4C107,258.6,105.8,258.1,104.2,258.1z"/>
</g>
<g id="Layer_25">
	<path class="st15" d="M134.2,271.3h-1.7v-9.7c0-0.8,0-1.7,0.1-2.8h0c-0.2,0.7-0.3,1.1-0.4,1.4l-4.9,11.1h-0.8l-4.9-11
		c-0.1-0.3-0.3-0.8-0.4-1.5h0c0,0.6,0.1,1.5,0.1,2.8v9.7h-1.6v-14.5h2.2l4.4,10.1c0.3,0.8,0.6,1.4,0.7,1.7h0.1
		c0.3-0.8,0.5-1.4,0.7-1.8l4.5-10h2.1V271.3z"/>
</g>
<g id="Layer_24">
	<path class="st15" d="M145.4,265.8v5.5h-1.7v-14.5h4c1.5,0,2.8,0.4,3.6,1.1c0.9,0.8,1.3,1.8,1.3,3.2c0,1.4-0.5,2.5-1.4,3.4
		c-1,0.9-2.2,1.3-3.8,1.3H145.4z M145.4,258.3v5.9h1.8c1.2,0,2.1-0.3,2.7-0.8c0.6-0.5,0.9-1.3,0.9-2.3c0-1.9-1.1-2.9-3.4-2.9H145.4z
		"/>
</g>
<g id="Layer_23">
	<path class="st15" d="M172.2,271.3h-1.9l-1.5-4.1h-6.1l-1.4,4.1h-1.9l5.6-14.5h1.8L172.2,271.3z M168.2,265.7l-2.3-6.2
		c-0.1-0.2-0.1-0.5-0.2-1h0c-0.1,0.4-0.1,0.7-0.2,1l-2.2,6.2H168.2z"/>
</g>
<g id="Layer_22">
	<path class="st15" d="M210.5,256.8l-4.8,9.1v5.4H204V266l-4.7-9.2h1.9l3.2,6.5c0,0.1,0.2,0.4,0.4,0.9h0c0.1-0.2,0.2-0.5,0.4-0.9
		l3.4-6.5H210.5z"/>
</g>
<g id="Layer_21">
	<path class="st15" d="M191.6,271.3h-2.1l-7.4-11.5c-0.2-0.3-0.3-0.6-0.5-0.9h-0.1c0.1,0.3,0.1,1,0.1,2v10.5H180v-14.5h2.2l7.2,11.4
		c0.3,0.5,0.5,0.8,0.6,1h0c-0.1-0.4-0.1-1.1-0.1-2.1v-10.2h1.7V271.3z"/>
</g>
<g id="Layer_20">
	<path class="st16" d="M144.7,217.7L130,232.4l14.7,14.7l14.7-14.7L144.7,217.7z M144.5,241.4l-11-11l11-11l11,11L144.5,241.4z"/>
</g>
<g id="Layer_19">
	<path class="st15" d="M144.5,211.7l-11.4,11.4l11.4,11.4l11.4-11.4L144.5,211.7z M136.1,224.6l8.5-8.5l8.6,8.5l-8.6,8.5
		L136.1,224.6z"/>
</g>
<g id="Layer_48">
	<path class="st17" d="M412.8,323.7c0,1.7-0.2,2.9-0.7,3.6c-0.5,0.8-1.2,1.2-2.2,1.2c-1,0-1.8-0.4-2.2-1.2c-0.5-0.8-0.7-2-0.7-3.6
		c0-1.7,0.2-2.9,0.7-3.6c0.5-0.8,1.2-1.2,2.2-1.2c1,0,1.8,0.4,2.2,1.2C412.5,320.9,412.8,322.1,412.8,323.7z M411.2,326.5
		c0.1-0.3,0.2-0.7,0.3-1.2c0-0.5,0.1-1,0.1-1.7c0-0.6,0-1.2-0.1-1.6c-0.1-0.5-0.1-0.9-0.3-1.2c-0.1-0.3-0.3-0.5-0.5-0.7
		c-0.2-0.2-0.5-0.2-0.8-0.2c-0.3,0-0.6,0.1-0.8,0.2c-0.2,0.2-0.4,0.4-0.5,0.7c-0.1,0.3-0.2,0.7-0.3,1.2c0,0.5-0.1,1-0.1,1.6
		c0,0.6,0,1.2,0.1,1.6c0,0.4,0.1,0.8,0.3,1.2c0.1,0.3,0.3,0.6,0.5,0.7c0.2,0.2,0.5,0.3,0.9,0.3c0.3,0,0.6-0.1,0.8-0.2
		C410.9,327.1,411.1,326.9,411.2,326.5z"/>
</g>
<g id="Layer_47">
	<path class="st17" d="M405.9,323.7c0,1.7-0.2,2.9-0.7,3.6c-0.5,0.8-1.2,1.2-2.2,1.2c-1,0-1.8-0.4-2.2-1.2c-0.5-0.8-0.7-2-0.7-3.6
		c0-1.7,0.2-2.9,0.7-3.6c0.5-0.8,1.2-1.2,2.2-1.2c1,0,1.8,0.4,2.2,1.2C405.6,320.9,405.9,322.1,405.9,323.7z M404.3,326.5
		c0.1-0.3,0.2-0.7,0.3-1.2c0-0.5,0.1-1,0.1-1.7c0-0.6,0-1.2-0.1-1.6c-0.1-0.5-0.1-0.9-0.3-1.2c-0.1-0.3-0.3-0.5-0.5-0.7
		c-0.2-0.2-0.5-0.2-0.8-0.2c-0.3,0-0.6,0.1-0.8,0.2c-0.2,0.2-0.4,0.4-0.5,0.7c-0.1,0.3-0.2,0.7-0.3,1.2c0,0.5-0.1,1-0.1,1.6
		c0,0.6,0,1.2,0.1,1.6c0,0.4,0.1,0.8,0.3,1.2c0.1,0.3,0.3,0.6,0.5,0.7c0.2,0.2,0.5,0.3,0.9,0.3c0.3,0,0.6-0.1,0.8-0.2
		C404,327.1,404.2,326.9,404.3,326.5z"/>
</g>
<g id="Layer_46">
	<path class="st17" d="M399,323.7c0,1.7-0.2,2.9-0.7,3.6c-0.5,0.8-1.2,1.2-2.2,1.2c-1,0-1.8-0.4-2.2-1.2c-0.5-0.8-0.7-2-0.7-3.6
		c0-1.7,0.2-2.9,0.7-3.6c0.5-0.8,1.2-1.2,2.2-1.2c1,0,1.8,0.4,2.2,1.2C398.7,320.9,399,322.1,399,323.7z M397.4,326.5
		c0.1-0.3,0.2-0.7,0.3-1.2c0-0.5,0.1-1,0.1-1.7c0-0.6,0-1.2-0.1-1.6c0-0.5-0.1-0.9-0.3-1.2c-0.1-0.3-0.3-0.5-0.5-0.7
		c-0.2-0.2-0.5-0.2-0.8-0.2c-0.3,0-0.6,0.1-0.8,0.2c-0.2,0.2-0.4,0.4-0.5,0.7c-0.1,0.3-0.2,0.7-0.2,1.2c0,0.5-0.1,1-0.1,1.6
		c0,0.6,0,1.2,0.1,1.6c0,0.4,0.1,0.8,0.3,1.2c0.1,0.3,0.3,0.6,0.5,0.7c0.2,0.2,0.5,0.3,0.9,0.3c0.3,0,0.6-0.1,0.8-0.2
		C397.1,327.1,397.3,326.9,397.4,326.5z"/>
</g>
<g id="Layer_45">
	<path class="st17" d="M392,323.7c0,1.7-0.2,2.9-0.7,3.6c-0.5,0.8-1.2,1.2-2.2,1.2c-1,0-1.8-0.4-2.2-1.2c-0.5-0.8-0.7-2-0.7-3.6
		c0-1.7,0.2-2.9,0.7-3.6c0.5-0.8,1.2-1.2,2.2-1.2c1,0,1.8,0.4,2.2,1.2C391.8,320.9,392,322.1,392,323.7z M390.5,326.5
		c0.1-0.3,0.2-0.7,0.3-1.2c0-0.5,0.1-1,0.1-1.7c0-0.6,0-1.2-0.1-1.6c-0.1-0.5-0.1-0.9-0.3-1.2c-0.1-0.3-0.3-0.5-0.5-0.7
		c-0.2-0.2-0.5-0.2-0.8-0.2c-0.3,0-0.6,0.1-0.8,0.2c-0.2,0.2-0.4,0.4-0.5,0.7c-0.1,0.3-0.2,0.7-0.3,1.2c0,0.5-0.1,1-0.1,1.6
		c0,0.6,0,1.2,0.1,1.6c0,0.4,0.1,0.8,0.3,1.2c0.1,0.3,0.3,0.6,0.5,0.7c0.2,0.2,0.5,0.3,0.9,0.3c0.3,0,0.6-0.1,0.8-0.2
		C390.2,327.1,390.3,326.9,390.5,326.5z"/>
</g>
<g id="Layer_44">
	<path class="st17" d="M385.1,323.7c0,1.7-0.2,2.9-0.7,3.6c-0.5,0.8-1.2,1.2-2.2,1.2c-1,0-1.8-0.4-2.2-1.2c-0.5-0.8-0.7-2-0.7-3.6
		c0-1.7,0.2-2.9,0.7-3.6c0.5-0.8,1.2-1.2,2.2-1.2c1,0,1.8,0.4,2.2,1.2C384.9,320.9,385.1,322.1,385.1,323.7z M383.6,326.5
		c0.1-0.3,0.2-0.7,0.3-1.2c0-0.5,0.1-1,0.1-1.7c0-0.6,0-1.2-0.1-1.6c0-0.5-0.1-0.9-0.3-1.2c-0.1-0.3-0.3-0.5-0.5-0.7
		c-0.2-0.2-0.5-0.2-0.8-0.2c-0.3,0-0.6,0.1-0.8,0.2c-0.2,0.2-0.4,0.4-0.5,0.7c-0.1,0.3-0.2,0.7-0.3,1.2c0,0.5-0.1,1-0.1,1.6
		c0,0.6,0,1.2,0.1,1.6c0,0.4,0.1,0.8,0.3,1.2c0.1,0.3,0.3,0.6,0.5,0.7c0.2,0.2,0.5,0.3,0.9,0.3c0.3,0,0.6-0.1,0.8-0.2
		C383.3,327.1,383.4,326.9,383.6,326.5z"/>
</g>
<g id="Layer_43">
	<path class="st17" d="M378.2,323.7c0,1.7-0.2,2.9-0.7,3.6c-0.5,0.8-1.2,1.2-2.2,1.2c-1,0-1.8-0.4-2.2-1.2c-0.5-0.8-0.7-2-0.7-3.6
		c0-1.7,0.2-2.9,0.7-3.6c0.5-0.8,1.2-1.2,2.2-1.2c1,0,1.8,0.4,2.2,1.2C378,320.9,378.2,322.1,378.2,323.7z M376.7,326.5
		c0.1-0.3,0.2-0.7,0.3-1.2c0-0.5,0.1-1,0.1-1.7c0-0.6,0-1.2-0.1-1.6c-0.1-0.5-0.1-0.9-0.3-1.2c-0.1-0.3-0.3-0.5-0.5-0.7
		c-0.2-0.2-0.5-0.2-0.8-0.2c-0.3,0-0.6,0.1-0.8,0.2c-0.2,0.2-0.4,0.4-0.5,0.7c-0.1,0.3-0.2,0.7-0.3,1.2c0,0.5-0.1,1-0.1,1.6
		c0,0.6,0,1.2,0.1,1.6c0,0.4,0.1,0.8,0.3,1.2c0.1,0.3,0.3,0.6,0.5,0.7c0.2,0.2,0.5,0.3,0.9,0.3c0.3,0,0.6-0.1,0.8-0.2
		C376.4,327.1,376.5,326.9,376.7,326.5z"/>
</g>
<g id="Layer_42">
	<path class="st17" d="M367.4,323.7c0,1.7-0.2,2.9-0.7,3.6c-0.5,0.8-1.2,1.2-2.2,1.2c-1,0-1.8-0.4-2.2-1.2c-0.5-0.8-0.7-2-0.7-3.6
		c0-1.7,0.2-2.9,0.7-3.6c0.5-0.8,1.2-1.2,2.2-1.2c1,0,1.8,0.4,2.2,1.2C367.1,320.9,367.4,322.1,367.4,323.7z M365.8,326.5
		c0.1-0.3,0.2-0.7,0.3-1.2c0-0.5,0.1-1,0.1-1.7c0-0.6,0-1.2-0.1-1.6c-0.1-0.5-0.1-0.9-0.3-1.2c-0.1-0.3-0.3-0.5-0.5-0.7
		c-0.2-0.2-0.5-0.2-0.8-0.2c-0.3,0-0.6,0.1-0.8,0.2c-0.2,0.2-0.4,0.4-0.5,0.7c-0.1,0.3-0.2,0.7-0.3,1.2c0,0.5-0.1,1-0.1,1.6
		c0,0.6,0,1.2,0.1,1.6c0,0.4,0.1,0.8,0.3,1.2c0.1,0.3,0.3,0.6,0.5,0.7c0.2,0.2,0.5,0.3,0.9,0.3c0.3,0,0.6-0.1,0.8-0.2
		C365.5,327.1,365.7,326.9,365.8,326.5z"/>
</g>
<g id="Layer_41">
	<path class="st17" d="M360.5,323.7c0,1.7-0.2,2.9-0.7,3.6c-0.5,0.8-1.2,1.2-2.2,1.2c-1,0-1.8-0.4-2.2-1.2c-0.5-0.8-0.7-2-0.7-3.6
		c0-1.7,0.2-2.9,0.7-3.6c0.5-0.8,1.2-1.2,2.2-1.2c1,0,1.8,0.4,2.2,1.2C360.2,320.9,360.5,322.1,360.5,323.7z M358.9,326.5
		c0.1-0.3,0.2-0.7,0.3-1.2c0-0.5,0.1-1,0.1-1.7c0-0.6,0-1.2-0.1-1.6c0-0.5-0.1-0.9-0.3-1.2c-0.1-0.3-0.3-0.5-0.5-0.7
		c-0.2-0.2-0.5-0.2-0.8-0.2c-0.3,0-0.6,0.1-0.8,0.2c-0.2,0.2-0.4,0.4-0.5,0.7c-0.1,0.3-0.2,0.7-0.2,1.2c0,0.5-0.1,1-0.1,1.6
		c0,0.6,0,1.2,0.1,1.6c0,0.4,0.1,0.8,0.3,1.2c0.1,0.3,0.3,0.6,0.5,0.7c0.2,0.2,0.5,0.3,0.9,0.3c0.3,0,0.6-0.1,0.8-0.2
		C358.6,327.1,358.8,326.9,358.9,326.5z"/>
</g>
<g id="Layer_40">
	<path class="st17" d="M353.6,323.7c0,1.7-0.2,2.9-0.7,3.6c-0.5,0.8-1.2,1.2-2.2,1.2c-1,0-1.8-0.4-2.2-1.2c-0.5-0.8-0.7-2-0.7-3.6
		c0-1.7,0.2-2.9,0.7-3.6c0.5-0.8,1.2-1.2,2.2-1.2c1,0,1.8,0.4,2.2,1.2C353.3,320.9,353.6,322.1,353.6,323.7z M352,326.5
		c0.1-0.3,0.2-0.7,0.3-1.2c0-0.5,0.1-1,0.1-1.7c0-0.6,0-1.2-0.1-1.6c-0.1-0.5-0.1-0.9-0.3-1.2c-0.1-0.3-0.3-0.5-0.5-0.7
		c-0.2-0.2-0.5-0.2-0.8-0.2c-0.3,0-0.6,0.1-0.8,0.2c-0.2,0.2-0.4,0.4-0.5,0.7c-0.1,0.3-0.2,0.7-0.3,1.2c0,0.5-0.1,1-0.1,1.6
		c0,0.6,0,1.2,0.1,1.6c0,0.4,0.1,0.8,0.3,1.2c0.1,0.3,0.3,0.6,0.5,0.7c0.2,0.2,0.5,0.3,0.9,0.3c0.3,0,0.6-0.1,0.8-0.2
		C351.7,327.1,351.9,326.9,352,326.5z"/>
</g>
<g id="Layer_39">
	<path class="st17" d="M346.6,323.7c0,1.7-0.2,2.9-0.7,3.6c-0.5,0.8-1.2,1.2-2.2,1.2c-1,0-1.8-0.4-2.2-1.2c-0.5-0.8-0.7-2-0.7-3.6
		c0-1.7,0.2-2.9,0.7-3.6c0.5-0.8,1.2-1.2,2.2-1.2c1,0,1.8,0.4,2.2,1.2C346.4,320.9,346.6,322.1,346.6,323.7z M345.1,326.5
		c0.1-0.3,0.2-0.7,0.3-1.2c0-0.5,0.1-1,0.1-1.7c0-0.6,0-1.2-0.1-1.6c0-0.5-0.1-0.9-0.3-1.2c-0.1-0.3-0.3-0.5-0.5-0.7
		c-0.2-0.2-0.5-0.2-0.8-0.2c-0.3,0-0.6,0.1-0.8,0.2c-0.2,0.2-0.4,0.4-0.5,0.7c-0.1,0.3-0.2,0.7-0.3,1.2c0,0.5-0.1,1-0.1,1.6
		c0,0.6,0,1.2,0.1,1.6c0,0.4,0.1,0.8,0.3,1.2c0.1,0.3,0.3,0.6,0.5,0.7c0.2,0.2,0.5,0.3,0.9,0.3c0.3,0,0.6-0.1,0.8-0.2
		C344.8,327.1,344.9,326.9,345.1,326.5z"/>
</g>
<g id="Layer_38">
	<path class="st17" d="M336,325.2h-1.1v3.2h-1.2v-3.2h-4.1v-1.3l4.1-4.7h1.1v5h1.1V325.2z M333.7,324.2v-3.6l-3.1,3.6H333.7z"/>
</g>
<g id="Layer_37">
	<path class="st17" d="M329.1,325.2H328v3.2h-1.2v-3.2h-4.1v-1.3l4.1-4.7h1.1v5h1.1V325.2z M326.8,324.2v-3.6l-3.1,3.6H326.8z"/>
</g>
<g id="Layer_36">
	<path class="st17" d="M321.5,324.8h-3.1v3.1h-1v-3.1h-3.1v-1h3.1v-3.1h1v3.1h3.1V324.8z"/>
</g>
<g id="Layer_35">
	<path class="st17" d="M301,331.9c-0.1-0.1-1.4-2.7-5.2-3.6c-0.3-0.1-0.5,0-0.7,0.2c-1.2,1-2.8,2.1-3.5,2.2
		c-4.7-2.3-7.4-6.7-7.5-7.6c-0.1-0.5,1-2.1,2.3-3.5c0.2-0.2,0.2-0.4,0.2-0.6c-0.3-3.6-4.1-5.4-4.3-5.5c-0.2-0.1-0.3-0.1-0.5-0.1
		c-4.4,0.7-5.1,3.3-5.1,3.4c0,0.1,0,0.3,0,0.4c5.2,16.3,16.1,19.3,19.7,20.3l0.7,0.2l0.3,0l0.3-0.1c0.1,0,2.7-1.3,3.3-5.3
		C301.1,332.2,301.1,332,301,331.9z"/>
</g>
</svg>
