<?xml version="1.0" encoding="utf-8"?>
<!-- Generator: Adobe Illustrator 24.0.0, SVG Export Plug-In . SVG Version: 6.00 Build 0)  -->
<svg version="1.1" id="Layer_1" xmlns="http://www.w3.org/2000/svg" xmlns:xlink="http://www.w3.org/1999/xlink" x="0px" y="0px"
	 viewBox="0 0 32.6 32.6" style="enable-background:new 0 0 32.6 32.6;" xml:space="preserve">
<style type="text/css">
	.st0{fill:#555250;}
</style>
<g>
	<g>
		<g>
			<path class="st0" d="M16.3,1.3c-6.1,0-11,4.9-11,11c0,5.9,10.2,18.3,10.6,18.8c0.1,0.1,0.2,0.2,0.4,0.2s0.3-0.1,0.4-0.2
				c0.4-0.5,10.6-12.9,10.6-18.8C27.3,6.2,22.4,1.3,16.3,1.3z M16.3,30c-1.9-2.3-10-12.8-10-17.7c0-5.5,4.5-10,10-10
				c5.5,0,10,4.5,10,10C26.3,17.2,18.2,27.7,16.3,30z"/>
			<path class="st0" d="M23.1,10.4l-6.5-5c-0.2-0.1-0.4-0.1-0.6,0l-6.5,5c-0.2,0.2-0.3,0.5-0.1,0.7c0.1,0.1,0.2,0.2,0.4,0.2h1.5v5.5
				c0,0.3,0.2,0.5,0.5,0.5h9c0.3,0,0.5-0.2,0.5-0.5v-5.5h1.5c0.3,0,0.5-0.2,0.5-0.5C23.3,10.6,23.2,10.5,23.1,10.4z M17.3,16.3h-2
				v-3h2V16.3z M20.8,10.3c-0.3,0-0.5,0.2-0.5,0.5v5.5h-2v-3.5c0-0.3-0.2-0.5-0.5-0.5h-3c-0.3,0-0.5,0.2-0.5,0.5v3.5h-2v-5.5
				c0-0.3-0.2-0.5-0.5-0.5h-0.5l5-3.9l5,3.9H20.8z"/>
		</g>
	</g>
</g>
</svg>
