<?xml version="1.0" encoding="utf-8"?>
<!-- Generator: Adobe Illustrator 24.0.0, SVG Export Plug-In . SVG Version: 6.00 Build 0)  -->
<svg version="1.1" id="Layer_1" xmlns="http://www.w3.org/2000/svg" xmlns:xlink="http://www.w3.org/1999/xlink" x="0px" y="0px"
	 viewBox="0 0 33 33" style="enable-background:new 0 0 33 33;" xml:space="preserve">
<style type="text/css">
	.st0{fill:#B2B9E1;}
	.st1{fill:#FFFFFF;}
</style>
<circle class="st0" cx="16.5" cy="16.5" r="16.5"/>
<path class="st1" d="M16.5,4.9c3,0,5.5,2.4,5.5,5.5c0,3-2.4,5.5-5.5,5.5c-3,0-5.5-2.4-5.5-5.5C11,7.4,13.5,4.9,16.5,4.9z"/>
<path class="st1" d="M16.5,28.7c-3,0-5.8-1.1-7.9-2.9c-0.5-0.4-0.8-1.1-0.8-1.8c0-3.1,2.5-5.5,5.5-5.5h6.4c3.1,0,5.5,2.4,5.5,5.5
	c0,0.7-0.3,1.3-0.8,1.8C22.3,27.6,19.5,28.7,16.5,28.7z"/>
</svg>
