<?xml version="1.0" encoding="utf-8"?>
<!-- Generator: Adobe Illustrator 24.0.0, SVG Export Plug-In . SVG Version: 6.00 Build 0)  -->
<svg version="1.1" id="Layer_1" xmlns="http://www.w3.org/2000/svg" xmlns:xlink="http://www.w3.org/1999/xlink" x="0px" y="0px"
	 viewBox="0 0 32.6 32.6" style="enable-background:new 0 0 32.6 32.6;" xml:space="preserve">
<style type="text/css">
	.st0{fill:#555250;}
</style>
<g>
	<g>
		<path class="st0" d="M29.8,6.3h-27C2,6.3,1.3,7,1.3,7.8v16.9c0,0.8,0.7,1.5,1.5,1.5h26.9c0.8,0,1.5-0.7,1.5-1.5V7.8
			C31.3,7,30.6,6.3,29.8,6.3z M29.2,7.5l-12,9c-0.2,0.2-0.5,0.3-0.9,0.3c-0.3,0-0.7-0.1-0.9-0.3l-12-9H29.2z M22.8,17l6.5,8.1l0,0
			h-26l0,0L9.8,17c0.2-0.2,0.2-0.6-0.1-0.8C9.5,16,9.1,16,8.9,16.4l-6.5,8V8.2l12.3,9.2c0.5,0.3,1,0.5,1.6,0.5
			c0.6,0,1.1-0.2,1.6-0.5l12.3-9.2v16.1l-6.5-8c-0.2-0.2-0.6-0.3-0.8-0.1C22.6,16.4,22.6,16.8,22.8,17z"/>
	</g>
</g>
</svg>
