<?xml version="1.0" encoding="utf-8"?>
<!-- Generator: Adobe Illustrator 24.0.0, SVG Export Plug-In . SVG Version: 6.00 Build 0)  -->
<svg version="1.1" id="Layer_1" xmlns="http://www.w3.org/2000/svg" xmlns:xlink="http://www.w3.org/1999/xlink" x="0px" y="0px"
	 viewBox="0 0 40 40" style="enable-background:new 0 0 40 40;" xml:space="preserve">
<style type="text/css">
	.st0{fill:#E4E6EB;}
	.st1{fill:#4B4B4B;}
</style>
<circle class="st0" cx="20" cy="20" r="18.22"/>
<g>
	<g>
		<g>
			<path class="st1" d="M29.75,19.52l-2.14-1.51c-0.39-0.27-0.92,0.01-0.92,0.48v0.92H16.41c-0.32,0-0.59,0.26-0.59,0.59
				s0.26,0.59,0.59,0.59h10.27v0.92c0,0.48,0.54,0.75,0.92,0.48l2.14-1.51C30.08,20.25,30.09,19.76,29.75,19.52z"/>
		</g>
	</g>
	<g>
		<g>
			<path class="st1" d="M26.82,23.76c-0.28-0.16-0.64-0.07-0.8,0.21c-1.38,2.38-3.95,3.98-6.89,3.98c-4.39,0-7.95-3.57-7.95-7.95
				s3.57-7.95,7.95-7.95c2.94,0,5.51,1.6,6.89,3.98c0.16,0.28,0.52,0.38,0.8,0.21c0.28-0.16,0.38-0.52,0.21-0.8
				c-1.58-2.74-4.54-4.56-7.9-4.56C14.08,10.87,10,14.96,10,20c0,5.04,4.08,9.13,9.13,9.13c3.37,0,6.32-1.83,7.9-4.56
				C27.19,24.28,27.1,23.92,26.82,23.76z"/>
		</g>
	</g>
</g>
</svg>
