<?xml version="1.0" encoding="utf-8"?>
<!-- Generator: Adobe Illustrator 24.0.0, SVG Export Plug-In . SVG Version: 6.00 Build 0)  -->
<svg version="1.1" id="Layer_1" xmlns="http://www.w3.org/2000/svg" xmlns:xlink="http://www.w3.org/1999/xlink" x="0px" y="0px"
	 viewBox="0 0 32.6 32.6" style="enable-background:new 0 0 32.6 32.6;" xml:space="preserve">
<style type="text/css">
	.st0{fill:#555250;}
</style>
<g id="XMLID_2931_">
	<path class="st0" d="M24.6,31.3H8c-1.8,0-3.2-1.4-3.2-3.2V14.2C4.8,12.5,6.2,11,8,11h0.9V8.7c0-4.1,3.3-7.4,7.4-7.4
		s7.4,3.3,7.4,7.4V11h0.9c1.8,0,3.2,1.4,3.2,3.2V28C27.8,29.9,26.4,31.3,24.6,31.3z M8,11.9c-1.3,0-2.3,1-2.3,2.3V28
		c0,1.3,1,2.3,2.3,2.3h16.6c1.3,0,2.3-1,2.3-2.3V14.2c0-1.3-1-2.3-2.3-2.3h-1.8V8.7c0-3.6-2.9-6.5-6.5-6.5S9.8,5.1,9.8,8.7v3.2H8z
		 M16.3,24.4c-1.8,0-3.2-1.4-3.2-3.2c0-1.8,1.4-3.2,3.2-3.2c1.8,0,3.2,1.4,3.2,3.2C19.5,22.9,18.1,24.4,16.3,24.4z M16.3,18.8
		c-1.3,0-2.3,1-2.3,2.3s1,2.3,2.3,2.3c1.3,0,2.3-1,2.3-2.3S17.6,18.8,16.3,18.8z M21.1,11.9h-9.5V8.7c0-2.6,2.1-4.8,4.8-4.8
		s4.8,2.1,4.8,4.8v3.2H21.1z M12.5,11h7.7V8.7c0-2.1-1.7-3.8-3.8-3.8s-3.8,1.7-3.8,3.8V11H12.5z"/>
</g>
</svg>
