<?xml version="1.0" encoding="utf-8"?>
<!-- Generator: Adobe Illustrator 24.0.0, SVG Export Plug-In . SVG Version: 6.00 Build 0)  -->
<svg version="1.1" id="Layer_1" xmlns="http://www.w3.org/2000/svg" xmlns:xlink="http://www.w3.org/1999/xlink" x="0px" y="0px"
	 viewBox="0 0 32.6 32.6" style="enable-background:new 0 0 32.6 32.6;" xml:space="preserve">
<style type="text/css">
	.st0{fill:#555250;}
</style>
<g transform="translate(-1 -1)">
	<g>
		<g>
			<path class="st0" d="M31.5,25.4l-6.1-4c-0.8-0.5-1.8-0.3-2.4,0.4l-1.8,2.3c-0.2,0.3-0.6,0.4-1,0.2L20,24.1
				c-1.1-0.6-2.5-1.4-5.3-4.2s-3.6-4.2-4.2-5.3l-0.2-0.3c-0.2-0.3-0.1-0.7,0.2-1l2.3-1.8c0.7-0.6,0.9-1.6,0.4-2.4l-4-6.1
				c-0.5-0.8-1.6-1-2.4-0.5L4.2,4.1C3.4,4.5,2.9,5.3,2.6,6.2c-0.9,3.3-0.2,9.1,8.2,17.6c6.7,6.7,11.8,8.5,15.2,8.5
				c0.8,0,1.6-0.1,2.3-0.3c0.9-0.2,1.7-0.8,2.1-1.6l1.5-2.5C32.5,27,32.3,26,31.5,25.4z M31.2,27.3l-1.5,2.5c-0.3,0.6-0.9,1-1.5,1.2
				c-3.1,0.8-8.4,0.1-16.6-8S2.7,9.5,3.6,6.5c0.2-0.6,0.6-1.2,1.2-1.5l2.5-1.5c0.4-0.2,0.8-0.1,1,0.2l2.2,3.3l1.8,2.8
				c0.2,0.3,0.1,0.8-0.2,1l-2.3,1.8C9.2,13,9,14,9.5,14.8l0.2,0.3c0.6,1.2,1.4,2.6,4.3,5.5c2.9,2.9,4.4,3.7,5.5,4.3l0.3,0.2
				c0.8,0.4,1.7,0.2,2.2-0.5l1.8-2.3c0.2-0.3,0.7-0.4,1-0.2l6.1,4C31.3,26.5,31.4,27,31.2,27.3z"/>
			<path class="st0" d="M19.3,7.3c4.7,0,8.5,3.8,8.5,8.5c0,0.3,0.2,0.5,0.5,0.5c0.3,0,0.5-0.2,0.5-0.5c0-5.2-4.3-9.5-9.5-9.5
				c-0.3,0-0.5,0.2-0.5,0.5C18.8,7.1,19,7.3,19.3,7.3z"/>
			<path class="st0" d="M19.3,10.3c3,0,5.5,2.5,5.5,5.5c0,0.3,0.2,0.5,0.5,0.5c0.3,0,0.5-0.2,0.5-0.5c0-3.6-2.9-6.5-6.5-6.5
				c-0.3,0-0.5,0.2-0.5,0.5C18.8,10.1,19,10.3,19.3,10.3z"/>
			<path class="st0" d="M19.3,13.3c1.4,0,2.5,1.1,2.5,2.5c0,0.3,0.2,0.5,0.5,0.5c0.3,0,0.5-0.2,0.5-0.5c0-1.9-1.6-3.5-3.5-3.5
				c-0.3,0-0.5,0.2-0.5,0.5C18.8,13.1,19,13.3,19.3,13.3z"/>
		</g>
	</g>
</g>
</svg>
