<?xml version="1.0" encoding="utf-8"?>
<!-- Generator: Adobe Illustrator 23.0.1, SVG Export Plug-In . SVG Version: 6.00 Build 0)  -->
<svg version="1.1" id="Layer_1" xmlns="http://www.w3.org/2000/svg" xmlns:xlink="http://www.w3.org/1999/xlink" x="0px" y="0px"
	 viewBox="0 0 32.6 32.6" style="enable-background:new 0 0 32.6 32.6;" xml:space="preserve">
<g id="XMLID_2944_">
	<path d="M31.3,31.3h-30v-4.1c0-5.5,10.6-7.7,15-7.7s15,2.2,15,7.7V31.3z M2.2,30.4h28.2v-3.2c0-4.4-9.3-6.8-14.1-6.8
		S2.2,22.8,2.2,27.2V30.4z M16.3,16.8c-4.3,0-7.7-3.5-7.7-7.7s3.5-7.7,7.7-7.7S24,4.8,24,9S20.6,16.8,16.3,16.8z M16.3,2.2
		c-3.8,0-6.8,3.1-6.8,6.8c0,3.8,3.1,6.8,6.8,6.8c3.8,0,6.8-3.1,6.8-6.8C23.1,5.3,20.1,2.2,16.3,2.2z"/>
</g>
</svg>
