<?xml version="1.0" encoding="utf-8"?>
<svg version="1.1" id="Layer_1" x="0px" y="0px" viewBox="0 0 26 26" style="enable-background:new 0 0 26 26;" xml:space="preserve">
                                      <g>
                                        <path d="M22.8,22L18,17.1c1.3-1.5,2.1-3.5,2.1-5.6c0-4.7-3.8-8.5-8.5-8.5C6.8,3,3,6.8,3,11.5S6.8,20,11.5,20c2.1,0,4.1-0.8,5.6-2.1
                                                              l4.9,4.9c0.1,0.1,0.3,0.2,0.4,0.2s0.3-0.1,0.4-0.2C23.1,22.6,23.1,22.2,22.8,22z M4.2,11.5c0-4,3.3-7.3,7.3-7.3s7.3,3.3,7.3,7.3
                                                              s-3.3,7.3-7.3,7.3C7.5,18.9,4.2,15.6,4.2,11.5z"></path>
                                      </g>
                                    </svg>