<?xml version="1.0" encoding="utf-8"?>
<svg version="1.1" id="Layer_1" xmlns="http://www.w3.org/2000/svg" xmlns:xlink="http://www.w3.org/1999/xlink" x="0px" y="0px"
    viewBox="0 0 14 14" style="enable-background:new 0 0 14 14;" xml:space="preserve">
<path d="M7,0.6C3.5,0.6,0.6,3.5,0.6,7s2.9,6.4,6.4,6.4s6.4-2.9,6.4-6.4S10.5,0.6,7,0.6z M1.9,7c0-2.8,2.3-5.1,5.1-5.1
  c1.2,0,2.3,0.4,3.1,1.1L3,10.1C2.3,9.3,1.9,8.2,1.9,7z M7,12.1c-1.2,0-2.3-0.4-3.1-1.1L11,3.9c0.7,0.9,1.1,2,1.1,3.1
  C12.1,9.8,9.8,12.1,7,12.1z"/>
</svg>