<?xml version="1.0" encoding="utf-8"?>
<svg version="1.1" id="Layer_1" xmlns="http://www.w3.org/2000/svg" xmlns:xlink="http://www.w3.org/1999/xlink" x="0px" y="0px"
  viewBox="0 0 14 14" style="enable-background:new 0 0 14 14;" xml:space="preserve">
<path d="M7,2.65c-2.9,0-5.37,1.8-6.38,4.35c1,2.54,3.48,4.35,6.38,4.35s5.37-1.8,6.38-4.35C12.37,4.46,9.9,2.65,7,2.65z M7,9.9
  C5.4,9.9,4.1,8.6,4.1,7S5.4,4.1,7,4.1S9.9,5.4,9.9,7S8.6,9.9,7,9.9z M7,5.26C6.04,5.26,5.26,6.04,5.26,7S6.04,8.74,7,8.74
  S8.74,7.96,8.74,7S7.96,5.26,7,5.26z"/>
</svg>