<?xml version="1.0" encoding="utf-8"?>                                       
<svg version="1.1" id="Layer_1" xmlns="http://www.w3.org/2000/svg" xmlns:xlink="http://www.w3.org/1999/xlink" x="0px" y="0px"
  viewBox="0 0 22.4 18.7" style="enable-background:new 0 0 22.4 18.7;" xml:space="preserve">
<path class="st0" d="M21.5,8.4H2.9L10,1.6c0.4-0.4,0.4-0.9,0-1.3c-0.4-0.4-0.9-0.4-1.3,0L0.5,8C0.2,8.4,0,8.8,0,9.3
  c0,0.5,0.2,1,0.6,1.3l8.1,7.7c0.2,0.2,0.4,0.3,0.6,0.3c0.2,0,0.5-0.1,0.7-0.3c0.4-0.4,0.3-1,0-1.3l-7.2-6.8h18.7
  c0.5,0,0.9-0.4,0.9-0.9C22.4,8.8,22,8.4,21.5,8.4L21.5,8.4z"/>
</svg>