<svg version="1.1" id="Layer_1" xmlns="http://www.w3.org/2000/svg" xmlns:xlink="http://www.w3.org/1999/xlink" x="0px" y="0px"
  viewBox="0 0 14 14" style="enable-background:new 0 0 14 14;" xml:space="preserve">

<path className="st0" d="M12.98,2.81c-0.27-0.28-0.64-0.43-1.02-0.43h-9.9c-0.8,0-1.45,0.66-1.45,1.46v6.33c0,0.8,0.65,1.45,1.45,1.45
  h9.89c0.8,0,1.45-0.65,1.45-1.45V3.85C13.4,3.46,13.25,3.09,12.98,2.81z M11.9,4.94v4.12L9.83,7L11.9,4.94z M5.25,8.06l0.24,0.23
  C6.3,9.11,7.72,9.11,8.53,8.3l0.24-0.24l2.07,2.05H3.17L5.25,8.06z M6.54,7.23L3.17,3.88h7.66C9.7,5,7.59,7.11,7.47,7.23
  C7.23,7.47,6.78,7.47,6.54,7.23z M4.18,7L2.1,9.06V4.94L4.18,7z"/>
</svg>