<svg version="1.1" id="Layer_1" xmlns="http://www.w3.org/2000/svg" xmlns:xlink="http://www.w3.org/1999/xlink" x="0px" y="0px"
  viewBox="0 0 14 14" style="enable-background:new 0 0 14 14;" xml:space="preserve">

<g>
  <g>
    <g>
      <path className="st0" d="M9.97,6.47C9.91,6.34,9.77,6.25,9.63,6.25h-1.5V1.38C8.13,1.17,7.96,1,7.75,1h-1.5
        C6.04,1,5.88,1.17,5.88,1.38v4.88h-1.5c-0.15,0-0.28,0.09-0.34,0.22C3.97,6.6,4,6.76,4.09,6.87l2.63,3C6.79,9.95,6.89,10,7,10
        c0.11,0,0.21-0.05,0.28-0.13l2.63-3C10,6.76,10.03,6.6,9.97,6.47z"/>
    </g>
  </g>
  <g>
    <g>
      <path className="st0" d="M11.13,9.25v2.25H2.88V9.25h-1.5v3c0,0.41,0.34,0.75,0.75,0.75h9.75c0.41,0,0.75-0.34,0.75-0.75v-3H11.13z"
        />
    </g>
  </g>
</g>
</svg>