<?xml version="1.0" encoding="utf-8"?>
                                            
<svg version="1.1" id="Layer_1" xmlns="http://www.w3.org/2000/svg" xmlns:xlink="http://www.w3.org/1999/xlink" x="0px" y="0px"
  viewBox="0 0 14 14" style="enable-background:new 0 0 14 14;" xml:space="preserve">

<g>
  <path class="st0" d="M11.2,2.2H9V1.8c0-0.7-0.5-1.2-1.2-1.2H6.2C5.5,0.6,5,1.1,5,1.8v0.4H2.8c-0.6,0-1,0.4-1,1v1.4
    C1.8,4.8,2,5,2.2,5h0.2l0.3,7.3c0,0.6,0.6,1.1,1.2,1.1H10c0.6,0,1.2-0.5,1.2-1.1L11.6,5h0.2c0.2,0,0.4-0.2,0.4-0.4V3.2
    C12.2,2.7,11.7,2.2,11.2,2.2L11.2,2.2z M5.8,1.8c0-0.2,0.2-0.4,0.4-0.4h1.6c0.2,0,0.4,0.2,0.4,0.4v0.4H5.8V1.8z M2.6,3.2
    C2.6,3.1,2.7,3,2.8,3h8.4c0.1,0,0.2,0.1,0.2,0.2v1c-0.1,0-8.3,0-8.8,0V3.2z M10.4,12.2c0,0.2-0.2,0.4-0.4,0.4H4
    c-0.2,0-0.4-0.2-0.4-0.4L3.2,5h7.6L10.4,12.2z"/>
  <path class="st0" d="M7,11.8c0.2,0,0.4-0.2,0.4-0.4V6.2C7.4,6,7.2,5.8,7,5.8S6.6,6,6.6,6.2v5.2C6.6,11.6,6.8,11.8,7,11.8z"/>
  <path class="st0" d="M9,11.8c0.2,0,0.4-0.2,0.4-0.4V6.2C9.4,6,9.2,5.8,9,5.8S8.6,6,8.6,6.2v5.2C8.6,11.6,8.8,11.8,9,11.8z"/>
  <path class="st0" d="M5,11.8c0.2,0,0.4-0.2,0.4-0.4V6.2C5.4,6,5.2,5.8,5,5.8C4.8,5.8,4.6,6,4.6,6.2v5.2C4.6,11.6,4.8,11.8,5,11.8z"
    />
</g>
</svg>