<svg width="18" height="18" viewBox="0 0 18 18" fill="none" xmlns="http://www.w3.org/2000/svg">
  <path d="M9.00001 11.65C8.86001 11.65 8.73001 11.59 8.64001 11.5L5.16001 7.85C4.86001 7.53 5.08001 7.01 5.52001 7.01H7.34001V3.2C7.34001 2.74 7.71001 2.37 8.17001 2.37H9.83001C10.29 2.37 10.66 2.74 10.66 3.2V7.01H12.48C12.92 7.01 13.14 7.53 12.84 7.85L9.36001 11.5C9.27001 11.6 9.14001 11.65 9.00001 11.65Z" fill="#00BCD4"/>
  <path d="M15.79 15.63H2.21C1.57 15.63 1.05 15.11 1.05 14.47V14.14C1.05 13.5 1.57 12.98 2.21 12.98H15.8C16.44 12.98 16.96 13.5 16.96 14.14V14.47C16.95 15.11 16.43 15.63 15.79 15.63Z" fill="#607D8B"/>
  <path d="M9.00001 2.37H8.17001C7.71001 2.37 7.34001 2.74 7.34001 3.2V7.01H5.52001C5.08001 7.01 4.86001 7.53 5.16001 7.85L8.64001 11.5C8.73001 11.6 8.86001 11.65 9.00001 11.65V2.37V2.37Z" fill="#00A4B9"/>
  <path d="M9 12.98H2.21C1.57 12.98 1.05 13.5 1.05 14.14V14.47C1.05 15.11 1.57 15.63 2.21 15.63H9V12.98Z" fill="#546D79"/>
</svg>