<?xml version="1.0" encoding="utf-8"?>
<!-- Generator: Adobe Illustrator 24.0.0, SVG Export Plug-In . SVG Version: 6.00 Build 0)  -->
<svg version="1.1" id="Layer_1" xmlns="http://www.w3.org/2000/svg" xmlns:xlink="http://www.w3.org/1999/xlink" x="0px" y="0px"
	 viewBox="0 0 24 24" style="enable-background:new 0 0 24 24;" xml:space="preserve">
<path d="M10,16.5v-9l6,4.5L10,16.5z M22,12c0,5.5-4.5,10-10,10S2,17.5,2,12c0-1.2,0.2-2.3,0.6-3.4l1.9,0.7C4.2,10.1,4,11.1,4,12
	c0,4.4,3.6,8,8,8s8-3.6,8-8s-3.6-8-8-8c-0.9,0-1.9,0.2-2.7,0.5L8.6,2.6C9.7,2.2,10.8,2,12,2C17.5,2,22,6.5,22,12z M5.5,4
	C4.7,4,4,4.7,4,5.5S4.7,7,5.5,7S7,6.3,7,5.5S6.3,4,5.5,4z"/>
</svg>
