<?xml version="1.0" encoding="utf-8"?>
                                            
<svg version="1.1" id="Layer_1" xmlns="http://www.w3.org/2000/svg" xmlns:xlink="http://www.w3.org/1999/xlink" x="0px" y="0px"
        viewBox="0 0 29.74 24" style="enable-background:new 0 0 29.74 24;" xml:space="preserve">

<path class="st0" d="M6.72,10.77c0.2,0,0.31,0,0.42,0c6.23,0,12.47,0,18.7,0c0.34,0,0.65,0.04,0.93,0.26
    c0.41,0.33,0.59,0.86,0.43,1.35c-0.16,0.5-0.6,0.84-1.12,0.86c-0.12,0.01-0.23,0-0.35,0c-6.19,0-12.39,0-18.58,0
    c-0.11,0-0.23,0-0.42,0c0.12,0.13,0.19,0.21,0.27,0.29c2.08,2.08,4.16,4.16,6.24,6.24c0.52,0.52,0.63,1.06,0.33,1.6
    c-0.37,0.66-1.22,0.84-1.82,0.39c-0.11-0.08-0.2-0.18-0.3-0.27c-2.81-2.81-5.61-5.61-8.42-8.42c-0.73-0.73-0.73-1.38,0-2.1
    c2.82-2.82,5.64-5.64,8.46-8.46c0.52-0.52,1.06-0.63,1.6-0.33c0.66,0.36,0.85,1.22,0.39,1.82C13.38,4.1,13.28,4.2,13.17,4.3
    C11.12,6.37,9.06,8.43,7,10.49C6.92,10.56,6.85,10.64,6.72,10.77z"/>
</svg>