<?xml version="1.0" encoding="utf-8"?>
<!-- Generator: Adobe Illustrator 24.0.0, SVG Export Plug-In . SVG Version: 6.00 Build 0)  -->
<svg version="1.1" id="Layer_1" xmlns="http://www.w3.org/2000/svg" xmlns:xlink="http://www.w3.org/1999/xlink" x="0px" y="0px"
	 viewBox="0 0 36.38 36.38" style="enable-background:new 0 0 36.38 36.38;" xml:space="preserve">
<path d="M22.26,17.93c1.22-0.84,2.08-2.23,2.08-3.52c0-2.85-2.21-5.04-5.04-5.04h-7.88v17.65h8.88c2.63,0,4.68-2.14,4.68-4.78
	C24.97,20.32,23.88,18.68,22.26,17.93z M15.2,12.52h3.78c1.05,0,1.89,0.84,1.89,1.89s-0.84,1.89-1.89,1.89H15.2V12.52z M19.61,23.86
	H15.2v-3.78h4.41c1.05,0,1.89,0.84,1.89,1.89C21.5,23.02,20.66,23.86,19.61,23.86z"/>
</svg>
