<?xml version="1.0" encoding="utf-8"?>
<!-- Generator: Adobe Illustrator 24.0.0, SVG Export Plug-In . SVG Version: 6.00 Build 0)  -->
<svg version="1.1" id="Layer_1" xmlns="http://www.w3.org/2000/svg" xmlns:xlink="http://www.w3.org/1999/xlink" x="0px" y="0px"
	 viewBox="0 0 24 24" style="enable-background:new 0 0 24 24;" xml:space="preserve">
<style type="text/css">
	.st0{fill:#B2B9E1;}
</style>
<path class="st0" d="M12.23,3.31c-0.14-0.07-0.32-0.07-0.46,0l-8,4.2C3.6,7.6,3.5,7.77,3.5,7.96v8.08c0,0.18,0.1,0.35,0.27,0.44
	l8,4.2c0.14,0.07,0.32,0.07,0.46,0l8-4.2c0.16-0.09,0.27-0.25,0.27-0.44V7.96c0-0.19-0.1-0.36-0.27-0.45L12.23,3.31z M12.93,1.99
	l8,4.2C21.59,6.54,22,7.22,22,7.96v8.08c0,0.74-0.41,1.42-1.07,1.77l-8,4.2c-0.58,0.31-1.28,0.31-1.86,0l-8-4.2
	C2.41,17.46,2,16.78,2,16.04V7.96c0-0.74,0.41-1.42,1.07-1.77l8-4.2C11.65,1.68,12.35,1.68,12.93,1.99z M7.93,15.15
	c1.45,0,2.5-0.9,2.54-2.2H9.1c-0.09,0.6-0.55,1-1.16,1c-0.8,0-1.27-0.67-1.27-1.77s0.48-1.77,1.26-1.77c0.62,0,1.08,0.41,1.16,1.02
	h1.38c-0.05-1.27-1.12-2.22-2.54-2.22c-1.69,0-2.72,1.13-2.72,2.97S6.24,15.15,7.93,15.15z M14.03,9.21c-1.7,0-2.79,1.14-2.79,2.97
	c0,1.84,1.08,2.97,2.78,2.97s2.77-1.13,2.77-2.97c0-1.83-1.07-2.97-2.77-2.97H14.03z M14.03,10.4c0.78,0,1.3,0.7,1.3,1.78
	c0,1.09-0.52,1.78-1.3,1.78c-0.8,0-1.33-0.69-1.33-1.78s0.53-1.78,1.32-1.78H14.03z M18,15c0.55,0,1-0.45,1-1s-0.45-1-1-1
	s-1,0.45-1,1S17.45,15,18,15z"/>
</svg>
