<?xml version="1.0" encoding="utf-8"?>
<!-- Generator: Adobe Illustrator 24.0.0, SVG Export Plug-In . SVG Version: 6.00 Build 0)  -->
<svg version="1.1" id="Layer_1" xmlns="http://www.w3.org/2000/svg" xmlns:xlink="http://www.w3.org/1999/xlink" x="0px" y="0px"
	 viewBox="0 0 36.38 36.38" style="enable-background:new 0 0 36.38 36.38;" xml:space="preserve">
<style type="text/css">
	.st0{fill:#5F6368;}
</style>
<path class="st0" d="M9.07,16.43c-0.98,0-1.77,0.79-1.77,1.77c0,0.98,0.79,1.76,1.77,1.76s1.76-0.79,1.76-1.76
	C10.84,17.21,10.05,16.43,9.07,16.43z M9.07,9.37c-0.98,0-1.77,0.79-1.77,1.77S8.1,12.9,9.07,12.9s1.76-0.79,1.76-1.76
	S10.05,9.37,9.07,9.37z M9.07,23.49c-0.98,0-1.77,0.8-1.77,1.76s0.8,1.76,1.77,1.76s1.76-0.8,1.76-1.76S10.05,23.49,9.07,23.49z
	 M12.6,26.43h16.47v-2.35H12.6V26.43z M12.6,19.37h16.47v-2.35H12.6V19.37z M12.6,9.95v2.35h16.47V9.95H12.6z"/>
</svg>
