<?xml version="1.0" encoding="utf-8"?>
<!-- Generator: Adobe Illustrator 24.0.0, SVG Export Plug-In . SVG Version: 6.00 Build 0)  -->
<svg version="1.1" id="Layer_1" xmlns="http://www.w3.org/2000/svg" xmlns:xlink="http://www.w3.org/1999/xlink" x="0px" y="0px"
	 viewBox="0 0 24 24" style="enable-background:new 0 0 24 24;" xml:space="preserve">
<style type="text/css">
	.st0{fill:#00607F;}
	.st1{fill:#002C3C;}
	.st2{fill:#FFE477;}
	.st3{fill:#FF9100;}
	.st4{fill:#75EFFF;}
	.st5{fill:#00CEEE;}
	.st6{fill:#FFBCAB;}
	.st7{fill:#FF9468;}
	.st8{fill:#ECECF1;}
	.st9{fill:#BABAC0;}
	.st10{fill:#FFB655;}
	.st11{fill:#FF728B;}
	.st12{fill:#FF3F62;}
</style>
<g>
	<path class="st0" d="M16.73,6.69v14.14l-4.69,0.19L2,21.41V7.27c0-0.33,0.26-0.59,0.59-0.59H16.73z"/>
	<path class="st1" d="M16.73,6.69v14.14l-4.69,0.19V6.69H16.73z"/>
	<path class="st2" d="M21.6,3.74l-3.17-1.52c-0.14-0.07-0.3-0.08-0.45-0.02c-0.15,0.05-0.27,0.16-0.33,0.3l-3.87,8.05l4.96,0.51
		l0.85-1.77l-0.04-0.63l0.55-0.43l0.51-1.06l-0.04-0.63l0.55-0.43l0.76-1.58C22.01,4.23,21.89,3.88,21.6,3.74z"/>
	<path class="st3" d="M18.99,5.09c-0.29-0.14-0.64-0.02-0.78,0.27C18.07,5.65,18.2,6,18.49,6.14l2.11,1.02l0.51-1.06L18.99,5.09z"/>
	<path class="st3" d="M17.2,7.47c-0.14,0.29-0.02,0.64,0.27,0.78l2.11,1.02l0.51-1.06L17.98,7.2C17.69,7.06,17.34,7.18,17.2,7.47z"
		/>
	<path class="st4" d="M9.11,6.69v7.03H5.59V6.69l1.17-1.17h1.17L9.11,6.69z"/>
	<path class="st5" d="M9.11,6.69v7.03H7.35v-8.2h0.59L9.11,6.69z"/>
	<path class="st6" d="M9.11,6.69V6.1c0-0.05-0.01-0.14-0.04-0.19L7.9,2.4C7.83,2.16,7.61,2,7.35,2C7.09,2,6.87,2.16,6.8,2.4
		L5.63,5.91C5.61,5.96,5.59,6.05,5.59,6.1v0.59H9.11z"/>
	<path class="st7" d="M9.11,6.69V6.1c0-0.05-0.01-0.14-0.04-0.19L7.9,2.4C7.83,2.16,7.61,2,7.35,2v4.69H9.11z"/>
	<path class="st8" d="M10.28,5.52h3.52v7.03h-3.52V5.52z"/>
	<path class="st9" d="M12.04,5.52h1.76v7.03h-1.76V5.52z"/>
	<path class="st2" d="M21.87,10.43c-0.12-0.14-0.28-0.22-0.46-0.22H5.01c-0.27,0-0.55,0.19-0.61,0.46L2.01,21.29
		c-0.04,0.18,0.01,0.35,0.12,0.49C2.25,21.92,2.41,22,2.59,22h16.48c0.27,0,0.52-0.19,0.57-0.46l2.34-10.63
		C22.02,10.74,21.98,10.57,21.87,10.43z"/>
	<path class="st10" d="M21.99,10.92l-2.34,10.63c-0.06,0.27-0.3,0.46-0.57,0.46h-7.03V10.2h9.38c0.18,0,0.34,0.08,0.46,0.22
		C21.98,10.57,22.02,10.74,21.99,10.92z"/>
	<path class="st0" d="M16.73,16.14h-4.69c-0.33,0-0.59,0.26-0.59,0.59v2.34c0,0.33,0.26,0.59,0.59,0.59h4.69
		c0.33,0,0.59-0.26,0.59-0.59v-2.34C17.31,16.4,17.05,16.14,16.73,16.14z"/>
	<path class="st11" d="M12.47,2.2c-0.11-0.13-0.27-0.19-0.43-0.19c-0.16,0-0.33,0.06-0.43,0.19C11.29,2.55,9.7,4.38,9.7,5.52
		c0,1.29,1.05,2.34,2.34,2.34s2.34-1.05,2.34-2.34C14.38,4.38,12.79,2.55,12.47,2.2z"/>
	<path class="st12" d="M14.38,5.52c0,1.29-1.05,2.34-2.34,2.34V2.01c0.16,0,0.33,0.06,0.43,0.19C12.79,2.55,14.38,4.38,14.38,5.52z"
		/>
	<path class="st1" d="M17.31,16.73v2.34c0,0.33-0.26,0.59-0.59,0.59h-4.69v-3.52h4.69C17.05,16.14,17.31,16.4,17.31,16.73z"/>
</g>
</svg>
