<?xml version="1.0" encoding="utf-8"?>
<!-- Generator: Adobe Illustrator 24.0.0, SVG Export Plug-In . SVG Version: 6.00 Build 0)  -->
<svg version="1.1" id="Layer_1" xmlns="http://www.w3.org/2000/svg" xmlns:xlink="http://www.w3.org/1999/xlink" x="0px" y="0px"
	 viewBox="0 0 16 16" style="enable-background:new 0 0 16 16;" xml:space="preserve">
<style type="text/css">
	.st0{fill-rule:evenodd;clip-rule:evenodd;fill:#606060;}
</style>
<g>
	<g>
		<path class="st0" d="M16,8c0-4.41-3.59-8-8-8C3.59,0,0,3.59,0,8s3.59,8,8,8C12.41,16,16,12.41,16,8z M1.22,8
			c0-3.74,3.04-6.78,6.78-6.78S14.78,4.26,14.78,8S11.74,14.78,8,14.78C4.26,14.78,1.22,11.74,1.22,8z"/>
	</g>
</g>
<path class="st0" d="M7.99,11.29L7.99,11.29c0.28,0,0.5-0.22,0.5-0.5V5.21c0-0.28-0.22-0.5-0.5-0.5h0c-0.28,0-0.5,0.22-0.5,0.5v5.58
	C7.5,11.07,7.72,11.29,7.99,11.29z"/>
<path class="st0" d="M4.7,8L4.7,8c0,0.28,0.22,0.5,0.5,0.5h5.58c0.28,0,0.5-0.22,0.5-0.5v0c0-0.28-0.22-0.5-0.5-0.5H5.2
	C4.93,7.5,4.7,7.72,4.7,8z"/>
</svg>
