<?xml version="1.0" encoding="utf-8"?>
<!-- Generator: Adobe Illustrator 24.0.0, SVG Export Plug-In . SVG Version: 6.00 Build 0)  -->
<svg version="1.1" id="Layer_1" xmlns="http://www.w3.org/2000/svg" xmlns:xlink="http://www.w3.org/1999/xlink" x="0px" y="0px"
	 viewBox="0 0 40 40" style="enable-background:new 0 0 40 40;" xml:space="preserve">
<style type="text/css">
	.st0{fill:#E4E6EB;}
	.st1{fill:#4B4B4B;}
</style>
<circle class="st0" cx="20" cy="20" r="18.22"/>
<path class="st1" d="M20.86,10c0.37,0.05,0.73,0.09,1.1,0.15c0.9,0.15,1.75,0.43,2.58,0.81c0.27,0.13,0.46,0.3,0.44,0.62
	c-0.01,0.28-0.18,0.46-0.53,0.56c-1.38,0.42-2.45,1.23-3.22,2.45c-2.14,3.42-0.08,7.98,3.89,8.61c1.28,0.2,2.48,0,3.63-0.59
	c0.15-0.08,0.35-0.15,0.51-0.13c0.38,0.04,0.57,0.42,0.43,0.82c-0.47,1.34-1.18,2.53-2.16,3.56c-1.63,1.71-3.62,2.74-5.96,3.05
	c-4.88,0.65-9.5-2.36-10.9-7.07c-1.7-5.73,1.99-11.67,7.88-12.69c0.35-0.06,0.71-0.1,1.06-0.15C20.03,10,20.45,10,20.86,10z
	 M22.77,11.57c-3.62-1.2-8.64,0.36-10.63,4.99c-1.91,4.44,0.23,9.73,4.71,11.58c4.53,1.87,9.28-0.31,11.16-3.95
	c-1.64,0.46-3.24,0.36-4.79-0.34c-1.55-0.71-2.69-1.84-3.4-3.38c-0.63-1.37-0.8-2.81-0.47-4.29C19.8,14.14,20.96,12.61,22.77,11.57z
	"/>
</svg>
