<?xml version="1.0" encoding="utf-8"?>
<!-- Generator: Adobe Illustrator 24.0.0, SVG Export Plug-In . SVG Version: 6.00 Build 0)  -->
<svg version="1.1" id="Layer_1" xmlns="http://www.w3.org/2000/svg" xmlns:xlink="http://www.w3.org/1999/xlink" x="0px" y="0px"
	 viewBox="0 0 24 24" style="enable-background:new 0 0 24 24;" xml:space="preserve">
<g>
	<path d="M21.87,14.22l-0.04-0.13c-0.03-0.1-0.06-0.2-0.1-0.29l-2.41-7.25c-0.4-1.22-1.53-2.05-2.82-2.04
		c-1.63,0-2.96,1.32-2.96,2.95l0,0.23h-3.22l0-0.23c0-1.62-1.33-2.94-2.96-2.94c-1.28,0-2.42,0.82-2.82,2.04c0,0,0,0,0,0l-2.27,7.22
		c-0.6,1.58-0.2,3.37,1.02,4.55c1.22,1.17,3.03,1.5,4.58,0.84c1.56-0.66,2.57-2.19,2.57-3.89c0-0.1,0-0.19-0.01-0.29
		c0-0.02,0-0.03,0-0.05l-0.02-1.2h3.16l0.01,0.89c-0.26,1.68,0.52,3.35,1.97,4.24c1.45,0.89,3.29,0.82,4.67-0.17
		s2.04-2.71,1.66-4.37C21.89,14.3,21.89,14.26,21.87,14.22z M16.51,5.34c0.92,0,1.73,0.59,2.02,1.47l1.66,4.99
		c-1.85-1.29-4.39-0.9-5.76,0.89l-0.04-5.25C14.39,6.29,15.34,5.34,16.51,5.34z M13.55,8.52l0.02,2.28h-3.19l-0.04-2.28H13.55z
		 M5.34,6.81c0.28-0.87,1.1-1.46,2.02-1.46c1.17,0,2.12,0.94,2.12,2.1v0.01l0.08,5.23c-1.39-1.8-3.96-2.18-5.81-0.85L5.34,6.81z
		 M6.23,18.66c-1.04,0-2.02-0.48-2.66-1.3c-0.64-0.82-0.87-1.89-0.62-2.9l0.13-0.4c0.61-1.6,2.32-2.49,3.98-2.07
		c1.66,0.41,2.75,2,2.54,3.7C9.38,17.38,7.94,18.66,6.23,18.66L6.23,18.66z M10.41,12.9l-0.02-1.27h3.18l0.01,1.27H10.41z
		 M17.77,18.66c-0.96,0-1.88-0.41-2.52-1.12c-0.64-0.72-0.95-1.67-0.85-2.63c0.02-0.05,0.03-0.1,0.03-0.16l0-0.05
		c0.26-1.51,1.49-2.66,3.02-2.8c1.52-0.14,2.96,0.75,3.49,2.18l0.08,0.23c0.3,1.02,0.1,2.13-0.54,2.98S18.84,18.66,17.77,18.66
		L17.77,18.66z"/>
	<path d="M6.23,13.43c-1.02,0-1.84,0.82-1.84,1.84s0.82,1.84,1.84,1.84c1.02,0,1.84-0.82,1.84-1.84
		C8.07,14.25,7.24,13.43,6.23,13.43z M6.23,16.27c-0.55,0-1-0.45-1-1s0.45-1,1-1s1,0.45,1,1C7.23,15.82,6.78,16.27,6.23,16.27z"/>
	<path d="M17.77,13.43c-1.02,0-1.84,0.82-1.84,1.84s0.82,1.84,1.84,1.84c1.02,0,1.84-0.82,1.84-1.84
		C19.61,14.25,18.79,13.43,17.77,13.43z M17.77,16.27c-0.55,0-1-0.45-1-1s0.45-1,1-1c0.55,0,1,0.45,1,1
		C18.77,15.82,18.33,16.27,17.77,16.27z"/>
</g>
</svg>
