<svg width="20" height="20" viewBox="0 0 20 20" fill="none" xmlns="http://www.w3.org/2000/svg">
<path d="M16.83 3.94C16.62 3.94 16.44 4.11 16.44 4.33C16.44 4.55 16.61 4.72 16.83 4.72C17.04 4.72 17.22 4.55 17.22 4.33C17.22 4.11 17.05 3.94 16.83 3.94Z" fill="#3F51B5"/>
<path d="M3.17 3.94C2.96 3.94 2.78 4.11 2.78 4.33C2.78 4.55 2.95 4.72 3.17 4.72C3.38 4.72 3.56 4.55 3.56 4.33C3.56 4.11 3.38 3.94 3.17 3.94Z" fill="#3F51B5"/>
<path d="M19.55 8.60001H19.09C18.94 7.48001 18.59 6.42001 18.04 5.43001C17.94 5.24001 17.7 5.18001 17.51 5.28001C17.32 5.38001 17.26 5.62001 17.36 5.81001C17.85 6.68001 18.16 7.62001 18.3 8.60001H18C17.79 8.60001 17.61 8.77001 17.61 8.99001V10.54C17.61 10.75 17.78 10.93 18 10.93H19.55C19.76 10.93 19.94 10.76 19.94 10.54V8.99001C19.94 8.78001 19.77 8.60001 19.55 8.60001ZM19.16 10.16H18.38V9.38001H18.73H19.15V10.16H19.16Z" fill="#3F51B5"/>
<path d="M14.27 11.42C14.27 11.41 14.27 11.41 14.27 11.4C14.27 11.39 14.27 11.38 14.27 11.38V11.37C14.27 11.36 14.27 11.35 14.26 11.34V11.33C14.26 11.32 14.25 11.31 14.25 11.3C14.24 11.29 14.24 11.27 14.23 11.26L10.35 4.15001C10.28 4.03001 10.15 3.95001 10.01 3.95001C9.87 3.95001 9.74 4.03001 9.67 4.15001L5.79 11.26C5.78 11.27 5.78 11.28 5.77 11.3C5.77 11.31 5.76 11.32 5.76 11.33V11.34C5.76 11.35 5.76 11.36 5.75 11.37V11.38C5.75 11.39 5.75 11.4 5.75 11.4C5.75 11.41 5.75 11.41 5.75 11.42V11.43V11.44C5.75 11.45 5.75 11.45 5.75 11.46C5.75 11.47 5.75 11.48 5.75 11.48C5.75 11.49 5.75 11.49 5.75 11.5C5.75 11.51 5.75 11.52 5.76 11.52V11.53C5.76 11.54 5.77 11.55 5.77 11.56C5.77 11.56 5.77 11.56 5.77 11.57L7.17 15.28C7.06 15.34 6.95 15.41 6.86 15.5C6.64 15.72 6.52 16.01 6.52 16.32C6.52 16.83 6.84 17.26 7.3 17.42V19.54C7.3 19.75 7.47 19.93 7.69 19.93H12.35C12.56 19.93 12.74 19.76 12.74 19.54V17.42C12.9 17.36 13.05 17.27 13.18 17.14C13.4 16.92 13.52 16.63 13.52 16.32C13.52 15.86 13.26 15.47 12.87 15.28L14.27 11.57C14.27 11.57 14.27 11.57 14.27 11.56C14.27 11.55 14.28 11.54 14.28 11.53V11.52C14.28 11.51 14.28 11.5 14.29 11.5C14.29 11.49 14.29 11.49 14.29 11.48C14.29 11.47 14.29 11.46 14.29 11.46C14.29 11.45 14.29 11.45 14.29 11.44V11.43C14.27 11.43 14.27 11.43 14.27 11.42ZM10 11.05C10.21 11.05 10.39 11.22 10.39 11.44C10.39 11.66 10.22 11.83 10 11.83C9.78 11.83 9.61 11.66 9.61 11.44C9.61 11.22 9.79 11.05 10 11.05ZM11.94 19.16H8.06V17.49H11.94V19.16V19.16ZM12.6 16.6C12.53 16.67 12.43 16.71 12.33 16.71H7.67C7.46 16.71 7.28 16.54 7.28 16.32C7.28 16.22 7.32 16.12 7.39 16.05C7.46 15.98 7.56 15.94 7.66 15.94H12.32C12.53 15.94 12.71 16.11 12.71 16.33C12.72 16.43 12.68 16.53 12.6 16.6ZM12.06 15.16H7.94L6.68 11.82H7.67C7.88 11.82 8.06 11.65 8.06 11.43C8.06 11.21 7.89 11.04 7.67 11.04H6.77L9.61 5.84001V10.33C9.16 10.49 8.83 10.92 8.83 11.43C8.83 12.07 9.35 12.59 9.99 12.59C10.63 12.59 11.15 12.07 11.15 11.43C11.15 10.92 10.83 10.49 10.37 10.33V5.85001L13.21 11.05H12.31C12.1 11.05 11.92 11.22 11.92 11.44C11.92 11.66 12.09 11.83 12.31 11.83H13.3L12.06 15.16Z" fill="#3F51B5"/>
<path d="M2.49 5.28C2.3 5.17 2.06 5.24 1.96 5.43C1.41 6.42 1.06 7.48 0.909998 8.6H0.449998C0.239998 8.6 0.0599976 8.77 0.0599976 8.99V10.54C0.0599976 10.75 0.229998 10.93 0.449998 10.93H2C2.21 10.93 2.39 10.76 2.39 10.54V8.99C2.39 8.78 2.21 8.6 2 8.6H1.69C1.83 7.62 2.15 6.68 2.63 5.81C2.74 5.62 2.67 5.38 2.49 5.28ZM1.61 10.16H0.839998V9.38H1.26H1.61V10.16V10.16Z" fill="#3F51B5"/>
<path d="M18.78 0.0599976C18.27 0.0599976 17.84 0.379998 17.68 0.839998H11.17V0.449998C11.17 0.239998 11 0.0599976 10.78 0.0599976H9.22C9.01 0.0599976 8.83 0.229998 8.83 0.449998V0.839998H2.32C2.16 0.389998 1.73 0.0599976 1.22 0.0599976C0.579998 0.0599976 0.0599976 0.579998 0.0599976 1.22C0.0599976 1.86 0.579998 2.38 1.22 2.38C1.73 2.38 2.16 2.06 2.32 1.6H6.22C5.4 1.96 4.64 2.41 4.01 2.94C3.85 3.07 3.83 3.32 3.97 3.48C4.05 3.57 4.16 3.62 4.27 3.62C4.36 3.62 4.45 3.59 4.52 3.53C5.63 2.59 7.22 1.92 8.84 1.69V2C8.84 2.21 9.01 2.39 9.23 2.39H10.78C10.99 2.39 11.17 2.22 11.17 2V1.69C12.79 1.91 14.38 2.59 15.49 3.53C15.56 3.59 15.65 3.62 15.74 3.62C15.85 3.62 15.96 3.57 16.04 3.48C16.18 3.32 16.16 3.07 15.99 2.93C15.36 2.4 14.61 1.95 13.78 1.61H17.68C17.84 2.06 18.27 2.39 18.78 2.39C19.42 2.39 19.94 1.87 19.94 1.23C19.94 0.589998 19.42 0.0599976 18.78 0.0599976ZM1.22 1.61C1.01 1.61 0.829998 1.44 0.829998 1.22C0.829998 0.999998 0.999998 0.829998 1.22 0.829998C1.44 0.829998 1.61 0.999998 1.61 1.22C1.61 1.44 1.44 1.61 1.22 1.61ZM10.39 1.22V1.25V1.6H9.61V1.26V1.22V0.839998H10.39V1.22V1.22ZM18.78 1.61C18.57 1.61 18.39 1.44 18.39 1.22C18.39 0.999998 18.56 0.829998 18.78 0.829998C18.99 0.829998 19.17 0.999998 19.17 1.22C19.17 1.44 18.99 1.61 18.78 1.61Z" fill="#3F51B5"/>
</svg>
