<?xml version="1.0" encoding="utf-8"?>
<!-- Generator: Adobe Illustrator 24.0.0, SVG Export Plug-In . SVG Version: 6.00 Build 0)  -->
<svg version="1.1" id="Layer_1" xmlns="http://www.w3.org/2000/svg" xmlns:xlink="http://www.w3.org/1999/xlink" x="0px" y="0px"
	 viewBox="0 0 16 16" style="enable-background:new 0 0 16 16;" xml:space="preserve">
<style type="text/css">
	.st0{fill:#3C5A99;}
	.st1{fill-rule:evenodd;clip-rule:evenodd;fill:#FFFFFF;}
</style>
<g>
	<ellipse transform="matrix(0.2298 -0.9732 0.9732 0.2298 -1.624 13.948)" class="st0" cx="8" cy="8" rx="8" ry="8"/>
	<path class="st1" d="M6.67,8.09v4.9c0,0.07,0.06,0.13,0.13,0.13h1.82c0.07,0,0.13-0.06,0.13-0.13V8.01h1.32
		c0.07,0,0.12-0.05,0.13-0.12l0.13-1.5c0.01-0.07-0.05-0.14-0.13-0.14H8.75V5.19c0-0.25,0.2-0.45,0.45-0.45h1.02
		c0.07,0,0.13-0.06,0.13-0.13v-1.5c0-0.07-0.06-0.13-0.13-0.13H8.5c-1.01,0-1.83,0.82-1.83,1.83v1.45H5.76
		c-0.07,0-0.13,0.06-0.13,0.13v1.5c0,0.07,0.06,0.13,0.13,0.13h0.91V8.09z"/>
</g>
</svg>
