<?xml version="1.0" encoding="utf-8"?>
<!-- Generator: Adobe Illustrator 24.0.0, SVG Export Plug-In . SVG Version: 6.00 Build 0)  -->
<svg version="1.1" id="Layer_1" xmlns="http://www.w3.org/2000/svg" xmlns:xlink="http://www.w3.org/1999/xlink" x="0px" y="0px"
	 viewBox="0 0 36.38 36.38" style="enable-background:new 0 0 36.38 36.38;" xml:space="preserve">
<style type="text/css">
	.st0{fill:#5F6368;}
</style>
<path class="st0" d="M20.92,26.37h1.82v-1.82h-1.82V26.37z M24.56,15.46h1.82v-1.82h-1.82V15.46z M10.01,11.83v12.73
	c0,1,0.82,1.82,1.82,1.82h3.64v-1.82h-3.64V11.83h3.64v-1.82h-3.64C10.83,10.01,10.01,10.83,10.01,11.83z M24.56,10.01v1.82h1.82
	C26.37,10.83,25.56,10.01,24.56,10.01z M17.28,28.19h1.82v-20h-1.82V28.19z M24.56,22.74h1.82v-1.82h-1.82V22.74z M20.92,11.83h1.82
	v-1.82h-1.82V11.83z M24.56,19.1h1.82v-1.82h-1.82V19.1z M24.56,26.37c1,0,1.82-0.82,1.82-1.82h-1.82V26.37z"/>
</svg>
