<?xml version="1.0" encoding="utf-8"?>
<!-- Generator: Adobe Illustrator 24.0.0, SVG Export Plug-In . SVG Version: 6.00 Build 0)  -->
<svg version="1.1" id="Layer_1" xmlns="http://www.w3.org/2000/svg" xmlns:xlink="http://www.w3.org/1999/xlink" x="0px" y="0px"
	 viewBox="0 0 40 40" style="enable-background:new 0 0 40 40;" xml:space="preserve">
<style type="text/css">
	.st0{fill:#E4E6EB;}
	.st1{fill:#4B4B4B;}
</style>
<circle class="st0" cx="20" cy="20" r="18.22"/>
<g>
	<g>
		<path class="st1" d="M20.83,25c0,0.46-0.37,0.83-0.83,0.83s-0.83-0.37-0.83-0.83s0.37-0.83,0.83-0.83S20.83,24.54,20.83,25z"/>
		<path class="st1" d="M20,30c-5.51,0-10-4.49-10-10s4.49-10,10-10s10,4.49,10,10S25.51,30,20,30z M20,11.25
			c-4.82,0-8.75,3.93-8.75,8.75s3.93,8.75,8.75,8.75s8.75-3.93,8.75-8.75S24.82,11.25,20,11.25z"/>
		<path class="st1" d="M20,22.29c-0.35,0-0.63-0.28-0.63-0.63v-0.84c0-0.79,0.5-1.5,1.25-1.77c1-0.35,1.67-1.41,1.67-2.18
			c0-1.26-1.03-2.29-2.29-2.29s-2.29,1.03-2.29,2.29c0,0.35-0.28,0.63-0.63,0.63s-0.63-0.28-0.63-0.63c0-1.95,1.59-3.54,3.54-3.54
			s3.54,1.59,3.54,3.54c0,1.39-1.1,2.87-2.5,3.36c-0.25,0.09-0.42,0.32-0.42,0.59v0.84C20.63,22.01,20.35,22.29,20,22.29z"/>
	</g>
</g>
</svg>
