<?xml version="1.0" encoding="utf-8"?>
<!-- Generator: Adobe Illustrator 24.0.0, SVG Export Plug-In . SVG Version: 6.00 Build 0)  -->
<svg version="1.1" id="Layer_1" xmlns="http://www.w3.org/2000/svg" xmlns:xlink="http://www.w3.org/1999/xlink" x="0px" y="0px"
	 viewBox="0 0 24 24" style="enable-background:new 0 0 24 24;" xml:space="preserve">
<g>
	<g>
		<path d="M22.07,11.76c0.37-0.41,0.34-1.04-0.08-1.41l-9.23-8.08c-0.42-0.37-1.09-0.36-1.5,0.02l-9.26,8.49
			c-0.41,0.38-0.43,1.01-0.04,1.41l0.23,0.24c0.39,0.4,1.01,0.45,1.39,0.11l0.69-0.62v9.08c0,0.56,0.45,1.01,1.01,1.01h3.61
			c0.56,0,1.01-0.45,1.01-1.01v-6.35h4.61v6.35C14.49,21.55,14.89,22,15.44,22h3.83c0.56,0,1.01-0.45,1.01-1.01v-8.95
			c0,0,0.19,0.17,0.43,0.37c0.24,0.21,0.73,0.04,1.1-0.37L22.07,11.76z"/>
	</g>
</g>
</svg>
