<?xml version="1.0" encoding="utf-8"?>
<!-- Generator: Adobe Illustrator 24.0.0, SVG Export Plug-In . SVG Version: 6.00 Build 0)  -->
<svg version="1.1" id="Layer_1" xmlns="http://www.w3.org/2000/svg" xmlns:xlink="http://www.w3.org/1999/xlink" x="0px" y="0px"
	 viewBox="0 0 16 16" style="enable-background:new 0 0 16 16;" xml:space="preserve">
<style type="text/css">
	.st0{fill:url(#SVGID_1_);}
	.st1{fill:#FFFFFF;}
</style>
<g>
	<linearGradient id="SVGID_1_" gradientUnits="userSpaceOnUse" x1="1.1782" y1="14.8218" x2="18.467" y2="-2.467">
		<stop  offset="1.104800e-03" style="stop-color:#FBE18A"/>
		<stop  offset="0.2094" style="stop-color:#FCBB45"/>
		<stop  offset="0.3765" style="stop-color:#F75274"/>
		<stop  offset="0.5238" style="stop-color:#D53692"/>
		<stop  offset="0.7394" style="stop-color:#8F39CE"/>
		<stop  offset="1" style="stop-color:#5B4FE9"/>
	</linearGradient>
	<circle class="st0" cx="8" cy="8" r="8"/>
	<g>
		<circle class="st1" cx="10.83" cy="5.21" r="0.62"/>
		<path class="st1" d="M8.07,5.39C6.63,5.39,5.46,6.56,5.46,8s1.17,2.61,2.61,2.61S10.68,9.44,10.68,8S9.51,5.39,8.07,5.39z
			 M8.07,9.67C7.15,9.67,6.4,8.92,6.4,8c0-0.92,0.75-1.67,1.67-1.67S9.74,7.08,9.74,8C9.74,8.92,8.99,9.67,8.07,9.67z"/>
		<g>
			<path class="st1" d="M10.14,13.3H5.91c-1.76,0-3.18-1.43-3.18-3.18V5.88c0-1.76,1.43-3.18,3.18-3.18h4.23
				c1.76,0,3.18,1.43,3.18,3.18v4.23C13.33,11.87,11.9,13.3,10.14,13.3z M5.91,3.7c-1.21,0-2.19,0.98-2.19,2.19v4.23
				c0,1.21,0.98,2.19,2.19,2.19h4.23c1.21,0,2.19-0.98,2.19-2.19V5.88c0-1.21-0.98-2.19-2.19-2.19H5.91z"/>
		</g>
	</g>
</g>
</svg>
