<?xml version="1.0" encoding="utf-8"?>
<!-- Generator: Adobe Illustrator 24.0.0, SVG Export Plug-In . SVG Version: 6.00 Build 0)  -->
<svg version="1.1" id="Layer_1" xmlns="http://www.w3.org/2000/svg" xmlns:xlink="http://www.w3.org/1999/xlink" x="0px" y="0px"
	 viewBox="0 0 24 24" style="enable-background:new 0 0 24 24;" xml:space="preserve">
<style type="text/css">
	.st0{fill:#5F6368;}
</style>
<g>
	<path class="st0" d="M20.3,13.69c0.32,0,0.59-0.26,0.59-0.59v-2.22c0-0.32-0.26-0.59-0.59-0.59c-0.32,0-0.59,0.26-0.59,0.59v2.22
		C19.71,13.42,19.97,13.69,20.3,13.69z"/>
	<path class="st0" d="M14.03,15.48V10.1h1.03l1.64,1.99c0.16,0.19,0.42,0.26,0.65,0.18c0.23-0.08,0.39-0.31,0.39-0.55v-5
		c0-0.32-0.26-0.59-0.59-0.59H6.84c-0.32,0-0.59,0.26-0.59,0.59v5c0,0.25,0.16,0.47,0.39,0.55c0.23,0.08,0.49,0.01,0.65-0.18
		l1.64-1.99h1.03v5.38l-1.03,1.55c-0.12,0.18-0.13,0.41-0.03,0.6c0.1,0.19,0.3,0.31,0.52,0.31h5.15c0.22,0,0.41-0.12,0.52-0.31
		c0.1-0.19,0.09-0.42-0.03-0.6L14.03,15.48z M10.52,16.77l0.52-0.78c0.06-0.1,0.1-0.21,0.1-0.33V9.52c0-0.32-0.26-0.59-0.59-0.59
		H8.66c-0.17,0-0.34,0.08-0.45,0.21l-0.78,0.94V7.3h9.13v2.78l-0.78-0.94c-0.11-0.14-0.28-0.21-0.45-0.21h-1.89
		c-0.32,0-0.59,0.26-0.59,0.59v6.14c0,0.12,0.03,0.23,0.1,0.33l0.52,0.78H10.52z"/>
	<path class="st0" d="M13.1,19.8h-2.21c-0.32,0-0.59,0.26-0.59,0.59c0,0.32,0.26,0.59,0.59,0.59h2.21c0.32,0,0.59-0.26,0.59-0.59
		C13.68,20.06,13.42,19.8,13.1,19.8z"/>
	<path class="st0" d="M21.41,2h-2.18c-0.32,0-0.59,0.26-0.59,0.59v0.51H5.35V2.59C5.35,2.26,5.09,2,4.77,2H2.59
		C2.26,2,2,2.26,2,2.59v2.19C2,5.1,2.26,5.36,2.59,5.36h0.5v13.27h-0.5C2.26,18.64,2,18.9,2,19.22v2.19C2,21.74,2.26,22,2.59,22
		h2.18c0.32,0,0.59-0.26,0.59-0.59v-0.44h2.08c0.32,0,0.59-0.26,0.59-0.59S7.76,19.8,7.43,19.8H5.35v-0.57
		c0-0.32-0.26-0.59-0.59-0.59h-0.5V5.36h0.5c0.32,0,0.59-0.26,0.59-0.59V4.27h13.3v0.51c0,0.32,0.26,0.59,0.59,0.59h0.48v2.05
		C19.71,7.74,19.97,8,20.3,8c0.32,0,0.59-0.26,0.59-0.59V5.36h0.53C21.74,5.36,22,5.1,22,4.78V2.59C22,2.26,21.74,2,21.41,2L21.41,2
		z M4.18,20.82H3.17v-1.01h1.01V20.82z M4.18,4.19H3.17V3.18h1.01V4.19z M19.82,3.18h1.01v1.01h-1.01V3.18z"/>
	<path class="st0" d="M21.41,18.64h-0.53v-2.07c0-0.32-0.26-0.59-0.59-0.59c-0.32,0-0.59,0.26-0.59,0.59v2.07h-0.48
		c-0.32,0-0.59,0.26-0.59,0.59v0.57h-2.09c-0.32,0-0.59,0.26-0.59,0.59s0.26,0.59,0.59,0.59h2.09v0.44c0,0.32,0.26,0.59,0.59,0.59
		h2.18c0.32,0,0.59-0.26,0.59-0.59v-2.19C22,18.9,21.74,18.64,21.41,18.64L21.41,18.64z M20.83,20.82h-1.01v-1.01h1.01V20.82z"/>
</g>
</svg>
