<?xml version="1.0" encoding="utf-8"?>
<!-- Generator: Adobe Illustrator 24.0.0, SVG Export Plug-In . SVG Version: 6.00 Build 0)  -->
<svg version="1.1" id="Layer_1" xmlns="http://www.w3.org/2000/svg" xmlns:xlink="http://www.w3.org/1999/xlink" x="0px" y="0px"
	 viewBox="0 0 24 24" style="enable-background:new 0 0 24 24;" xml:space="preserve">
<g>
	<path d="M16.13,2H3.16C2.52,2,2,2.52,2,3.16v12.97c0,0.64,0.52,1.16,1.16,1.16h2.92v-2.31H4.31V4.31h10.66v1.77h2.31V3.16
		C17.28,2.52,16.76,2,16.13,2z"/>
	<path d="M14.36,6.72c-4.21,0-7.64,3.43-7.64,7.64S10.14,22,14.36,22S22,18.57,22,14.36S18.57,6.72,14.36,6.72z M19.69,14.36
		c0,2.94-2.39,5.33-5.33,5.33s-5.33-2.39-5.33-5.33s2.39-5.33,5.33-5.33S19.69,11.42,19.69,14.36z"/>
</g>
</svg>
