<?xml version="1.0" encoding="utf-8"?>
<!-- Generator: Adobe Illustrator 24.0.0, SVG Export Plug-In . SVG Version: 6.00 Build 0)  -->
<svg version="1.1" id="Layer_1" xmlns="http://www.w3.org/2000/svg" xmlns:xlink="http://www.w3.org/1999/xlink" x="0px" y="0px"
	 viewBox="0 0 24 24" style="enable-background:new 0 0 24 24;" xml:space="preserve">
<g>
	<g>
		<path d="M21.22,13.47V11c0.45-0.16,0.78-0.6,0.78-1.1c0-0.65-0.53-1.17-1.17-1.17h-6.46
			c0.22-0.27,0.47-0.63,0.62-0.93c0.37-0.75,0.76-1.88,0.52-3c-0.21-1.02-0.97-1.79-1.92-1.97c-0.48-0.09-0.84,0.03-1.12,0.15
			c0-0.25-0.04-0.49-0.13-0.71c-0.08-0.2-0.31-0.3-0.51-0.22c-0.2,0.08-0.3,0.31-0.22,0.51c0.06,0.16,0.08,0.33,0.07,0.49
			C10.27,2.61,9.48,3.04,9.06,3.5C8.62,3.97,8.4,4.68,8.42,5.54c0.01,0.75,0.21,1.55,0.55,2.25c0.15,0.3,0.4,0.66,0.62,0.93H6.77
			c-1.51,0-2.73,1.23-2.73,2.73v1.56c0,0.76,0.32,1.46,0.82,1.95H4.73C3.23,14.97,2,16.2,2,17.7v1.56C2,20.77,3.23,22,4.73,22H18.8
			c0.65,0,1.17-0.53,1.17-1.17c0-0.51-0.33-0.94-0.78-1.1v-2.48c0.45-0.16,0.78-0.6,0.78-1.1c0-0.14-0.02-0.27-0.07-0.39h0.93
			c0.65,0,1.17-0.53,1.17-1.17C22,14.07,21.67,13.63,21.22,13.47L21.22,13.47z M9.64,4.02c0.26-0.28,0.61-0.38,0.99-0.38
			c0.05,0,0.11,0,0.16,0.01c-0.02,0.03-0.03,0.06-0.04,0.09C10.68,3.94,10.79,4.16,11,4.23c0.16,0.05,0.31,0.07,0.44,0.07
			c0.42,0,0.7-0.21,0.91-0.37c0.1-0.08,0.2-0.15,0.3-0.2c0.01,0,0.02-0.01,0.03-0.01c0.24-0.11,0.46-0.2,0.76-0.14
			c0.64,0.12,1.15,0.66,1.3,1.36c0.19,0.91-0.14,1.86-0.45,2.5c-0.14,0.28-0.45,0.72-0.69,0.98c-0.15,0.16-0.34,0.25-0.43,0.23
			c-0.09-0.02-0.19-0.06-0.31-0.1c-0.23-0.09-0.52-0.2-0.88-0.2c-0.36,0-0.65,0.11-0.88,0.2c-0.12,0.05-0.22,0.09-0.31,0.1
			c-0.08,0.02-0.28-0.08-0.43-0.23c-0.25-0.26-0.56-0.7-0.69-0.98C9.13,6.34,8.97,4.76,9.64,4.02L9.64,4.02z M6.77,13.41
			c-0.21,0-0.39-0.18-0.39-0.39v-0.39h5.27c0.22,0,0.39-0.17,0.39-0.39c0-0.22-0.17-0.39-0.39-0.39H6.38v-0.39
			c0-0.21,0.18-0.39,0.39-0.39h13.67v0.78h-5.27c-0.22,0-0.39,0.17-0.39,0.39c0,0.22,0.17,0.39,0.39,0.39h5.27v0.78L6.77,13.41
			L6.77,13.41z M9.45,19.66v-0.78h8.96v0.78H9.45z M7.69,18.88h0.98v1.74l-0.33-0.15c-0.1-0.04-0.22-0.04-0.32,0l-0.33,0.15
			L7.69,18.88C7.69,18.88,7.69,18.88,7.69,18.88z M18.41,18.09H4.34V17.7c0-0.21,0.18-0.39,0.39-0.39h13.67V18.09z M4.34,18.88h2.56
			v0.78H4.73c-0.21,0-0.39-0.18-0.39-0.39V18.88z M18.8,21.22H9.45v-0.78h9.35c0.22,0,0.39,0.18,0.39,0.39S19.01,21.22,18.8,21.22z
			 M19.19,16.14c0,0.22-0.18,0.39-0.39,0.39H4.73c-0.65,0-1.17,0.53-1.17,1.17v1.56c0,0.65,0.53,1.17,1.17,1.17h2.17v0.78H4.73
			c-1.08,0-1.95-0.88-1.95-1.95V17.7c0-1.08,0.88-1.95,1.95-1.95h2.03H18.8C19.01,15.75,19.19,15.93,19.19,16.14z M20.83,14.97H6.77
			c-1.08,0-1.95-0.88-1.95-1.95v-1.56c0-1.08,0.88-1.95,1.95-1.95h14.06c0.22,0,0.39,0.18,0.39,0.39c0,0.22-0.18,0.39-0.39,0.39
			H6.77c-0.65,0-1.17,0.53-1.17,1.17v1.56c0,0.65,0.53,1.17,1.17,1.17h14.06c0.22,0,0.39,0.18,0.39,0.39
			C21.22,14.79,21.04,14.97,20.83,14.97z"/>
		<path d="M13.41,11.84L13.41,11.84c-0.22,0-0.39,0.17-0.39,0.39c0,0.22,0.18,0.39,0.39,0.39s0.39-0.17,0.39-0.39
			C13.8,12.02,13.62,11.84,13.41,11.84L13.41,11.84z"/>
	</g>
</g>
</svg>
