<svg width="18" height="18" viewBox="0 0 18 18" fill="none" xmlns="http://www.w3.org/2000/svg">
  <path d="M12.76 1.92999H12.73C10.68 1.92999 9.52999 3.42999 8.99999 4.44999C8.45999 3.42999 7.31999 1.92999 5.26999 1.92999H5.22999C3.00999 1.94999 1.15999 3.83999 1.04999 6.23999C0.909994 9.17999 3.24999 11.15 6.75999 14.14C7.36999 14.66 8.00999 15.21 8.68999 15.8L8.99999 16.07L9.30999 15.8C9.97999 15.21 10.63 14.66 11.24 14.14C14.75 11.16 17.09 9.17999 16.95 6.23999C16.84 3.83999 14.98 1.94999 12.76 1.92999Z" fill="#FF3636"/>
  <path d="M16.95 6.23999C17.09 9.17999 14.75 11.15 11.24 14.14C10.63 14.66 9.98 15.21 9.31 15.8L9 16.07V4.44999C9.53 3.42999 10.68 1.92999 12.73 1.92999H12.76C14.98 1.94999 16.84 3.83999 16.95 6.23999Z" fill="#F40000"/>
</svg>