<?xml version="1.0" encoding="utf-8"?>
<!-- Generator: Adobe Illustrator 24.0.0, SVG Export Plug-In . SVG Version: 6.00 Build 0)  -->
<svg version="1.1" id="Layer_1" xmlns="http://www.w3.org/2000/svg" xmlns:xlink="http://www.w3.org/1999/xlink" x="0px" y="0px"
	 viewBox="0 0 36.38 36.38" style="enable-background:new 0 0 36.38 36.38;" xml:space="preserve">
<style type="text/css">
	.st0{fill:#5F6368;}
</style>
<path class="st0" d="M23.91,14.86h-0.95v-1.9c0-2.63-2.13-4.76-4.76-4.76s-4.76,2.13-4.76,4.76v1.9h-0.95c-1.05,0-1.9,0.86-1.9,1.9
	v9.52c0,1.05,0.86,1.9,1.9,1.9h11.43c1.05,0,1.9-0.86,1.9-1.9v-9.52C25.81,15.72,24.95,14.86,23.91,14.86z M15.33,12.95
	c0-1.58,1.28-2.86,2.86-2.86c1.58,0,2.86,1.28,2.86,2.86v1.9h-5.71V12.95z M23.91,26.29H12.48v-9.52h11.43V26.29z M18.19,23.43
	c1.05,0,1.9-0.86,1.9-1.9c0-1.05-0.86-1.9-1.9-1.9c-1.05,0-1.9,0.86-1.9,1.9C16.29,22.57,17.14,23.43,18.19,23.43z"/>
</svg>
