<?xml version="1.0" encoding="utf-8"?>
<!-- Generator: Adobe Illustrator 24.0.0, SVG Export Plug-In . SVG Version: 6.00 Build 0)  -->
<svg version="1.1" id="Layer_1" xmlns="http://www.w3.org/2000/svg" xmlns:xlink="http://www.w3.org/1999/xlink" x="0px" y="0px"
	 viewBox="0 0 6 24" style="enable-background:new 0 0 6 24;" xml:space="preserve">
<style type="text/css">
	.st0{fill:#5F6368;}
</style>
<path class="st0" d="M3,8c1.1,0,2-0.9,2-2S4.1,4,3,4S1,4.9,1,6S1.9,8,3,8z M3,10c-1.1,0-2,0.9-2,2s0.9,2,2,2s2-0.9,2-2S4.1,10,3,10z
	 M3,16c-1.1,0-2,0.9-2,2s0.9,2,2,2s2-0.9,2-2S4.1,16,3,16z"/>
</svg>
