<?xml version="1.0" encoding="utf-8"?>
<!-- Generator: Adobe Illustrator 24.0.0, SVG Export Plug-In . SVG Version: 6.00 Build 0)  -->
<svg version="1.1" id="Layer_1" xmlns="http://www.w3.org/2000/svg" xmlns:xlink="http://www.w3.org/1999/xlink" x="0px" y="0px"
	 viewBox="0 0 20 20" style="enable-background:new 0 0 20 20;" xml:space="preserve">
<style type="text/css">
	.st0{fill:#5F6368;}
</style>
<path class="st0" d="M4.38,8.13C3.34,8.13,2.5,8.97,2.5,10s0.84,1.88,1.88,1.88S6.25,11.03,6.25,10S5.41,8.13,4.38,8.13z
	 M15.63,8.13c-1.03,0-1.88,0.84-1.88,1.88s0.84,1.88,1.88,1.88S17.5,11.03,17.5,10S16.66,8.13,15.63,8.13z M10,8.13
	c-1.03,0-1.88,0.84-1.88,1.88s0.84,1.88,1.88,1.88s1.88-0.84,1.88-1.88S11.03,8.13,10,8.13z"/>
</svg>
