<?xml version="1.0" encoding="utf-8"?>
<!-- Generator: Adobe Illustrator 24.0.0, SVG Export Plug-In . SVG Version: 6.00 Build 0)  -->
<svg version="1.1" id="Layer_1" xmlns="http://www.w3.org/2000/svg" xmlns:xlink="http://www.w3.org/1999/xlink" x="0px" y="0px"
	 viewBox="0 0 20 11.64" style="enable-background:new 0 0 20 11.64;" xml:space="preserve">
<g>
	<g>
		<path class="st0" d="M18.68,2.17c-0.72,0-1.31,0.59-1.31,1.31c0,0.28,0.09,0.55,0.25,0.76L13.4,6.93l-2.92-4.39
			c0.49-0.19,0.84-0.66,0.84-1.22C11.31,0.59,10.72,0,10,0C9.28,0,8.69,0.59,8.69,1.31c0,0.56,0.35,1.03,0.84,1.22L6.57,6.97
			l-4.2-2.72c0.15-0.22,0.25-0.48,0.25-0.76c0-0.72-0.59-1.31-1.31-1.31S0,2.76,0,3.48S0.59,4.8,1.31,4.8
			c0.14,0,0.27-0.03,0.39-0.07l3.21,5.09c0.07,0.11,0.2,0.19,0.33,0.19h9.5c0.14,0,0.26-0.07,0.33-0.19l3.21-5.09
			c0.13,0.04,0.26,0.07,0.39,0.07C19.41,4.8,20,4.21,20,3.48S19.41,2.17,18.68,2.17z M10,0.79c0.29,0,0.52,0.24,0.52,0.52
			c0,0.29-0.24,0.52-0.52,0.52S9.48,1.6,9.48,1.31C9.47,1.03,9.71,0.79,10,0.79z M0.79,3.48c0-0.29,0.23-0.52,0.52-0.52
			S1.84,3.2,1.84,3.48c0,0.29-0.23,0.52-0.52,0.52C1.02,4.01,0.79,3.77,0.79,3.48z M14.53,9.22H5.46L3.3,5.79l3.17,2.05
			C6.65,7.96,6.9,7.91,7.01,7.73L10,3.24l2.95,4.44c0.12,0.18,0.36,0.23,0.54,0.12l3.22-2.05L14.53,9.22z M18.68,4.01
			c-0.29,0-0.52-0.23-0.52-0.52c0-0.29,0.23-0.52,0.52-0.52c0.29,0,0.52,0.24,0.52,0.52C19.21,3.77,18.97,4.01,18.68,4.01z
			 M15.18,11.24c0,0.22-0.18,0.39-0.39,0.39H5.21c-0.22,0-0.39-0.18-0.39-0.39c0-0.22,0.18-0.39,0.39-0.39h9.57
			C15,10.85,15.18,11.03,15.18,11.24z"/>
	</g>
</g>
</svg>
