<?xml version="1.0" encoding="utf-8"?>
<!-- Generator: Adobe Illustrator 24.0.0, SVG Export Plug-In . SVG Version: 6.00 Build 0)  -->
<svg version="1.1" id="Layer_1" xmlns="http://www.w3.org/2000/svg" xmlns:xlink="http://www.w3.org/1999/xlink" x="0px" y="0px"
	 viewBox="0 0 16 16" style="enable-background:new 0 0 16 16;" xml:space="preserve">
<style type="text/css">
	.st0{fill-rule:evenodd;clip-rule:evenodd;fill:#606060;}
	.st1{fill:#606060;}
</style>
<g>
	<g>
		<g>
			<path class="st0" d="M16,8c0-4.41-3.59-8-8-8C3.59,0,0,3.59,0,8s3.59,8,8,8C12.41,16,16,12.41,16,8z M1.22,8
				c0-3.74,3.04-6.78,6.78-6.78S14.78,4.26,14.78,8S11.74,14.78,8,14.78C4.26,14.78,1.22,11.74,1.22,8z"/>
		</g>
	</g>
	<g>
		<g>
			<path class="st1" d="M11.46,6.35H4.54c-0.27,0-0.49-0.22-0.49-0.49c0-0.27,0.22-0.49,0.49-0.49h6.91c0.27,0,0.49,0.22,0.49,0.49
				C11.95,6.13,11.73,6.35,11.46,6.35z"/>
		</g>
		<g>
			<path class="st1" d="M8.82,11.29c-0.15,0-0.31-0.07-0.4-0.21L8,10.49l-0.42,0.59c-0.16,0.22-0.47,0.27-0.69,0.12
				c-0.22-0.16-0.27-0.47-0.12-0.69L7.6,9.36c0.18-0.26,0.62-0.26,0.8,0l0.82,1.15c0.16,0.22,0.11,0.53-0.12,0.69
				C9.02,11.26,8.92,11.29,8.82,11.29L8.82,11.29z"/>
		</g>
		<g>
			<path class="st1" d="M8,6.35c-0.27,0-0.49-0.22-0.49-0.49V5.2c0-0.27,0.22-0.49,0.49-0.49c0.27,0,0.49,0.22,0.49,0.49v0.66
				C8.49,6.13,8.27,6.35,8,6.35z"/>
		</g>
		<g>
			<path class="st1" d="M10.47,9.97H5.53c-0.45,0-0.82-0.37-0.82-0.82V5.86c0-0.27,0.22-0.49,0.49-0.49c0.27,0,0.49,0.22,0.49,0.49
				v3.13h4.61V5.86c0-0.27,0.22-0.49,0.49-0.49s0.49,0.22,0.49,0.49v3.29C11.29,9.6,10.92,9.97,10.47,9.97z"/>
		</g>
	</g>
</g>
</svg>
