<?xml version="1.0" encoding="utf-8"?>
<!-- Generator: Adobe Illustrator 24.0.0, SVG Export Plug-In . SVG Version: 6.00 Build 0)  -->
<svg version="1.1" id="Layer_1" xmlns="http://www.w3.org/2000/svg" xmlns:xlink="http://www.w3.org/1999/xlink" x="0px" y="0px"
	 viewBox="0 0 24 24" style="enable-background:new 0 0 24 24;" xml:space="preserve">
<path d="M3.79,13.97l2.58,2.59v2.21l-3.69-3.7c-0.91-0.91-0.91-2.4,0-3.31L12.43,2H22v8.79
	c-0.2-0.14-0.42-0.27-0.65-0.39c-0.28-0.14-0.59-0.26-0.91-0.36V3.56h-7.36l-9.28,9.3C3.49,13.17,3.49,13.66,3.79,13.97z
	 M16.37,6.84c0,0.43,0.35,0.78,0.78,0.78c0.43,0,0.78-0.35,0.78-0.78s-0.35-0.78-0.78-0.78S16.37,6.41,16.37,6.84z M22,13.72
	L22,13.72l0,5.94c0,0.73-0.48,1.37-1.35,1.8c-0.7,0.35-1.61,0.54-2.56,0.54s-1.86-0.19-2.56-0.54c-0.21-0.11-0.4-0.22-0.57-0.35
	c-0.16,0.13-0.35,0.25-0.57,0.35C13.71,21.81,12.8,22,11.84,22s-1.86-0.19-2.56-0.54c-0.87-0.43-1.35-1.07-1.35-1.8v-3.05h0
	c0-0.01,0-0.03,0-0.04c0-0.73,0.48-1.37,1.35-1.8c0.7-0.35,1.61-0.54,2.56-0.54c0.85,0,1.68,0.16,2.34,0.46v-0.97h0
	c0-0.04,0-0.08,0-0.12c0-0.73,0.48-1.37,1.35-1.8c0.7-0.35,1.61-0.54,2.56-0.54s1.86,0.19,2.56,0.54c0.87,0.43,1.35,1.07,1.35,1.8
	C22,13.64,22,13.68,22,13.72z M15.75,13.6c0,0.03,0.08,0.21,0.48,0.41c0.48,0.24,1.15,0.38,1.86,0.38s1.38-0.14,1.86-0.38
	c0.4-0.2,0.48-0.38,0.48-0.41s-0.08-0.21-0.48-0.41c-0.48-0.24-1.15-0.38-1.86-0.38s-1.38,0.14-1.86,0.38
	C15.83,13.4,15.75,13.57,15.75,13.6z M9.5,16.57c0,0.03,0.08,0.21,0.48,0.41c0.48,0.24,1.15,0.38,1.86,0.38
	c0.71,0,1.4-0.13,1.87-0.36c0.39-0.19,0.47-0.36,0.47-0.38c0-0.05-0.12-0.24-0.49-0.43c-0.48-0.25-1.15-0.39-1.85-0.39
	c-0.71,0-1.38,0.14-1.86,0.38C9.58,16.36,9.5,16.54,9.5,16.57z M14.19,19.66v-1.17c-0.64,0.27-1.44,0.42-2.34,0.42
	c-0.86,0-1.68-0.16-2.34-0.44v1.18c0,0.03,0.08,0.21,0.48,0.41c0.48,0.24,1.15,0.38,1.86,0.38s1.38-0.14,1.86-0.38
	C14.1,19.86,14.19,19.68,14.19,19.66z M20.44,19.66v-1.18c-0.66,0.29-1.49,0.44-2.34,0.44s-1.68-0.16-2.34-0.44v1.18
	c0,0.03,0.08,0.21,0.48,0.41c0.48,0.24,1.15,0.38,1.86,0.38s1.38-0.14,1.86-0.38C20.35,19.86,20.44,19.68,20.44,19.66z M20.44,16.57
	V15.5c-0.66,0.29-1.49,0.44-2.34,0.44s-1.68-0.16-2.34-0.44v1.07c0,0.03,0.08,0.21,0.48,0.41c0.48,0.24,1.15,0.38,1.86,0.38
	s1.38-0.14,1.86-0.38C20.35,16.78,20.44,16.6,20.44,16.57z"/>
</svg>
