<?xml version="1.0" encoding="utf-8"?>
<!-- Generator: Adobe Illustrator 24.0.0, SVG Export Plug-In . SVG Version: 6.00 Build 0)  -->
<svg version="1.1" id="Layer_1" xmlns="http://www.w3.org/2000/svg" xmlns:xlink="http://www.w3.org/1999/xlink" x="0px" y="0px"
	 viewBox="0 0 36.38 36.38" style="enable-background:new 0 0 36.38 36.38;" xml:space="preserve">
<style type="text/css">
	.st0{fill:#5F6368;}
</style>
<path class="st0" d="M14.42,26.1c-2.73-1.3-4.68-3.94-4.98-7.08H8.19c0.43,5.13,4.72,9.17,9.96,9.17c0.19,0,0.37-0.02,0.55-0.03
	l-3.17-3.18L14.42,26.1z M18.23,8.19c-0.19,0-0.37,0.02-0.55,0.03l3.17,3.17l1.11-1.11c2.72,1.29,4.67,3.93,4.98,7.07h1.25
	C27.77,12.22,23.47,8.19,18.23,8.19z M21.52,19.86h1.67v-5c0-0.93-0.75-1.67-1.67-1.67h-5v1.67h5V19.86z M14.86,21.52v-10h-1.67
	v1.67h-1.67v1.67h1.67v6.67c0,0.92,0.74,1.67,1.67,1.67h6.67v1.67h1.67v-1.67h1.67v-1.67H14.86z"/>
</svg>
