<?xml version="1.0" encoding="utf-8"?>
<!-- Generator: Adobe Illustrator 24.0.0, SVG Export Plug-In . SVG Version: 6.00 Build 0)  -->
<svg version="1.1" id="Layer_1" xmlns="http://www.w3.org/2000/svg" xmlns:xlink="http://www.w3.org/1999/xlink" x="0px" y="0px"
	 viewBox="0 0 36.38 36.38" style="enable-background:new 0 0 36.38 36.38;" xml:space="preserve">
<style type="text/css">
	.st0{fill:#5F6368;}
</style>
<path class="st0" d="M14.34,13.51l-6.1,6.11l6.11,6.1l6.11-6.1L14.34,13.51z M10.9,19.62l3.45-3.45l3.44,3.45l-3.45,3.45L10.9,19.62
	z M25.66,13.73c-1.65-1.66-3.82-2.49-5.99-2.49V8.19l-3.99,3.99l3.99,3.99v-3.05c1.69,0,3.37,0.64,4.66,1.93
	c2.57,2.57,2.57,6.75,0,9.32c-1.29,1.29-2.98,1.93-4.66,1.93c-0.91,0-1.83-0.2-2.67-0.57l-1.4,1.4c1.27,0.7,2.67,1.05,4.08,1.05
	c2.17,0,4.34-0.83,5.99-2.49C28.97,22.4,28.97,17.03,25.66,13.73z"/>
</svg>
