<?xml version="1.0" encoding="utf-8"?>
<!-- Generator: Adobe Illustrator 24.0.0, SVG Export Plug-In . SVG Version: 6.00 Build 0)  -->
<svg version="1.1" id="Layer_1" xmlns="http://www.w3.org/2000/svg" xmlns:xlink="http://www.w3.org/1999/xlink" x="0px" y="0px"
	 viewBox="0 0 36.38 36.38" style="enable-background:new 0 0 36.38 36.38;" xml:space="preserve">
<style type="text/css">
	.st0{fill:#5F6368;}
</style>
<path class="st0" d="M12.99,16.15l-1.49-1.5c-0.95,1.23-1.54,2.64-1.72,4.11h2.13C12.06,17.84,12.43,16.94,12.99,16.15z
	 M11.91,20.87H9.78c0.18,1.47,0.76,2.88,1.71,4.11l1.49-1.5C12.43,22.69,12.06,21.8,11.91,20.87z M12.98,26.49
	c1.23,0.95,2.65,1.52,4.12,1.7v-2.14c-0.92-0.16-1.81-0.52-2.6-1.09L12.98,26.49z M19.21,11.44V8.19L14.4,13l4.81,4.7v-4.13
	c3,0.51,5.28,3.11,5.28,6.24s-2.28,5.74-5.28,6.24v2.13c4.17-0.52,7.4-4.07,7.4-8.38S23.38,11.95,19.21,11.44z"/>
</svg>
