<?xml version="1.0" encoding="utf-8"?>
<!-- Generator: Adobe Illustrator 24.0.0, SVG Export Plug-In . SVG Version: 6.00 Build 0)  -->
<svg version="1.1" id="Layer_1" xmlns="http://www.w3.org/2000/svg" xmlns:xlink="http://www.w3.org/1999/xlink" x="0px" y="0px"
	 viewBox="0 0 36.38 36.38" style="enable-background:new 0 0 36.38 36.38;" xml:space="preserve">
<style type="text/css">
	.st0{fill:#5F6368;}
</style>
<path class="st0" d="M21.98,13l-4.81-4.81v3.24c-4.16,0.52-7.4,4.07-7.4,8.38s3.22,7.86,7.4,8.38v-2.13c-3-0.51-5.28-3.11-5.28-6.24
	s2.28-5.74,5.28-6.24v4.13L21.98,13z M26.61,18.76c-0.18-1.47-0.76-2.88-1.71-4.11l-1.5,1.5c0.57,0.79,0.93,1.69,1.08,2.61H26.61z
	 M19.28,26.05v2.13c1.47-0.18,2.89-0.75,4.12-1.7l-1.52-1.52C21.09,25.53,20.2,25.9,19.28,26.05z M23.39,23.49l1.5,1.49
	c0.95-1.23,1.53-2.64,1.71-4.11h-2.13C24.32,21.79,23.97,22.69,23.39,23.49z"/>
</svg>
