<?xml version="1.0" encoding="utf-8"?>
<!-- Generator: Adobe Illustrator 24.0.0, SVG Export Plug-In . SVG Version: 6.00 Build 0)  -->
<svg version="1.1" id="Layer_1" xmlns="http://www.w3.org/2000/svg" xmlns:xlink="http://www.w3.org/1999/xlink" x="0px" y="0px"
	 viewBox="0 0 24 24" style="enable-background:new 0 0 24 24;" xml:space="preserve">
<style type="text/css">
	.st0{fill:#B2B9E1;}
	.st1{fill:#8B748E;}
</style>
<g>
	<path class="st0" d="M34,516.33L34,516.33c0.32,0,0.59-0.26,0.59-0.58c0-1.92,0.76-3.73,2.12-5.09c0.23-0.23,0.23-0.6,0-0.83
		c-0.23-0.23-0.6-0.23-0.83,0c-1.58,1.58-2.46,3.68-2.46,5.92C33.42,516.07,33.68,516.33,34,516.33L34,516.33z"/>
	<path class="st0" d="M49.04,515.75c0,0.32,0.26,0.58,0.59,0.58h0c0.32,0,0.59-0.26,0.58-0.59c0-2.24-0.88-4.34-2.46-5.92
		c-0.23-0.23-0.6-0.23-0.83,0c-0.23,0.23-0.23,0.6,0,0.83C48.29,512.02,49.04,513.83,49.04,515.75L49.04,515.75z"/>
	<path class="st0" d="M43.26,522.85c-0.96,0.19-1.93,0.19-2.89,0c-0.32-0.06-0.63,0.14-0.69,0.46c-0.06,0.32,0.14,0.63,0.46,0.69
		c0.56,0.11,1.12,0.17,1.68,0.17c0.56,0,1.12-0.06,1.68-0.17c0.32-0.06,0.52-0.37,0.46-0.69C43.89,522.99,43.58,522.78,43.26,522.85
		z"/>
	<path class="st0" d="M45.19,510.79l-0.36-1.46c-0.16-0.66-0.62-1.18-1.21-1.44c0.22-0.34,0.34-0.73,0.34-1.16
		c0-1.18-0.96-2.15-2.15-2.15c-1.18,0-2.15,0.96-2.15,2.15c0,0.43,0.13,0.83,0.34,1.16c-0.59,0.26-1.04,0.78-1.21,1.44l-0.36,1.46
		c-0.07,0.29-0.01,0.6,0.18,0.84c0.19,0.24,0.47,0.38,0.77,0.38h4.86c0.3,0,0.58-0.14,0.77-0.38
		C45.2,511.38,45.27,511.08,45.19,510.79L45.19,510.79z M41.81,505.75c0.54,0,0.98,0.44,0.98,0.98s-0.44,0.98-0.98,0.98
		c-0.54,0-0.98-0.44-0.98-0.98S41.28,505.75,41.81,505.75z M39.64,510.83l0.3-1.21c0.11-0.44,0.5-0.74,0.95-0.74h1.86
		c0.45,0,0.84,0.3,0.95,0.74l0.3,1.21H39.64z"/>
	<path class="st0" d="M38.24,521.91c-0.16-0.66-0.62-1.18-1.21-1.44c0.22-0.34,0.34-0.73,0.34-1.16c0-1.18-0.96-2.15-2.15-2.15
		c-1.18,0-2.15,0.96-2.15,2.15c0,0.43,0.13,0.83,0.34,1.16c-0.59,0.26-1.04,0.78-1.21,1.44l-0.36,1.46
		c-0.07,0.29-0.01,0.6,0.18,0.84c0.19,0.24,0.47,0.38,0.77,0.38h4.86c0.3,0,0.58-0.14,0.77-0.38s0.25-0.54,0.18-0.84L38.24,521.91z
		 M35.22,518.33c0.54,0,0.98,0.44,0.98,0.98c0,0.54-0.44,0.98-0.98,0.98c-0.54,0-0.98-0.44-0.98-0.98
		C34.25,518.76,34.68,518.33,35.22,518.33z M33.04,523.4l0.3-1.21c0.11-0.44,0.5-0.74,0.95-0.74h1.86c0.45,0,0.84,0.3,0.95,0.74
		l0.3,1.21H33.04z"/>
	<path class="st0" d="M51.79,523.36l-0.36-1.46c-0.16-0.66-0.62-1.18-1.21-1.44c0.22-0.34,0.34-0.73,0.34-1.16
		c0-1.18-0.96-2.15-2.15-2.15c-1.18,0-2.15,0.96-2.15,2.15c0,0.43,0.13,0.83,0.34,1.16c-0.59,0.26-1.04,0.78-1.21,1.44l-0.36,1.46
		c-0.07,0.29-0.01,0.6,0.18,0.84s0.47,0.38,0.77,0.38h4.86c0.3,0,0.58-0.14,0.77-0.38C51.79,523.96,51.86,523.66,51.79,523.36
		L51.79,523.36z M48.41,518.33c0.54,0,0.98,0.44,0.98,0.98c0,0.54-0.44,0.98-0.98,0.98c-0.54,0-0.98-0.44-0.98-0.98
		C47.43,518.76,47.87,518.33,48.41,518.33z M46.23,523.4l0.3-1.21c0.11-0.44,0.5-0.74,0.95-0.74h1.86c0.45,0,0.84,0.3,0.95,0.74
		l0.3,1.21H46.23z"/>
	<path class="st0" d="M41.81,519.15L41.81,519.15c-0.32,0-0.59-0.26-0.59-0.59v-3.57c0-0.32,0.26-0.59,0.59-0.59h0
		c0.32,0,0.59,0.26,0.59,0.59v3.57C42.4,518.89,42.14,519.15,41.81,519.15z"/>
	<path class="st0" d="M39.44,516.78L39.44,516.78c0-0.32,0.26-0.59,0.59-0.59h3.57c0.32,0,0.59,0.26,0.59,0.59l0,0
		c0,0.33-0.26,0.59-0.59,0.59h-3.57C39.7,517.36,39.44,517.1,39.44,516.78z"/>
</g>
<path class="st1" d="M17.51,4.7C13.91,1.1,8.06,1.1,4.47,4.7s-3.59,9.44,0,13.03c3.52,3.52,9.19,3.58,12.8,0.21L21.33,22l0.9-0.9
	l-4.08-4.08C21.08,13.4,20.87,8.06,17.51,4.7z M16.61,16.83c-3.1,3.1-8.14,3.1-11.24,0s-3.1-8.14,0-11.24s8.14-3.1,11.24,0
	S19.7,13.73,16.61,16.83z"/>
</svg>
