<?xml version="1.0" encoding="utf-8"?>
<!-- Generator: Adobe Illustrator 24.0.0, SVG Export Plug-In . SVG Version: 6.00 Build 0)  -->
<svg version="1.1" id="Layer_1" xmlns="http://www.w3.org/2000/svg" xmlns:xlink="http://www.w3.org/1999/xlink" x="0px" y="0px"
	 viewBox="0 0 40 40" style="enable-background:new 0 0 40 40;" xml:space="preserve">
<style type="text/css">
	.st0{fill:#E4E6EB;}
	.st1{fill:#4B4B4B;}
</style>
<circle class="st0" cx="20" cy="20" r="18.22"/>
<g>
	<path class="st1" d="M29.87,22.04l-1.8-1.37c0.02-0.23,0.04-0.46,0.04-0.68c0-0.21-0.01-0.43-0.04-0.68l1.8-1.37
		c0.41-0.31,0.51-0.87,0.26-1.32l-1.93-3.26c-0.25-0.44-0.81-0.64-1.3-0.46l-2.12,0.83c-0.38-0.26-0.79-0.49-1.2-0.68l-0.32-2.18
		c-0.06-0.5-0.51-0.89-1.04-0.89h-3.88c-0.53,0-0.97,0.38-1.04,0.87l-0.32,2.19c-0.41,0.18-0.8,0.41-1.2,0.68l-2.13-0.83
		c-0.49-0.19-1.04,0.01-1.29,0.45l-1.94,3.26c-0.27,0.44-0.16,1.01,0.26,1.33l1.79,1.37c-0.02,0.25-0.04,0.47-0.04,0.68
		c0,0.2,0.01,0.42,0.04,0.68l-1.8,1.37c-0.4,0.31-0.51,0.87-0.26,1.32l1.93,3.25c0.25,0.44,0.79,0.64,1.3,0.46l2.12-0.83
		c0.38,0.26,0.79,0.49,1.2,0.68l0.32,2.18C17.35,29.62,17.8,30,18.33,30h3.88c0.53,0,0.98-0.38,1.04-0.88l0.32-2.19
		c0.41-0.19,0.8-0.41,1.2-0.68l2.13,0.83c0.48,0.18,1.04-0.01,1.29-0.45l1.95-3.28C30.38,22.91,30.27,22.36,29.87,22.04z
		 M13.41,21.37c0.16-0.12,0.24-0.32,0.22-0.51c-0.04-0.33-0.06-0.61-0.06-0.86c0-0.24,0.02-0.51,0.06-0.86
		c0.03-0.19-0.06-0.39-0.21-0.51l-1.95-1.55L13.34,14l2.3,0.9c0.18,0.07,0.39,0.05,0.55-0.07c0.51-0.37,1.01-0.65,1.51-0.86
		c0.19-0.08,0.32-0.24,0.35-0.43l0.41-2.42l3.68,0.04l0.35,2.38c0.03,0.2,0.16,0.36,0.35,0.44c0.52,0.21,1.03,0.5,1.51,0.85
		c0.16,0.12,0.37,0.15,0.55,0.08l2.37-0.87l1.84,3.09l-1.98,1.51c-0.16,0.12-0.24,0.32-0.22,0.51c0.03,0.23,0.06,0.53,0.06,0.86
		c0,0.32-0.03,0.61-0.06,0.86c-0.03,0.19,0.06,0.39,0.22,0.51l1.98,1.51L27.2,26l-2.3-0.9c-0.18-0.07-0.39-0.05-0.55,0.07
		c-0.51,0.38-1.01,0.66-1.51,0.86c-0.19,0.07-0.32,0.24-0.35,0.43l-0.41,2.42l-3.68-0.04l-0.35-2.38c-0.03-0.2-0.16-0.36-0.35-0.44
		c-0.53-0.21-1.03-0.5-1.51-0.85c-0.16-0.12-0.39-0.14-0.56-0.08l-2.37,0.87l-1.84-3.1L13.41,21.37z"/>
	<path class="st1" d="M20.27,24.25c2.41,0,4.36-1.91,4.36-4.25s-1.96-4.25-4.36-4.25S15.9,17.65,15.9,20S17.86,24.25,20.27,24.25z
		 M20.27,16.86c1.78,0,3.22,1.41,3.22,3.14c0,1.73-1.45,3.14-3.22,3.14s-3.22-1.41-3.22-3.14C17.04,18.27,18.49,16.86,20.27,16.86z"
		/>
</g>
</svg>
