<?xml version="1.0" encoding="utf-8"?>
<!-- Generator: Adobe Illustrator 24.0.0, SVG Export Plug-In . SVG Version: 6.00 Build 0)  -->
<svg version="1.1" id="Layer_1" xmlns="http://www.w3.org/2000/svg" xmlns:xlink="http://www.w3.org/1999/xlink" x="0px" y="0px"
	 viewBox="0 0 24 24" style="enable-background:new 0 0 24 24;" xml:space="preserve">
<g>
	<path d="M7.3,10.1C7.3,10.1,7.3,10.1,7.3,10.1c-1.5,0-2.9,0.6-4,1.6c-1.1,1.1-1.6,2.5-1.6,4c0,3.1,2.5,5.6,5.6,5.6c0,0,0,0,0,0
		c3.1,0,5.6-2.5,5.6-5.6C12.9,12.6,10.4,10.1,7.3,10.1z M7.3,12.2C7.3,12.2,7.3,12.2,7.3,12.2c0.9,0,1.8,0.4,2.5,1
		c0.7,0.7,1,1.5,1,2.5c0,1.9-1.6,3.5-3.5,3.5c0,0,0,0,0,0c-0.9,0-1.8-0.4-2.5-1c-0.7-0.7-1-1.5-1-2.5C3.8,13.7,5.3,12.2,7.3,12.2z"
		/>
	<path d="M22.2,15.7c-0.4-0.6-0.7-1.2-1.1-1.8l-3.8-6.5c-0.2-0.4-0.6-0.6-1-0.6c0,0,0,0,0,0c-0.4,0-0.7,0.2-0.9,0.6l-2.4,4
		c-0.1,0.2-0.2,0.4,0,0.7c0.2,0.2,0.3,0.4,0.5,0.6l0.2,0.3c0,0,0,0.1,0.1,0.1l0.4,0.5l2.2-3.6l3.1,5.3h-5l-0.2,2.1h2.1
		c1.6,0,3.3,0,4.9,0c0.5,0,0.8-0.2,1-0.5C22.4,16.5,22.4,16.1,22.2,15.7z"/>
	<path d="M14.2,3.9c0-0.8-0.4-1.2-1.2-1.2H5.4c-0.8,0-1.2,0.4-1.2,1.2v6.2l2.1-0.8V4.9H12v4.4l0.8-1C13,8,13.1,7.7,13.3,7.5l0.3-0.5
		c0.1-0.2,0.2-0.4,0.4-0.6c0.1-0.1,0.2-0.3,0.2-0.5c0-0.5,0-1,0-1.5L14.2,3.9z"/>
</g>
</svg>
