<svg width="51" height="36" viewBox="0 0 51 36" fill="none" xmlns="http://www.w3.org/2000/svg">
<path d="M17.51 21.88C11.65 21.88 0 24.81 0 30.64V35.02H35.01V30.64C35.01 24.81 23.36 21.88 17.51 21.88ZM5.85 30.01C7.95 28.56 13.03 26.88 17.5 26.88C21.97 26.88 27.05 28.56 29.15 30.01H5.85ZM17.51 17.51C22.34 17.51 26.26 13.58 26.26 8.76C26.26 3.94 22.33 0 17.51 0C12.69 0 8.75 3.93 8.75 8.75C8.75 13.57 12.68 17.51 17.51 17.51ZM17.51 5C19.59 5 21.26 6.68 21.26 8.75C21.26 10.82 19.58 12.5 17.51 12.5C15.44 12.5 13.76 10.82 13.76 8.75C13.76 6.68 15.43 5 17.51 5ZM35.11 22.03C38.01 24.13 40.01 26.93 40.01 30.63V35.01H50.01V30.63C50.02 25.58 41.26 22.71 35.11 22.03ZM32.51 17.51C37.34 17.51 41.26 13.58 41.26 8.76C41.26 3.94 37.34 0 32.51 0C31.16 0 29.91 0.33 28.76 0.88C30.34 3.11 31.26 5.83 31.26 8.76C31.26 11.69 30.33 14.41 28.76 16.64C29.91 17.18 31.16 17.51 32.51 17.51Z"/>
</svg>