<svg width="18" height="18" viewBox="0 0 18 18" fill="none" xmlns="http://www.w3.org/2000/svg">
                                    <path d="M2.37 8.05L8.68999 1.73L16.42 9.46L10.1 15.78L2.37 8.05Z" fill="#FF8A65"/>
                                    <path d="M9.12997 14.81L10.09 15.77L16.41 9.45L15.95 8.99L9.12997 14.81Z" fill="#FF7043"/>
                                    <path d="M8.34 11.91L10.8 9.45L11.85 10.5L9.4 12.97L8.34 11.91Z" fill="#E2FC85"/>
                                    <path d="M4.83999 10.33C4.83999 10 4.70999 9.68 4.47999 9.45L2.12999 11.79C1.93999 11.98 1.83999 12.23 1.83999 12.49V13.48L1.04999 14.27V16.94H3.65999L4.65999 15.94L5.71999 15.59L7.82999 13.48L4.83999 10.49C4.83999 10.45 4.83999 10.39 4.83999 10.33Z" fill="#FFDECF"/>
                                    <path d="M16.95 1.05H14.28L12.55 2.78H11.15L8.69 5.24C9.17 5.72 9.96 5.72 10.44 5.24L11.32 4.36L14.13 7.17L15.18 6.11L15.53 5.06L16.94 3.66V1.05H16.95Z" fill="#FFDECF"/>
                                    <path d="M4.47998 8.4L6.23998 6.64L6.58998 6.99L4.82998 8.75L4.47998 8.4Z" fill="white"/>
                                    <path d="M5.53 8.75L6.59 7.7L6.94 8.05L5.88 9.1L5.53 8.75Z" fill="white"/>
                                    <path d="M7.98999 11.91L9.39999 13.32L12.21 10.51L10.8 9.1L7.98999 11.91ZM9.39999 12.61L8.69999 11.91L10.8 9.8L11.5 10.5L9.39999 12.61Z" fill="black"/>
                                    <path d="M6.34 16.53L7.83 15.04L8.18 15.39L6.69 16.88L6.34 16.53Z" fill="black"/>
                                    <path d="M8.07999 16.53L8.82999 15.78L9.17999 16.13L8.42999 16.88L8.07999 16.53Z" fill="black"/>
                                    <path d="M15.41 6.25L15.76 5.2L16.88 4.09L16.53 3.74L15.33 4.94L14.98 5.99L14.14 6.83L11.33 4.02L10.28 5.07C9.94997 5.38 9.45997 5.44 9.06997 5.21L11.26 3.02H12.67L14.22 1.47L13.87 1.12L12.47 2.53H11.06L10.46 3.13L8.68997 1.37L2.01997 8.05L3.77997 9.8L1.95997 11.62C1.72997 11.85 1.59997 12.17 1.59997 12.5V13.39L1.12997 13.86L1.47997 14.21L2.09997 13.59V12.49C2.09997 12.29 2.17997 12.1 2.31997 11.96L4.46997 9.82C4.55997 9.97 4.60997 10.15 4.60997 10.33C4.60997 10.59 4.50997 10.85 4.31997 11.03L3.43997 11.91L3.61997 12.09C3.90997 12.38 3.90997 12.85 3.61997 13.14L3.43997 13.31L3.78997 13.66L3.96997 13.49C4.38997 13.07 4.44997 12.42 4.12997 11.92L4.66997 11.38C4.78997 11.26 4.88997 11.12 4.95997 10.97L5.36997 11.38L4.99997 11.74L5.34997 12.09L5.69997 11.74L6.04997 12.09L5.69997 12.44L6.04997 12.79L6.39997 12.44L6.74997 12.79L6.39997 13.14L6.74997 13.49L7.09997 13.14L7.44997 13.49L5.55997 15.38L4.49997 15.73L3.70997 16.52L4.05997 16.87L4.76997 16.16L5.82997 15.81L7.79997 13.84L10.08 16.12L16.76 9.44L14.48 7.16L15.41 6.25ZM16.07 9.45L10.1 15.42L9.49997 14.82L15.95 9.33L16.07 9.45ZM15.6 8.98L9.14997 14.48L5.08997 10.42C5.08997 10.39 5.08997 10.37 5.08997 10.34C5.08997 9.94 4.92997 9.56 4.64997 9.28L4.47997 9.1L4.12997 9.45L2.71997 8.05L8.68997 2.08L10.1 3.49L8.33997 5.24L8.51997 5.42C9.09997 6 10.05 6 10.63 5.42L11.33 4.72L15.6 8.98Z" fill="black"/>
                                    <path d="M1.12 10.56L2.36 9.32L2.71 9.67L1.47 10.91L1.12 10.56Z" fill="black"/>
                                    <path d="M1.12 8.82L1.62 8.32L1.97 8.67L1.47 9.17L1.12 8.82Z" fill="black"/>
                                    </svg>