<?xml version="1.0" encoding="utf-8"?>
<!-- Generator: Adobe Illustrator 24.0.0, SVG Export Plug-In . SVG Version: 6.00 Build 0)  -->
<svg version="1.1" id="Layer_1" xmlns="http://www.w3.org/2000/svg" xmlns:xlink="http://www.w3.org/1999/xlink" x="0px" y="0px"
	 viewBox="0 0 140.36 40" style="enable-background:new 0 0 140.36 40;" xml:space="preserve">
<style type="text/css">
	.st0{opacity:0.3;fill:#404040;}
	.st1{fill:url(#SVGID_1_);}
	.st2{opacity:0.41;}
	.st3{fill:#404040;}
	.st4{fill:#FFFFFF;}
	.st5{opacity:0.5;fill:url(#SVGID_2_);}
	.st6{font-family:'QanelasSoftDEMO-ExtraBold';}
	.st7{font-size:18.0064px;}
	.st8{font-family:'Poppins-ExtraBold';}
</style>
<g>
	<g>
		
			<ellipse transform="matrix(0.2259 -0.9742 0.9742 0.2259 -4.9285 35.7027)" class="st0" cx="20" cy="20.95" rx="19.05" ry="19.05"/>
		<linearGradient id="SVGID_1_" gradientUnits="userSpaceOnUse" x1="0" y1="19.0476" x2="38.0952" y2="19.0476">
			<stop  offset="0.0231" style="stop-color:#FFDA38"/>
			<stop  offset="1" style="stop-color:#FF9716"/>
		</linearGradient>
		<circle class="st1" cx="19.05" cy="19.05" r="19.05"/>
		<g class="st2">
			<path class="st3" d="M18.41,13.06c0,2.86,0,5.74,0,8.65c-1.06,0-2.09,0-3.19,0c0-1.95,0-3.91,0-5.93
				c-1.21,0.03-2.37-0.14-3.49,0.25c-1.59,0.55-2.51,1.99-2.4,3.73c0.12,1.75,1.18,3.02,2.86,3.37c0.42,0.09,0.86,0.12,1.29,0.12
				c1.47,0.01,2.95,0.01,4.43,0.01c0.16,0,0.32,0,0.5,0c0,0.96,0,1.86,0,2.74c-0.04,0.03-0.05,0.05-0.06,0.05
				c-2.28-0.04-4.57,0.09-6.82-0.18C9,25.57,7.13,24.1,6.4,21.57c-0.73-2.52-0.31-4.85,1.65-6.75c1.09-1.05,2.45-1.65,3.93-1.73
				C14.1,12.98,16.23,13.06,18.41,13.06z"/>
			<path class="st3" d="M19.7,26.01c0-2.88,0-5.76,0-8.67c1.06,0,2.1,0,3.19,0c0,1.97,0,3.93,0,5.94c1.13-0.05,2.22,0.12,3.28-0.2
				c1.68-0.5,2.67-1.9,2.6-3.67c-0.07-1.79-1.13-3.11-2.84-3.48c-0.46-0.1-0.94-0.13-1.42-0.13c-1.44-0.02-2.89-0.01-4.33-0.01
				c-0.16,0-0.32,0-0.49,0c0-0.95,0-1.84,0-2.74c0.05-0.02,0.08-0.06,0.12-0.06c2.05,0.02,4.12-0.05,6.16,0.08
				c2.97,0.19,5.27,2.16,5.87,4.86c0.91,4.11-1.6,7.69-5.82,8.04C23.95,26.15,21.84,26.01,19.7,26.01z"/>
		</g>
		<g>
			<path class="st4" d="M18.41,12.59c0,2.86,0,5.74,0,8.65c-1.06,0-2.09,0-3.19,0c0-1.95,0-3.91,0-5.93
				c-1.21,0.03-2.37-0.14-3.49,0.25c-1.59,0.55-2.51,1.99-2.4,3.73c0.12,1.75,1.18,3.02,2.86,3.37c0.42,0.09,0.86,0.12,1.29,0.12
				c1.47,0.01,2.95,0.01,4.43,0.01c0.16,0,0.32,0,0.5,0c0,0.96,0,1.86,0,2.74c-0.04,0.03-0.05,0.05-0.06,0.05
				c-2.28-0.04-4.57,0.09-6.82-0.18C9,25.09,7.13,23.62,6.4,21.09c-0.73-2.52-0.31-4.85,1.65-6.75c1.09-1.05,2.45-1.65,3.93-1.73
				C14.1,12.51,16.23,12.59,18.41,12.59z"/>
			<path class="st4" d="M19.7,25.53c0-2.88,0-5.76,0-8.67c1.06,0,2.1,0,3.19,0c0,1.97,0,3.93,0,5.94c1.13-0.05,2.22,0.12,3.28-0.2
				c1.68-0.5,2.67-1.9,2.6-3.67c-0.07-1.79-1.13-3.11-2.84-3.48c-0.46-0.1-0.94-0.13-1.42-0.13c-1.44-0.02-2.89-0.01-4.33-0.01
				c-0.16,0-0.32,0-0.49,0c0-0.95,0-1.84,0-2.74c0.05-0.02,0.08-0.06,0.12-0.06c2.05,0.02,4.12-0.05,6.16,0.08
				c2.97,0.19,5.27,2.16,5.87,4.86c0.91,4.11-1.6,7.69-5.82,8.04C23.95,25.68,21.84,25.53,19.7,25.53z"/>
		</g>
		<linearGradient id="SVGID_2_" gradientUnits="userSpaceOnUse" x1="27.7404" y1="4.8138" x2="13.8156" y2="34.6759">
			<stop  offset="0.0861" style="stop-color:#FFFFFF"/>
			<stop  offset="0.1919" style="stop-color:#FFFFFF;stop-opacity:0.9189"/>
			<stop  offset="1" style="stop-color:#FFFFFF;stop-opacity:0.3"/>
		</linearGradient>
		<path class="st5" d="M19.28,2.58c-2.51,0-5.24,0.34-7.2,2.04c-2.09,1.8-2.65,4.54-1.15,6.92c0.75,1.19,1.8,2.14,2.76,3.17
			c0.96,1.03,1.85,2.19,2.14,3.56c0.3,1.41-0.1,2.96-1.05,4.05c-0.95,1.09-2.43,1.69-3.88,1.58c-0.87-0.07-1.72-0.38-2.59-0.4
			c-3.78-0.07-2.61,4.8-1.15,6.64c0.16,0.21,0.34,0.4,0.52,0.6c1.1,1.09,2.35,2.03,3.72,2.78c0.03,0.01,0.05,0.03,0.08,0.04
			c0.15,0.08,0.3,0.16,0.45,0.23c0.13,0.07,0.26,0.13,0.4,0.19c2.11,0.99,4.47,1.54,6.96,1.54c9.1,0,16.47-7.37,16.47-16.47
			S28.38,2.58,19.28,2.58z"/>
	</g>
	<g>
		<text transform="matrix(1 0 0 1 45.071 25.2797)"><tspan x="0" y="0" class="st4 st6 st7">Drag</tspan><tspan x="39.79" y="0" class="st4 st8 st7">&amp;</tspan><tspan x="54.45" y="0" class="st4 st6 st7">Drop</tspan></text>
	</g>
</g>
</svg>
