<?xml version="1.0" encoding="utf-8"?>
<!-- Generator: Adobe Illustrator 24.0.0, SVG Export Plug-In . SVG Version: 6.00 Build 0)  -->
<svg version="1.1" id="Layer_1" xmlns="http://www.w3.org/2000/svg" xmlns:xlink="http://www.w3.org/1999/xlink" x="0px" y="0px"
	 viewBox="0 0 24 24" style="enable-background:new 0 0 24 24;" xml:space="preserve">
<g>
	<path d="M34,516.33L34,516.33c0.32,0,0.59-0.26,0.59-0.58c0-1.92,0.76-3.73,2.12-5.09c0.23-0.23,0.23-0.6,0-0.83
		c-0.23-0.23-0.6-0.23-0.83,0c-1.58,1.58-2.46,3.68-2.46,5.92C33.42,516.07,33.68,516.33,34,516.33L34,516.33z"/>
	<path d="M49.04,515.75c0,0.32,0.26,0.58,0.59,0.58h0c0.32,0,0.59-0.26,0.58-0.59c0-2.24-0.88-4.34-2.46-5.92
		c-0.23-0.23-0.6-0.23-0.83,0c-0.23,0.23-0.23,0.6,0,0.83C48.29,512.02,49.04,513.83,49.04,515.75L49.04,515.75z"/>
	<path d="M43.26,522.85c-0.96,0.19-1.93,0.19-2.89,0c-0.32-0.06-0.63,0.14-0.69,0.46c-0.06,0.32,0.14,0.63,0.46,0.69
		c0.56,0.11,1.12,0.17,1.68,0.17c0.56,0,1.12-0.06,1.68-0.17c0.32-0.06,0.52-0.37,0.46-0.69C43.89,522.99,43.58,522.78,43.26,522.85
		z"/>
	<path d="M45.19,510.79l-0.36-1.46c-0.16-0.66-0.62-1.18-1.21-1.44c0.22-0.34,0.34-0.73,0.34-1.16
		c0-1.18-0.96-2.15-2.15-2.15c-1.18,0-2.15,0.96-2.15,2.15c0,0.43,0.13,0.83,0.34,1.16c-0.59,0.26-1.04,0.78-1.21,1.44l-0.36,1.46
		c-0.07,0.29-0.01,0.6,0.18,0.84c0.19,0.24,0.47,0.38,0.77,0.38h4.86c0.3,0,0.58-0.14,0.77-0.38
		C45.2,511.38,45.27,511.08,45.19,510.79L45.19,510.79z M41.81,505.75c0.54,0,0.98,0.44,0.98,0.98s-0.44,0.98-0.98,0.98
		c-0.54,0-0.98-0.44-0.98-0.98S41.28,505.75,41.81,505.75z M39.64,510.83l0.3-1.21c0.11-0.44,0.5-0.74,0.95-0.74h1.86
		c0.45,0,0.84,0.3,0.95,0.74l0.3,1.21H39.64z"/>
	<path d="M38.24,521.91c-0.16-0.66-0.62-1.18-1.21-1.44c0.22-0.34,0.34-0.73,0.34-1.16c0-1.18-0.96-2.15-2.15-2.15
		c-1.18,0-2.15,0.96-2.15,2.15c0,0.43,0.13,0.83,0.34,1.16c-0.59,0.26-1.04,0.78-1.21,1.44l-0.36,1.46
		c-0.07,0.29-0.01,0.6,0.18,0.84c0.19,0.24,0.47,0.38,0.77,0.38h4.86c0.3,0,0.58-0.14,0.77-0.38s0.25-0.54,0.18-0.84L38.24,521.91z
		 M35.22,518.33c0.54,0,0.98,0.44,0.98,0.98c0,0.54-0.44,0.98-0.98,0.98c-0.54,0-0.98-0.44-0.98-0.98
		C34.25,518.76,34.68,518.33,35.22,518.33z M33.04,523.4l0.3-1.21c0.11-0.44,0.5-0.74,0.95-0.74h1.86c0.45,0,0.84,0.3,0.95,0.74
		l0.3,1.21H33.04z"/>
	<path d="M51.79,523.36l-0.36-1.46c-0.16-0.66-0.62-1.18-1.21-1.44c0.22-0.34,0.34-0.73,0.34-1.16
		c0-1.18-0.96-2.15-2.15-2.15c-1.18,0-2.15,0.96-2.15,2.15c0,0.43,0.13,0.83,0.34,1.16c-0.59,0.26-1.04,0.78-1.21,1.44l-0.36,1.46
		c-0.07,0.29-0.01,0.6,0.18,0.84s0.47,0.38,0.77,0.38h4.86c0.3,0,0.58-0.14,0.77-0.38C51.79,523.96,51.86,523.66,51.79,523.36
		L51.79,523.36z M48.41,518.33c0.54,0,0.98,0.44,0.98,0.98c0,0.54-0.44,0.98-0.98,0.98c-0.54,0-0.98-0.44-0.98-0.98
		C47.43,518.76,47.87,518.33,48.41,518.33z M46.23,523.4l0.3-1.21c0.11-0.44,0.5-0.74,0.95-0.74h1.86c0.45,0,0.84,0.3,0.95,0.74
		l0.3,1.21H46.23z"/>
	<path d="M41.81,519.15L41.81,519.15c-0.32,0-0.59-0.26-0.59-0.59v-3.57c0-0.32,0.26-0.59,0.59-0.59h0
		c0.32,0,0.59,0.26,0.59,0.59v3.57C42.4,518.89,42.14,519.15,41.81,519.15z"/>
	<path d="M39.44,516.78L39.44,516.78c0-0.32,0.26-0.59,0.59-0.59h3.57c0.32,0,0.59,0.26,0.59,0.59l0,0
		c0,0.33-0.26,0.59-0.59,0.59h-3.57C39.7,517.36,39.44,517.1,39.44,516.78z"/>
</g>
<g>
	<path d="M4.19,13.76L4.19,13.76c0.32,0,0.59-0.26,0.59-0.58c0-1.92,0.76-3.73,2.12-5.09c0.23-0.23,0.23-0.6,0-0.83
		c-0.23-0.23-0.6-0.23-0.83,0c-1.58,1.58-2.46,3.68-2.46,5.92C3.6,13.49,3.86,13.76,4.19,13.76L4.19,13.76z"/>
	<path d="M19.23,13.17c0,0.32,0.26,0.58,0.59,0.58h0c0.32,0,0.59-0.26,0.58-0.59c0-2.24-0.88-4.34-2.46-5.92
		c-0.23-0.23-0.6-0.23-0.83,0c-0.23,0.23-0.23,0.6,0,0.83C18.47,9.44,19.22,11.25,19.23,13.17L19.23,13.17z"/>
	<path d="M13.45,20.27c-0.96,0.19-1.93,0.19-2.89,0c-0.32-0.06-0.63,0.14-0.69,0.46c-0.06,0.32,0.14,0.63,0.46,0.69
		c0.56,0.11,1.12,0.17,1.68,0.17c0.56,0,1.12-0.06,1.68-0.17c0.32-0.06,0.52-0.37,0.46-0.69C14.07,20.41,13.76,20.21,13.45,20.27z"
		/>
	<path d="M15.38,8.21l-0.36-1.46c-0.16-0.66-0.62-1.18-1.21-1.44c0.22-0.34,0.34-0.73,0.34-1.16
		C14.15,2.96,13.18,2,12,2S9.85,2.96,9.85,4.15c0,0.43,0.13,0.83,0.34,1.16C9.61,5.57,9.15,6.1,8.99,6.75L8.62,8.21
		C8.55,8.5,8.61,8.81,8.8,9.05c0.19,0.24,0.47,0.38,0.77,0.38h4.86c0.3,0,0.58-0.14,0.77-0.38S15.45,8.5,15.38,8.21L15.38,8.21z
		 M12,3.17c0.54,0,0.98,0.44,0.98,0.98S12.54,5.13,12,5.13s-0.98-0.44-0.98-0.98S11.46,3.17,12,3.17z M9.82,8.25l0.3-1.21
		c0.11-0.44,0.5-0.74,0.95-0.74h1.86c0.45,0,0.84,0.3,0.95,0.74l0.3,1.21H9.82z"/>
	<path d="M8.42,19.33c-0.16-0.66-0.62-1.18-1.21-1.44c0.22-0.34,0.34-0.73,0.34-1.16c0-1.18-0.96-2.15-2.15-2.15
		s-2.15,0.96-2.15,2.15c0,0.43,0.13,0.83,0.34,1.16c-0.59,0.26-1.04,0.78-1.21,1.44l-0.36,1.46c-0.07,0.29-0.01,0.6,0.18,0.84
		C2.39,21.86,2.67,22,2.98,22h4.86c0.3,0,0.58-0.14,0.77-0.38c0.19-0.24,0.25-0.54,0.18-0.84L8.42,19.33z M5.41,15.75
		c0.54,0,0.98,0.44,0.98,0.98S5.95,17.7,5.41,17.7s-0.98-0.44-0.98-0.98S4.87,15.75,5.41,15.75z M3.23,20.83l0.3-1.21
		c0.11-0.44,0.5-0.74,0.95-0.74h1.86c0.45,0,0.84,0.3,0.95,0.74l0.3,1.21H3.23z"/>
	<path d="M21.97,20.79l-0.36-1.46c-0.16-0.66-0.62-1.18-1.21-1.44c0.22-0.34,0.34-0.73,0.34-1.16
		c0-1.18-0.96-2.15-2.15-2.15s-2.15,0.96-2.15,2.15c0,0.43,0.13,0.83,0.34,1.16c-0.59,0.26-1.04,0.78-1.21,1.44l-0.36,1.46
		c-0.07,0.29-0.01,0.6,0.18,0.84S15.86,22,16.16,22h4.86c0.3,0,0.58-0.14,0.77-0.38C21.98,21.39,22.04,21.08,21.97,20.79
		L21.97,20.79z M18.59,15.75c0.54,0,0.98,0.44,0.98,0.98s-0.44,0.98-0.98,0.98s-0.98-0.44-0.98-0.98S18.05,15.75,18.59,15.75z
		 M16.41,20.83l0.3-1.21c0.11-0.44,0.5-0.74,0.95-0.74h1.86c0.45,0,0.84,0.3,0.95,0.74l0.3,1.21H16.41z"/>
	<path d="M13.79,13.61h-1.2v-1.2c0-0.32-0.26-0.59-0.59-0.59c-0.32,0-0.59,0.26-0.59,0.59v1.2h-1.2
		c-0.33,0-0.59,0.26-0.59,0.59c0,0.32,0.26,0.59,0.59,0.59h1.2v1.2c0,0.33,0.26,0.59,0.59,0.59c0.33,0,0.59-0.26,0.59-0.59v-1.2h1.2
		c0.32,0,0.59-0.26,0.59-0.59C14.37,13.87,14.11,13.61,13.79,13.61z"/>
</g>
</svg>
