<?xml version="1.0" encoding="utf-8"?>
<!-- Generator: Adobe Illustrator 24.0.0, SVG Export Plug-In . SVG Version: 6.00 Build 0)  -->
<svg version="1.1" id="Layer_1" xmlns="http://www.w3.org/2000/svg" xmlns:xlink="http://www.w3.org/1999/xlink" x="0px" y="0px"
	 viewBox="0 0 24 24" style="enable-background:new 0 0 24 24;" xml:space="preserve">
<g>
	<path d="M20.24,2H3.76C2.79,2,2,2.79,2,3.76v16.48C2,21.21,2.79,22,3.76,22h16.48c0.97,0,1.76-0.79,1.76-1.76V3.76
		C22,2.79,21.21,2,20.24,2z M3.76,3.17h16.48c0.32,0,0.59,0.26,0.59,0.59v2.93H3.17V3.76C3.17,3.43,3.43,3.17,3.76,3.17z
		 M20.24,20.83H3.76c-0.32,0-0.59-0.26-0.59-0.59V7.86h17.66v12.38C20.83,20.57,20.57,20.83,20.24,20.83z"/>
	<circle cx="6.14" cy="4.93" r="0.59"/>
	<circle cx="8.48" cy="4.93" r="0.59"/>
	<circle cx="10.83" cy="4.93" r="0.59"/>
	<path d="M17.9,9.03H6.14c-0.32,0-0.59,0.26-0.59,0.59v3.55c0,0.32,0.26,0.59,0.59,0.59H17.9
		c0.32,0,0.59-0.26,0.59-0.59V9.62C18.48,9.29,18.22,9.03,17.9,9.03z M17.31,12.59H6.73V10.2h10.59V12.59z"/>
	<path d="M12,14.93H6.14c-0.32,0-0.59,0.26-0.59,0.59v3.55c0,0.32,0.26,0.59,0.59,0.59H12c0.32,0,0.59-0.26,0.59-0.59
		v-3.55C12.59,15.19,12.32,14.93,12,14.93z M11.41,18.48H6.73V16.1h4.69V18.48z"/>
	<path d="M17.9,14.93h-3.55c-0.32,0-0.59,0.26-0.59,0.59v3.55c0,0.32,0.26,0.59,0.59,0.59h3.55
		c0.32,0,0.59-0.26,0.59-0.59v-3.55C18.48,15.19,18.22,14.93,17.9,14.93z M17.31,18.48h-2.38V16.1h2.38V18.48z"/>
</g>
</svg>
