<?xml version="1.0" encoding="utf-8"?>
<!-- Generator: Adobe Illustrator 24.0.0, SVG Export Plug-In . SVG Version: 6.00 Build 0)  -->
<svg version="1.1" id="Layer_1" xmlns="http://www.w3.org/2000/svg" xmlns:xlink="http://www.w3.org/1999/xlink" x="0px" y="0px"
	 viewBox="0 0 36.38 36.38" style="enable-background:new 0 0 36.38 36.38;" xml:space="preserve">
<style type="text/css">
	.st0{fill:#5F6368;}
	.st1{fill:#F4AC2E;}
</style>
<g>
	<path class="st0" d="M12.94,17.53c-1.94,0-3.5,1.56-3.5,3.5c0,1.53-1.35,2.33-2.33,2.33c1.07,1.42,2.9,2.33,4.67,2.33
		c2.58,0,4.67-2.09,4.67-4.67C16.44,19.09,14.88,17.53,12.94,17.53z M28.93,6.6l-1.56-1.56c-0.45-0.45-1.19-0.45-1.64,0L15.27,15.48
		l3.21,3.21L28.93,8.24C29.39,7.79,29.39,7.05,28.93,6.6z"/>
	<rect x="7.69" y="28.69" class="st1" width="21" height="3"/>
</g>
</svg>
