<?xml version="1.0" encoding="utf-8"?>
<!-- Generator: Adobe Illustrator 24.0.0, SVG Export Plug-In . SVG Version: 6.00 Build 0)  -->
<svg version="1.1" id="Layer_1" xmlns="http://www.w3.org/2000/svg" xmlns:xlink="http://www.w3.org/1999/xlink" x="0px" y="0px"
	 viewBox="0 0 48 48" style="enable-background:new 0 0 48 48;" xml:space="preserve">
<style type="text/css">
	.st0{fill:#3F51B5;}
</style>
<path class="st0" d="M44.01,9.53c-0.88-0.78-2.22-0.7-3,0.18L19.46,33.95L6.74,23.77c-0.44-0.36-1-0.52-1.56-0.45
	c-0.57,0.06-1.07,0.34-1.43,0.79c-0.36,0.44-0.52,1-0.45,1.56c0.06,0.57,0.34,1.07,0.79,1.43l14.3,11.44
	c0.38,0.3,0.85,0.47,1.33,0.47c0.61,0,1.19-0.26,1.59-0.71l22.89-25.75C44.96,11.66,44.89,10.32,44.01,9.53z"/>
</svg>
