<?xml version="1.0" encoding="utf-8"?>
<!-- Generator: Adobe Illustrator 24.0.0, SVG Export Plug-In . SVG Version: 6.00 Build 0)  -->
<svg version="1.1" id="Layer_1" xmlns="http://www.w3.org/2000/svg" xmlns:xlink="http://www.w3.org/1999/xlink" x="0px" y="0px"
	 viewBox="0 0 24 24" style="enable-background:new 0 0 24 24;" xml:space="preserve">
<style type="text/css">
	.st0{fill:#3F51B5;}
</style>
<path class="st0" d="M10.95,17.56c-3.66-0.21-4.21-0.75-4.57-4.48c-0.73,0-1.46,0-2.19,0c-0.72,0-1.44,0-2.19,0C2,9.37,2,5.71,2,2
	c3.66,0,7.34,0,11.08,0c0,1.43,0,2.89,0,4.42c1.34-0.09,2.57,0,3.54,1.01c0.96,0.99,0.99,2.22,0.92,3.52
	c1.72,0.43,3.04,1.37,3.85,2.95c0.59,1.14,0.74,2.35,0.51,3.62c-0.44,2.37-2.52,4.24-4.98,4.46C14.18,22.22,12.12,20.7,10.95,17.56z
	 M19.78,16.45c0.01-1.83-1.46-3.34-3.29-3.36c-1.86-0.02-3.38,1.46-3.39,3.31c-0.01,1.84,1.46,3.34,3.29,3.36
	C18.25,19.79,19.77,18.3,19.78,16.45z M15.33,10.95c0-0.28,0-0.52,0-0.76c0-0.15,0.01-0.3,0-0.44c-0.04-0.65-0.45-1.09-1.09-1.1
	c-1.5-0.02-3-0.02-4.5,0C9.11,8.65,8.67,9.08,8.66,9.69c-0.02,1.52-0.02,3.04,0,4.56c0.01,0.61,0.46,1.02,1.07,1.06
	c0.41,0.02,0.81,0,1.23,0C11.57,13.01,13,11.56,15.33,10.95z M4.22,4.2c0,2.24,0,4.42,0,6.62c0.74,0,1.45,0,2.21,0
	c-0.08-1.27,0-2.47,0.95-3.43c0.97-0.97,2.19-1.05,3.45-0.98c0-0.78,0-1.49,0-2.21C8.62,4.2,6.44,4.2,4.22,4.2z"/>
</svg>
