<?xml version="1.0" encoding="utf-8"?>
<!-- Generator: Adobe Illustrator 24.0.0, SVG Export Plug-In . SVG Version: 6.00 Build 0)  -->
<svg version="1.1" id="Layer_1" xmlns="http://www.w3.org/2000/svg" xmlns:xlink="http://www.w3.org/1999/xlink" x="0px" y="0px"
	 viewBox="0 0 24 24" style="enable-background:new 0 0 24 24;" xml:space="preserve">
<g>
	<path d="M34,516.33L34,516.33c0.32,0,0.59-0.26,0.59-0.58c0-1.92,0.76-3.73,2.12-5.09c0.23-0.23,0.23-0.6,0-0.83
		c-0.23-0.23-0.6-0.23-0.83,0c-1.58,1.58-2.46,3.68-2.46,5.92C33.42,516.07,33.68,516.33,34,516.33L34,516.33z"/>
	<path d="M49.04,515.75c0,0.32,0.26,0.58,0.59,0.58h0c0.32,0,0.59-0.26,0.58-0.59c0-2.24-0.88-4.34-2.46-5.92
		c-0.23-0.23-0.6-0.23-0.83,0c-0.23,0.23-0.23,0.6,0,0.83C48.29,512.02,49.04,513.83,49.04,515.75L49.04,515.75z"/>
	<path d="M43.26,522.85c-0.96,0.19-1.93,0.19-2.89,0c-0.32-0.06-0.63,0.14-0.69,0.46c-0.06,0.32,0.14,0.63,0.46,0.69
		c0.56,0.11,1.12,0.17,1.68,0.17c0.56,0,1.12-0.06,1.68-0.17c0.32-0.06,0.52-0.37,0.46-0.69C43.89,522.99,43.58,522.78,43.26,522.85
		z"/>
	<path d="M45.19,510.79l-0.36-1.46c-0.16-0.66-0.62-1.18-1.21-1.44c0.22-0.34,0.34-0.73,0.34-1.16
		c0-1.18-0.96-2.15-2.15-2.15c-1.18,0-2.15,0.96-2.15,2.15c0,0.43,0.13,0.83,0.34,1.16c-0.59,0.26-1.04,0.78-1.21,1.44l-0.36,1.46
		c-0.07,0.29-0.01,0.6,0.18,0.84c0.19,0.24,0.47,0.38,0.77,0.38h4.86c0.3,0,0.58-0.14,0.77-0.38
		C45.2,511.38,45.27,511.08,45.19,510.79L45.19,510.79z M41.81,505.75c0.54,0,0.98,0.44,0.98,0.98s-0.44,0.98-0.98,0.98
		c-0.54,0-0.98-0.44-0.98-0.98S41.28,505.75,41.81,505.75z M39.64,510.83l0.3-1.21c0.11-0.44,0.5-0.74,0.95-0.74h1.86
		c0.45,0,0.84,0.3,0.95,0.74l0.3,1.21H39.64z"/>
	<path d="M38.24,521.91c-0.16-0.66-0.62-1.18-1.21-1.44c0.22-0.34,0.34-0.73,0.34-1.16c0-1.18-0.96-2.15-2.15-2.15
		c-1.18,0-2.15,0.96-2.15,2.15c0,0.43,0.13,0.83,0.34,1.16c-0.59,0.26-1.04,0.78-1.21,1.44l-0.36,1.46
		c-0.07,0.29-0.01,0.6,0.18,0.84c0.19,0.24,0.47,0.38,0.77,0.38h4.86c0.3,0,0.58-0.14,0.77-0.38s0.25-0.54,0.18-0.84L38.24,521.91z
		 M35.22,518.33c0.54,0,0.98,0.44,0.98,0.98c0,0.54-0.44,0.98-0.98,0.98c-0.54,0-0.98-0.44-0.98-0.98
		C34.25,518.76,34.68,518.33,35.22,518.33z M33.04,523.4l0.3-1.21c0.11-0.44,0.5-0.74,0.95-0.74h1.86c0.45,0,0.84,0.3,0.95,0.74
		l0.3,1.21H33.04z"/>
	<path d="M51.79,523.36l-0.36-1.46c-0.16-0.66-0.62-1.18-1.21-1.44c0.22-0.34,0.34-0.73,0.34-1.16
		c0-1.18-0.96-2.15-2.15-2.15c-1.18,0-2.15,0.96-2.15,2.15c0,0.43,0.13,0.83,0.34,1.16c-0.59,0.26-1.04,0.78-1.21,1.44l-0.36,1.46
		c-0.07,0.29-0.01,0.6,0.18,0.84s0.47,0.38,0.77,0.38h4.86c0.3,0,0.58-0.14,0.77-0.38C51.79,523.96,51.86,523.66,51.79,523.36
		L51.79,523.36z M48.41,518.33c0.54,0,0.98,0.44,0.98,0.98c0,0.54-0.44,0.98-0.98,0.98c-0.54,0-0.98-0.44-0.98-0.98
		C47.43,518.76,47.87,518.33,48.41,518.33z M46.23,523.4l0.3-1.21c0.11-0.44,0.5-0.74,0.95-0.74h1.86c0.45,0,0.84,0.3,0.95,0.74
		l0.3,1.21H46.23z"/>
	<path d="M41.81,519.15L41.81,519.15c-0.32,0-0.59-0.26-0.59-0.59v-3.57c0-0.32,0.26-0.59,0.59-0.59h0
		c0.32,0,0.59,0.26,0.59,0.59v3.57C42.4,518.89,42.14,519.15,41.81,519.15z"/>
	<path d="M39.44,516.78L39.44,516.78c0-0.32,0.26-0.59,0.59-0.59h3.57c0.32,0,0.59,0.26,0.59,0.59l0,0
		c0,0.33-0.26,0.59-0.59,0.59h-3.57C39.7,517.36,39.44,517.1,39.44,516.78z"/>
</g>
<g>
	<g>
		<g>
			<rect x="10.94" y="12.68" width="1.56" height="6.2"/>
		</g>
	</g>
	<g>
		<g>
			<rect x="14.06" y="12.68" width="1.56" height="6.2"/>
		</g>
	</g>
	<g>
		<g>
			<rect x="7.82" y="12.68" width="1.56" height="6.2"/>
		</g>
	</g>
	<g>
		<g>
			<path d="M18.6,6.36l-2.28-0.48l0.1-0.49c0.13-0.61,0.01-1.24-0.33-1.76c-0.34-0.52-0.87-0.88-1.48-1.01l-2.67-0.56
				c-1.26-0.27-2.51,0.54-2.77,1.8l-0.1,0.49l-2.36-0.5C6.11,3.72,5.48,3.83,4.96,4.17C4.44,4.51,4.08,5.04,3.95,5.65l-0.4,1.91
				l9.5,2.01H4.86v10.1C4.86,20.95,5.91,22,7.2,22h9.04c1.29,0,2.34-1.05,2.34-2.34v-8.93l1.42,0.3l0.4-1.91
				C20.67,7.87,19.86,6.62,18.6,6.36z M10.71,4.18c0.09-0.42,0.5-0.69,0.92-0.6l2.67,0.56c0.2,0.04,0.38,0.16,0.49,0.34
				c0.11,0.17,0.15,0.38,0.11,0.59l-0.1,0.49l-4.2-0.89L10.71,4.18z M17.02,19.66c0,0.43-0.35,0.78-0.78,0.78H7.2
				c-0.43,0-0.78-0.35-0.78-0.78v-8.54h10.6V19.66z M18.88,8.8L18.8,9.19L5.39,6.35l0.08-0.38c0.04-0.2,0.16-0.38,0.34-0.49
				C5.99,5.37,6.19,5.33,6.4,5.37l11.88,2.51C18.7,7.97,18.97,8.39,18.88,8.8z"/>
		</g>
	</g>
</g>
</svg>
