<?xml version="1.0" encoding="utf-8"?>
<!-- Generator: Adobe Illustrator 24.0.0, SVG Export Plug-In . SVG Version: 6.00 Build 0)  -->
<svg version="1.1" id="Layer_1" xmlns="http://www.w3.org/2000/svg" xmlns:xlink="http://www.w3.org/1999/xlink" x="0px" y="0px"
	 viewBox="0 0 16 16" style="enable-background:new 0 0 16 16;" xml:space="preserve">
<style type="text/css">
	.st0{fill:#33CCFF;}
	.st1{fill:#FFFFFF;}
	.st2{fill-rule:evenodd;clip-rule:evenodd;fill:#FFFFFF;}
</style>
<g>
	<ellipse transform="matrix(0.2106 -0.9776 0.9776 0.2106 -1.5052 14.136)" class="st0" cx="8" cy="8" rx="8" ry="8"/>
	<g>
		<path class="st1" d="M12.86,4.91c-0.31,0.14-0.66,0.23-1,0.28c0.16-0.03,0.4-0.32,0.49-0.43c0.14-0.18,0.26-0.38,0.33-0.6
			c0.01-0.02,0.02-0.04,0-0.05c-0.02-0.01-0.04,0-0.05,0c-0.38,0.2-0.77,0.35-1.18,0.45c-0.03,0.01-0.06,0-0.08-0.02
			c-0.03-0.04-0.07-0.08-0.1-0.11c-0.17-0.15-0.36-0.26-0.57-0.35c-0.28-0.11-0.58-0.16-0.88-0.14c-0.29,0.02-0.58,0.1-0.83,0.24
			C8.72,4.32,8.49,4.5,8.31,4.73c-0.19,0.23-0.33,0.51-0.4,0.8C7.84,5.82,7.84,6.1,7.88,6.38c0.01,0.05,0,0.05-0.04,0.05
			C6.22,6.19,4.87,5.61,3.78,4.36c-0.05-0.05-0.07-0.05-0.11,0C3.19,5.08,3.42,6.24,4.02,6.8C4.1,6.88,4.18,6.95,4.27,7.02
			C4.24,7.03,3.84,6.98,3.49,6.8C3.44,6.77,3.41,6.79,3.41,6.84c0,0.08,0,0.15,0.01,0.23c0.09,0.73,0.59,1.4,1.28,1.66
			C4.79,8.77,4.88,8.8,4.97,8.82C4.81,8.85,4.65,8.87,4.2,8.84C4.14,8.83,4.12,8.86,4.14,8.91c0.34,0.92,1.07,1.2,1.62,1.35
			c0.07,0.01,0.15,0.01,0.22,0.03c0,0.01-0.01,0.01-0.01,0.01c-0.18,0.28-0.81,0.48-1.1,0.58c-0.53,0.19-1.11,0.27-1.68,0.21
			c-0.09-0.01-0.11-0.01-0.13,0c-0.02,0.02,0,0.04,0.03,0.06c0.11,0.08,0.23,0.14,0.35,0.21c0.36,0.19,0.73,0.34,1.12,0.45
			c2.01,0.56,4.28,0.15,5.79-1.35c1.19-1.18,1.6-2.81,1.6-4.43c0-0.06,0.08-0.1,0.12-0.13c0.31-0.23,0.55-0.51,0.78-0.82
			c0.05-0.07,0.05-0.13,0.05-0.16c0,0,0-0.01,0-0.01C12.9,4.89,12.9,4.9,12.86,4.91z"/>
		<path class="st2" d="M5.97,12.07C6.8,12.07,6.01,12.07,5.97,12.07C6.08,12.07,5.96,12.07,5.97,12.07z"/>
		<path class="st2" d="M5.97,12.07C5.96,12.08,5.81,12.07,5.97,12.07C5.97,12.07,5.94,12.07,5.97,12.07z"/>
		<path class="st2" d="M6.3,12.08C6.3,12.07,6.47,12.08,6.3,12.08C6.3,12.07,6.32,12.08,6.3,12.08z"/>
		<path class="st2" d="M9.79,4C9.77,4.01,9.76,4.01,9.74,4C9.76,4,9.77,4,9.79,4z"/>
	</g>
</g>
</svg>
