<svg width="18" height="18" viewBox="0 0 18 18" fill="none" xmlns="http://www.w3.org/2000/svg">
                                    <path d="M14.2 2.42H7.5C7.33 2.42 7.18 2.51 7.1 2.65C7.02 2.8 7.02 2.98 7.11 3.12L8.61 5.57C8.69 5.7 8.84 5.79 9 5.79H15.12C15.37 5.79 15.58 5.58 15.58 5.33V3.8C15.58 3.04 14.96 2.42 14.2 2.42Z" fill="#FFB300"/>
                                    <path d="M15.58 4.87H9.26L7.52 2.03C7.43 1.89 7.29 1.81 7.13 1.81H2.43C1.67 1.81 1.05 2.43 1.05 3.19V14.81C1.05 15.57 1.67 16.19 2.43 16.19H15.58C16.34 16.19 16.96 15.57 16.96 14.81V6.25C16.95 5.49 16.34 4.87 15.58 4.87Z" fill="#FDD835"/>
                                    <path d="M11.09 9.53L9.25001 8.3C9.10001 8.2 8.90001 8.2 8.75001 8.3L6.91001 9.53C6.78001 9.62 6.71001 9.76 6.71001 9.91V11.13C6.71001 11.38 6.92001 11.59 7.17001 11.59H7.63001V13.88C7.63001 14.13 7.84001 14.34 8.09001 14.34H9.93001C10.18 14.34 10.39 14.13 10.39 13.88V11.59H10.85C11.1 11.59 11.31 11.38 11.31 11.13V9.91C11.29 9.76 11.22 9.61 11.09 9.53Z" fill="#64B5F6"/>
                                    <path d="M14.2 2.42H9V5.78H15.12C15.37 5.78 15.58 5.57 15.58 5.32V3.8C15.58 3.04 14.96 2.42 14.2 2.42Z" fill="#FF8F00"/>
                                    <path d="M15.58 4.87H9.26L9 4.45V16.19H15.58C16.34 16.19 16.96 15.57 16.96 14.81V6.25C16.95 5.49 16.34 4.87 15.58 4.87Z" fill="#FBC02D"/>
                                    <path d="M11.09 9.53L9.25 8.3C9.18 8.25 9.09 8.23 9 8.23V14.35H9.92C10.17 14.35 10.38 14.14 10.38 13.89V11.6H10.84C11.09 11.6 11.3 11.39 11.3 11.14V9.91C11.29 9.76 11.22 9.61 11.09 9.53Z" fill="#1E88E5"/>
                                    </svg>