<svg
                                  width="32"
                                  height="32"
                                  viewBox="0 0 32 32"
                                  fill="none"
                                  xmlns="http://www.w3.org/2000/svg"
                                >
                                  <path
                                    d="M3.68912 1.94818H22.342C24.3731 1.94818 26.0311 3.60621 26.0311 5.6373V24.829C26.0311 26.8601 24.3731 28.5181 22.342 28.5181H3.68912C1.65803 28.5181 0 26.8601 0 24.829V5.59585C0 3.60621 1.65803 1.94818 3.68912 1.94818Z"
                                    fill="#4A566E"
                                  />
                                  <path
                                    d="M12.0622 19.3161L6.59068 13.8446L0 20.4352V21.8031V24.7876C0 26.8186 1.65803 28.4767 3.68912 28.4767H22.342C24.3731 28.4767 26.0311 26.8186 26.0311 24.7876V21.8031V17.6995L19.8549 11.4819L12.0622 19.3161Z"
                                    fill="#00B594"
                                  />
                                  <path
                                    d="M11.8964 13.057C13.1784 13.057 14.2176 12.0177 14.2176 10.7357C14.2176 9.45376 13.1784 8.41451 11.8964 8.41451C10.6144 8.41451 9.57513 9.45376 9.57513 10.7357C9.57513 12.0177 10.6144 13.057 11.8964 13.057Z"
                                    fill="#FFCC03"
                                  />
                                  <path
                                    d="M26.0311 30.0518C29.3276 30.0518 32 27.3794 32 24.0829C32 20.7864 29.3276 18.114 26.0311 18.114C22.7345 18.114 20.0622 20.7864 20.0622 24.0829C20.0622 27.3794 22.7345 30.0518 26.0311 30.0518Z"
                                    fill="white"
                                  />
                                  <path
                                    d="M25.1606 21.3057C25.1606 20.8083 25.5337 20.4352 26.0311 20.4352C26.487 20.4352 26.9015 20.8083 26.9015 21.3057V26.943C26.9015 27.4404 26.5285 27.8135 26.0311 27.8135C25.5337 27.8135 25.1606 27.4404 25.1606 26.943V21.3057Z"
                                    fill="#00B594"
                                  />
                                  <path
                                    d="M25.4093 21.886C25.0777 21.5544 25.0777 21.0155 25.4093 20.6839C25.7409 20.3523 26.2798 20.3523 26.6114 20.6839L28.601 22.6736C28.9326 23.0052 28.9326 23.544 28.601 23.8756C28.2694 24.2073 27.7306 24.2073 27.399 23.8756L25.4093 21.886Z"
                                    fill="#00B594"
                                  />
                                  <path
                                    d="M25.4093 20.684C25.7409 20.3523 26.2798 20.3523 26.6114 20.684C26.943 21.0156 26.943 21.5544 26.6114 21.886L24.6632 23.8757C24.3316 24.2073 23.7927 24.2073 23.4611 23.8757C23.1295 23.5441 23.1295 23.0052 23.4611 22.6736L25.4093 20.684Z"
                                    fill="#00B594"
                                  />
                                </svg>