<?xml version="1.0" encoding="utf-8"?>
<!-- Generator: Adobe Illustrator 24.0.0, SVG Export Plug-In . SVG Version: 6.00 Build 0)  -->
<svg version="1.1" id="Layer_1" xmlns="http://www.w3.org/2000/svg" xmlns:xlink="http://www.w3.org/1999/xlink" x="0px" y="0px"
	 viewBox="0 0 16 16" style="enable-background:new 0 0 16 16;" xml:space="preserve">
<style type="text/css">
	.st0{fill-rule:evenodd;clip-rule:evenodd;fill:#606060;}
</style>
<g>
	<g>
		<path class="st0" d="M16,8c0-4.41-3.59-8-8-8C3.59,0,0,3.59,0,8s3.59,8,8,8C12.41,16,16,12.41,16,8z M1.22,8
			c0-3.74,3.04-6.78,6.78-6.78S14.78,4.26,14.78,8S11.74,14.78,8,14.78C4.26,14.78,1.22,11.74,1.22,8z"/>
		<path class="st0" d="M11.93,8c0-0.22-0.12-0.42-0.3-0.53L6.14,4.3C5.95,4.2,5.72,4.2,5.53,4.3c-0.19,0.11-0.3,0.31-0.3,0.53v6.34
			c0,0.22,0.12,0.42,0.3,0.53c0.09,0.05,0.2,0.08,0.3,0.08c0.1,0,0.21-0.03,0.3-0.08l5.49-3.17C11.82,8.42,11.93,8.22,11.93,8z
			 M6.44,10.12V5.88L10.11,8L6.44,10.12z"/>
	</g>
</g>
</svg>
