<?xml version="1.0" encoding="utf-8"?>
<!-- Generator: Adobe Illustrator 24.0.0, SVG Export Plug-In . SVG Version: 6.00 Build 0)  -->
<svg version="1.1" id="Layer_1" xmlns="http://www.w3.org/2000/svg" xmlns:xlink="http://www.w3.org/1999/xlink" x="0px" y="0px"
	 viewBox="0 0 16 16" style="enable-background:new 0 0 16 16;" xml:space="preserve">
<style type="text/css">
	.st0{fill:#FF0000;}
	.st1{fill:#FFFFFF;}
</style>
<g>
	<circle class="st0" cx="8" cy="8" r="8"/>
	<g>
		<path class="st1" d="M13.06,6.72c0-1.2-0.97-2.17-2.17-2.17H5.26c-1.2,0-2.17,0.97-2.17,2.17v2.64c0,1.2,0.97,2.17,2.17,2.17h5.63
			c1.2,0,2.17-0.97,2.17-2.17V6.72z M9.51,8.17L7.26,9.4c-0.1,0.05-0.19-0.02-0.19-0.13V6.75c0-0.11,0.09-0.18,0.19-0.13l2.26,1.3
			C9.63,7.97,9.61,8.12,9.51,8.17z"/>
	</g>
</g>
</svg>
