<?xml version="1.0" encoding="utf-8"?>
<!-- Generator: Adobe Illustrator 24.0.0, SVG Export Plug-In . SVG Version: 6.00 Build 0)  -->
<svg version="1.1" id="Layer_1" xmlns="http://www.w3.org/2000/svg" xmlns:xlink="http://www.w3.org/1999/xlink" x="0px" y="0px"
	 viewBox="0 0 20 20" style="enable-background:new 0 0 20 20;" xml:space="preserve">
<style type="text/css">
	.st0{fill:#5F6368;}
</style>
<path class="st0" d="M13.22,11.93h-0.68L12.3,11.7c0.84-0.98,1.35-2.25,1.35-3.63c0-3.08-2.5-5.58-5.58-5.58S2.5,4.99,2.5,8.07
	s2.5,5.58,5.58,5.58c1.38,0,2.65-0.51,3.63-1.35l0.23,0.24v0.68l4.29,4.28l1.28-1.28L13.22,11.93z M8.07,11.93
	c-2.14,0-3.86-1.72-3.86-3.86s1.72-3.86,3.86-3.86s3.86,1.72,3.86,3.86S10.21,11.93,8.07,11.93z M5.93,7.64h4.29V8.5H5.93V7.64z"/>
</svg>
